<mxfile host="65bd71144e">
    <diagram id="FF4sijr8x7cbSzZ5zqh7" name="Page-1">
        <mxGraphModel dx="1706" dy="710" grid="1" gridSize="10" guides="1" tooltips="1" connect="1" arrows="1" fold="1" page="1" pageScale="1" pageWidth="850" pageHeight="1100" math="0" shadow="0">
            <root>
                <mxCell id="0"/>
                <mxCell id="1" parent="0"/>
                <mxCell id="2" value="" style="shape=image;verticalLabelPosition=bottom;labelBackgroundColor=default;verticalAlign=top;aspect=fixed;imageAspect=0;image=data:image/png,iVBORw0KGgoAAAANSUhEUgAAAvcAAALQCAYAAAAU1l81AAAAAXNSR0IArs4c6QAAAARnQU1BAACxjwv8YQUAAAAJcEhZcwAADsMAAA7DAcdvqGQAAP+lSURBVHhe7J0HeBT1FsWvCBqKEJoGpIUmvXcfUpTee+9dutKLFJEiXUCpgpSgoCBdWhBEQClBQUOTACIEaaGvEPHlXGZiwEA2yfY9v/flm9mZgPtIdubM/Z977nMWi+UfIYQQQgghhLg9CYwtIYQQQgghxM2huCeEEEIIIcRDoLgnhBBCCCHEQ6C4J4QQQgghxEOguCeEEEIIIcRDoLgnhBBCCCHEQ6C4J4QQQgghxEOguCeEEEIIIcRDoLgnhBBCCCHEQ6C4J4QQQgghxEOguCeEEEIIIcRDoLgnhBBCCCHEQ6C4J4QQQgghxEOguCeEEEIIIcRDoLgnhBBCCCHEQ6C4J4QQQgghxEOguCeEEEIIIcRDoLgnhBBCCCHEQ6C4J4QQQgghxEOguCeEEEIIIcRDoLgnhBBCCCHEQ6C4J4QQQgghxEOguCeEEEIIIcRDoLgnhBBCCCHEQ6C4J4QQQgghxEN4zmKx/GPsE0IIiYHQ0FD5/fff5fr16/LgwQN58cUXJXXq1JIlSxZJmTKl8V2EEEKIc6C4J4SQZwAxv2bNGtm+fbvs27dP/vzzT+PMf4HAL126tFSuXFnq1q0riRMnNs4QQgghjoHinhBCouH777+X2bNny8qVK40jj0iVKpVkzZpV0qRJI4kSJZKIa6gK/lOnTsmdO3eM7xKt6Ldt21a6desmuXLlMo4SQggh9oXinhBConD69GkZOXKkrFixwjgiWoWvVauWlCtXTrJly2Yc/S9HjhyRwMBArfTv2LHDOCrSs2dPGTVqlCRJksQ4QgghhNgHintCCDH49NNPpW/fvvLXX39JwoQJpX///vL2229LhgwZjO+wnp9//llmzpwp8+bN09ew7EybNk2qVq2qrwkhhBB7QHFPCCERQMjPmDFD91u0aCFjx46VTJky6ev4sH//fhk0aJBW9MGHH34ovXr10n1CCCHE1lDcE0K8nk6dOsmSJUt0Hz77Ll266L4tGT58uIwZM0b3hw0bpl+EEEKIraG4J4R4Naiiz507V/3wq1atkipVqhhnbA8sOp07d9b9cePGqQWIEEIIsSUU94QQrwUeeFhmAKIuK1asqPv2ZMGCBdKxY0fdRxIPGnUJIYQQW0FxTwjxSn788Ud54403dH/p0qXqs3cUo0ePlhEjRki6dOnk0KFDHH5FCCHEZiQwtoQQ4lUMHTpUt71793aosAfvvfeeVK9eXS5evEjvPSGEEJvCyj0hxOtYtmyZdOjQQeMpT5w4ocOoHM0vv/wi+fLl030MzCpatKjuE0IIIfGBlXtCiNeB/HkwZMgQpwh7kDdv3siGWvP9EEIIIfGFlXtCiFeBvHlYYlC1DwkJMY46hzNnzoi/v7/u473Ag08IIYTEB1buCSFexVdffaXbVq1a6daZ4AGjfv36uo8YTkIIISS+UNwTQryKb775RremqLaGsKMbJWDqIOnZe5BMnrdKgs5bjDNRCA+T4E0BErB8owSHGcesoF69errdvHmzbgkhhJD4QFsOIcRrQPNsgQIF5NVXX5Xz588bR5+FRUK3TpBGLcbLvmsWCf874lCilyR1riYyd9UMqZ/d59G33Q6RjePaS7fZe+XcS5Vl2bYV0tw8FwNIzEmfPr0kTZpUrl69ahwlhBBC4gYr94QQr+HIkSO6LVasmG5jJHSPTBowS364+5IU7DBJ5n88SbqXfFlePPKVvDdpj4SFR3zPlSBZ0KmKtJjyg1z/+wWRJBFfsQA+e/ju79y5I8ePHzeOEkIIIXGD4p4Q4jWYDbQ5cuTQbUyEHtki6w5flhRlxsqSye9Kh27vyrABleTVLNfl+snDcjEsRFa9W0s6fn5Swiz35K9kt4w/GTty5sypW2c3+BJCCHF/KO4JIV7D5cuXdevn56fbmPCrMFJ2hpyWHwNaSu5kOBImF0+FyC2LjyRP9ar4JPOX6oPnyvhhM2VD4DKplVz/WKwx34/5/gghhJC4QnFPCPEa7t27p9skSZLoNkYS+ohfFn/xT/PIP285+pVMnblXTt14RYq3Lyf+EYd9clWXge93l4oRL2JnyPkX8/1YLNE06hJCCCGxgOKeEOI1JEyYULfh4TDLxw7LmY0ysn1PWXL6pvg3HiuDy1pX/beGBw8e6Pb555/XLSGEEBJXKO4JIV6Dr6+vbq9du6Zba7GcD5QJbWrIhP33JG29mfLFtOaGTcc2mO/HfH+EEEJIXKG4J4R4DRkyZNBtbBpXVdi3riojd4m82mimbJ7bXQrbWINjUi3ImDGjbgkhhJC4QnFPCPEacufOrduff/5ZtzESGijT29WSkTse2WZS3/pWpvZpLa3bdpKeUzZKCCzyoUGyaskCWbYyUM7ej3h9/4wErlwmC5YHWjXM6uHDh5HvJ1euXLolhBBC4gqHWBFCvAZ422F9+fvvvzWZJk2aNMaZ6LBI0IxKUqTXbuP1E2RsIF/t+lKqh42UYoVHyS/G4UiS1ZJlQTEPs/r222+lQoUKOlzrxx9/NI4SQgghcYPinhDiVdSuXVu2bNkiCxculLZt2xpHo8MioQcCJfDIRXmUsfM4iX38pXC1ipLbEiSrth6S60/06Eaej8HC079/f5k0aZL06dNHxo8fbxwlhBBC4gbFPSHEq5g/f7706NFDKleuLJs3bzaOOg/0Afzxxx8SGBgoZcqUMY4SQgghcYOee0KIV9GsWTNJnDixVu/37dtnHHUOWD2AsC9SpAiFPSGEEJtAcU8I8SqSJk0qXbt21f0PP/xQt85i4sSJuu3SpYtuCSGEkPhCcU8I8TreffddFfmrV6+WL774wjjqWEaPHi3BwcFatW/Tpo1xlBBCCIkfFPeEEK8DKTmjRo3S/d69e8v58+d131Hs2LFDRowYofsjR47ULSGEEGILKO4JIV4Jmmpr1aolly5dcmjlHAOrzJSevn37amMvIYQQYiuYlkMI8VquXr2qGfMnTpyQevXqyapVq4wz9gErBHigOHz4sFStWlW+/vpr4wwhhBBiG1i5J4R4LalTp5ZXXnlF9+G/RxU9NDRUX9ua/fv3y5tvvqnCvlSpUrJ06VLjDCGEEGI7KO4JIV5LgwYN5LvvvlOBnzFjRtm6dasUL17c5hX1jz/+WEqWLKkrBFgpwN+fLFky4ywhhBBiOyjuCSFeCYT9hg0bdIjU+vXrZffu3WqVgXUGFp2WLVvK0aNHje+OG2icrVSpknTv3l3++ecf6dChg2zatEl8fWMYW0sIIYTEEXruCSFeR8OGDVXQQ9jDjpM/f37jjMjkyZNl+PDh8vDhQ32N723RooXUrl1bEiSIuR5y48YNrcwvWbJEtm/frsfSpUsnY8aM0b+HEEIIsScU94QQr8IU9q+++qqK8KjC3uTs2bMyadIkmTdvnnFExMfHR8qWLSuFChWSrFmzStq0aSVRokQScQ3VxJ1Tp07JwYMH5fvvvzf+hEjy5Mk1lad///46FZcQQgixNxT3hBCvIaqwR8W+QIECxpnouXjxoixbtkwfAg4cOGAcjZmKFStK/fr1pVWrVvLiiy8aRwkhhBD7Q3FPCPEKGjVqJOvWrbNa2D8JUnR+/PFH+fXXX+XcuXNy/fp1efDggYp3DMXKkiWL5MuXT5NwXnrpJeNPEUIIIY6F4p4Q4vGYwj59+vRahY+tsCeEEELcBablEEI8mqjCPi4Ve0IIIcSdoLgnhHgsjRs3fkzYFyxY0DhDCCGEeCa05RBCPBII+7Vr12oMJaw4FPYkLmDIGWYgHDp0SIeQocn69u3beg5pSHhwfO2116RIkSLyxhtv6LAyQghxJhT3hBCPg8KexAeI+IULF8ry5cu1kTo2ZM6cWZo3by7t2rWTTJkyGUcJIcRxUNwTQjyKqMIeVhzk0hNiDX/88YeMHTtWFixYYBwRyZMnj04ZRgpS3rx5JWPGjFqxB2FhYZqchEnGe/bska1bt+q8A5OePXvKkCFDJGXKlMYRQgixPxT3hBCPoUmTJrJmzRrx8/PTij2FPbEWDCwbMGCA3Lt3T1936NBBv0qXLq2vrWXHjh0yf/58CQgI0NcYdvbhhx9Ks2bN9DUhhNgbintCiEdAYU/iSrdu3dSGA7DyM3LkSMmdO7e+jisYeoa/Z8OGDfq6V69eKvIJIcTeUNwTQtyeqMIeVpzChQsbZwh5Ovfv39eo1M2bN0uiRIlk9uzZ0r59e+OsbZg+fbr06dNH9/HgsHjxYt0nhBB7QXFPCHFrmjZtqpX6V155RbcU9sRa6tSpo8Le399fPv/8cylRooRxxrZs27ZNH0CvXbtGgU8IsTvMuSeEuC0U9iSudOnSRYV91qxZ5ZtvvrGbsAdvvfWWbNq0SVKlSiUrVqyQQYMGGWcIIcT2sHJPCHFLogp7WHGQM06INcB+A6vMiy++qBn2xYoVM87YF6TpVK5cWfdRvUcVnxBCbA3FPSHE7UDyCAQ9hT2JLWfOnJH8+fPLgwcPZNGiRdKmTRvjjGOYOnWqvPPOO/q7e+TIkchYTUIIsRW05RBC3ApT2L/88ssU9iTWIMcewh6Dphwt7EHfvn2latWqcunSJRk3bpxxlBBCbAcr94QQt+FJYV+0aFHjDCExg2FTpgXn5MmTkj17dt13ND/88IMOxQIhISE6cI0QQmwFK/eEELcAlVYKexIfPv30U90i195Zwh6ULFlSIziB+Z4IIcRWsHJPCHF5IOxXrVql0z7RREthT+ICKuTXr1+XgwcPOt3OtWXLFqlSpYrkyJFDvfeEEGIrKO4JIS5NVGGPir2jkk2IZ4Gkmlq1aqmoh7i3itshsnfTRgn84ZiEJs0lpctXlOplc4tvQuN8eJgEfxdx/tu9cuyOn+QqGXG+WmnxT2acj4HMmTPLuXPnZO/evYxxJYTYDNpyCCEuS4sWLSjsiU3YtWuXbs0oyhgJC5IFnSpJpdZ9ZNjkmTJzdA9pV6+yNJ+2V8LCI85HCPu905pLxeptpPfoiPOTh0nfDrWkercACb796K+IiUqVKun2u+++0y0hhNgCintCiEsCYf/VV19JmjRpKOxJvDl06JBuS5curdtnY5HglUNlxLpzkjBDdRn60XyZObiWZE97R3bMHClLjlkk7MBM6ffhNrmVPJc0jxD386e8K6/7JZJjm8bKmE0hxt/zbMz3Yr43QgixBRT3hBCXg8Ke2Jrjx4/rNl++fLp9JrdDZM/XO+WP8GzSdu5nMqZnB+k+ZJS8nSuTWM6el0O/n5XgHV/LnssvSsF3F8tHw7tLh57DZHj9rJLx6k0581OohBl/1bPImzevbk+cOKFbQgixBRT3hBCXomXLlo8J++LFixtnCIk7Fy5c0G2mTJl0+0yS5ZYWy36T00d3yPiyvnrIciVEjl66K+L3kqRP+4qU7rtNTp/8Wb7qVVj0OywXJeTUNbEkTiopMvmKj/6pZ2O+F/O9EUKILaC4J4S4DBD2X375paROnZrCntiMu3fvysOHDyVp0qSSMKHZDftsfHz9xD+7n/jg28NDZc+S8bLiSIikzNlQGuaKkPM+vhHn/cVPVbxFQrZ+LJO2nJLbaXJJy4r+Von7FClS6PbWrVu6JYQQW0BxTwhxCSjsiUsSHiZBC7tI25H75doL/5OBI1tK4SfScEJ3T5fW7WfKsVuvSK3h70n1LNZIe0IIsQ8U94QQp9OqVavHhH2JEiWMM4TEnyRJkkiCBAnkzp07Eh6OqBsrQdTl8v5St/Na+f1hPnl36afSu4KfcfIRYfumSafag2R3WCIpP36xTG9X+N+ozBi4ceOGbl966SXdEkKILaC4J4Q4FQj7lStXSqpUqSjsid1Inz69bn///Xfdxki4RYV91dbz5ZwUlXfXrpUxtR6320DYt6rZV9ZfTyJVxn8jy3tXFD8rhT0w3wuGaxFCiK2guCeEOI2owh6TZynsib3ImTOnbo8eParbZ4MozJ5SW4V9BC8nlRNfjJDOLVtL6y6jJOBwmIQdmC2t6kQI+6v4hrTycP8iGdAx4nzbnjJhdXDE3xAz5nsx3xshhNgCintCiFNo3bo1K/bEYWAyLcA02Bg5HygT+8+XU8ZL+XOXrFu2RJbga+40mbhyt3w5IkLY/2mcl7Oy9Svj/GczZfq8PRJixSCrffv26dZ8b4QQYgues1gs/xj7hBDiECDsV6xYISlTptSKfcmSJY0zhNiHLVu2SO3atXVmwv79+42jT+F2iASu2yshlnvGgagklpR5ikrWawflYGh05yO+w6+IVK8Us/c+S5YscvbsWdmzZw8FPiHEZlDcE0IcCoU9cRavvPKKNrEGBQVJoUKFjKPOYevWrVK5cmXJnj27lVYhQgixDtpyCCEOo02bNpHCHlYcCnviSJo1a6bb+fPn69aZLFiwQLdNmzbVLSGE2ApW7gkhDgHC/osvvhBfX1+t2JcqVco4Q4hj+PnnnyN7O3777TfJmjWr7jsa2IKivo9XX31V9wkhxBawck8IsTsU9sQVKFCggA5LAyNGjNCtMxg5cqRue/fuTWFPCLE5rNwTQuxK27Zt5fPPP1dhDytO6dKljTOEOJ7Tp09L/vz55e+//5YlS5ZEin1H8dFHH6moT5s2rRw5ckQ/F4QQYktYuSeE2A0Ke+JqwIozceJE3e/SpYs21zqKwMBAFfbgww8/pLAnhNgFintCiF0whX2KFCko7IlL8fbbb+sAtbt370rjxo3V925vDh48KE2aNNH9nj17Rjb3EkKIraEthxBic9q1ayfLly+PFPZlypQxzhDiOtSsWVO2bdumcZToCbFX1vyOHTtU2F++fFkaNmwoS5cuNc4QQojtYeWeEGJTKOyJu4AJyW+99ZacOnVKXn/9dVm8eLFxxnbMmjVLKlasqMK+QYMGFPaEELtDcU8IsRmmsE+ePDmFPXF5EidOLOvXr9fBahaLRVOdmjdvLidPnjS+I+4cPnxY6tSpIz169NDX2C5btkz3CSHEntCWQwixCU8Ke1RCCXEXZs+eLQMGDJD79+/r686dO0vHjh2lePHi+tpavvvuO5k3b54m8QAMbEMDr6NTeQgh3gvFPSEk3rRv314CAgIo7Ilbc/bsWRk7dqx89tlnxpFH2fiVKlXS2Qx58+aVjBkzSrJkyfTczZs35dy5c3L06FHZs2ePbNmyRY4fP67nABp3hwwZImnSpDGOEEKI/aG4J4TEC1PYv/TSSzqgisKeuDu//vqrLFy4UNOe4JV/kgQJHjlaHz58qNuoZMiQQZNw8Lnw9/c3jhJCiOOguCeExJmowh4V+//973/GGUI8g2+//VatNocOHVIv/pkzZyQ8PFzPoYKfPn16ee2116Ro0aJStmxZPtwSQpwOxT0hJE506NBBGwQp7Ik30bVrV1m0aJF88skn2mdCCCGuBtNyCCGxxhT2qFxS2BNv4q+//tKtj4+PbgkhxNWguCeExAoKe+LNmOL+xRdf1C0hhLgaFPeEEKtBNGBUYQ+PMSHeBMU9IcTVobgnhFgFhD2mayZNmpTCnngtFPeEEFeH4p4QEiNRhT3iLinsibdCcU8IcXUo7gkhz6RTp06s2BNiQHFPCHF1KO4JIU8Fwh5j9JMkSaLC/o033jDOEOKdUNwTQlwdintCSLREFfaw4lDYE0JxTwhxfSjuCSH/oXPnzqzYExINFPeEEFeHE2oJcVNCQkJ0FP7ly5cl4nMsCRMmlJQpU0rGjBklV65c+jouQNgvXrxYEidOrBX7cuXKGWcIIVmzZpULFy7I6dOnJX369MZRQghxHSjuCXETIOJRRd+8ebPs2bNHrl+/bpz5L88995yULFlS3nzzTaldu7YULFjQOPNsKOwJeTavvvqqXL16Vc6fPy9p0qQxjhJCiOtAcU+IixMUFCSzZs3SxJqoQGTkyJFD/Pz8VIw/ePBARQcq+seOHTO+6xFIuOnatas0aNDAOPJfunTpIp999pn+XXiIKF++vHGGEGICQX/79m192H7ppZeMo4QQ4jpQ3BPiooSFhcnw4cNl3rx5xhHRKnzdunW1Ip8pUybj6H+B+Ni5c6ds2LBBli9frn8XgHd+5MiRUqZMGX1tYgp7Hx8frdhT2BMSPRD0eJC+efOmvPDCC8ZRQghxHSjuCXFB1q1bJ71791ZvL8B+z549JVu2bPo6Nvz999/y8ccfy8SJE+X333/XY3hoGDp0qO5T2BNiHQ8fPtQm8wQJEsjdu3eNo4QQ4lpQ3BPiYkydOlUGDx6s+9WqVZMJEyZI/vz59XV8CA8PlyFDhqjIBw0bNpRkyZLJokWLVNjDilOhQgU9Rwj5L/fu3dOmdVjXntXzQgghzoTinhAX4v3335cPPvhA90eNGiXvvfee7tuStWvXSrt27eTatWv6GpF+qNhT2BPybGBvQ4+Lr6+vhIaGGkcJIcS1YM49IS4CKvamsF+wYIFdhD2Ab//bb7+NtPgUKVKEwp4QK2DGPSHEHaC4J8QFQOOracWZP3++tG/fXvftBWw+8PWnS5dO9u7dKwMHDjTOEEKexv3793VLcU8IcWUo7glxMkjdQMMsGDFihHTo0EH37U3u3Lkj4zWnT5+udh1CyNNh5Z4Q4g5Q3BPiZGC/wUCcypUra0ylI6lYsaKMHz9e94cNG6ZbQkj0mOKeEZiEEFeG4p4QJ3LkyBGZPXu27iMVxxnAkoNptidOnJApU6YYRwkhT8LKveuDuFJE/h49elR++uknva6Zcz4I8RYo7glxIsifB927d5dChQrpvjNARCaYOXOmbgkh/4Xi3vW4deuWDurr3LmzFC5cWOcQYHJ3sWLFtGhRoEABTTjKmDGj1KxZU1cqMfWbEE+GUZiEOAlUk9DQ+s8//0hwcLDkypXLOOMccCP88ccfNfe+adOmxlFCiAlSpqpWraqD3r755hvjKHEGuFbNnTtXli1bptfQqGTIkEHnESRMmFDu3LkjFy9e1IeAqOBBAJHAeCggxNNg5Z4QJ4GhUbgpYVCVs4U9aNWqlW5XrVqlW0LI47By73xOnz4tbdu2lTfeeEMDAXANrVSpkloK9+/fr4lGsOX8/PPPcujQITl+/LiGFpw7d06+/PJL6dq1q7zyyitave/Vq5fkyZMnMliAEE+B4p4QJ7F161bd1qlTR7dWEx4mwZsCJGD5Rgl+0kqKc7tXyazh/WT4x6tk7xnrvab16tXT7ebNm/9TCSOEUNw7G1TqCxYsKJ9//rk899xz0q9fPzl58qRs2bJF+vbtq1acRIkSGd/9OLDlNGjQQD755BMdQAZBj9VKPCx07NhRmjVrJn/++afx3YS4NxT3hDiJ77//XrdIrLGa2yGycUQ9qdqyvbQYPFuCrliMExFcCZIFXWtIg+ZtpceYyTKmeytpWLWGdF0YLGHhxvc8g1dffVVvnBAwyL4nhDwOxb3z6Nmzp1baHzx4oKuMISEhMnHiRMmePbvxHbGjRYsWsm/fPn1ggIUHK6n/+9//Iq/LhLgzFPeEOIELFy7IpUuXJE2aNNr8ZRUQ752qSIspP8j1v18QSRIlji88TPbO6yVDvzggl5NVkzEfz5eZQ6tK2ju/yKcDOsr8w9ZV8IsWLapbJE0QQh6H4t45NG/eXObNm6f7mN69ePFiyZw5s76OL506ddJUHdgjYd2pUqUK+ymI20NxT4gTOHPmjG6trjpZQmTVu7Wk4+cnJcxyT/5K9nhzmFw5JGs2XJJLSfJJk+nTZWi3DtJ92Cx5r25uefXKSVn+pXXVe/NBA1UxQsjjUNw7njZt2mgf0Msvvyy7du2yy/RuWHY2btyoQj88PFwaNmwou3fvNs4S4n5Q3BPiBK5evapbNHZZhY+/VB88V8YPmykbApdJreTGcQNLaLD8fPO8SNrXpGJuv0cHfXylcIkckjbLZQk7fEAuRnHwPA3z/Vy5ckW3hJB/obh3LMOHD5cvvvhCfH19ZcOGDVK2bFnjjH2ARQfpORD4SNKBN58Qd4TinhAnYLE8UtqJEyfWrTX45KouA9/vLhX9feTJ+ZiW2xb5O8E9yZgis6RLZhwUH0nsl0r3Hty9KhYrKvfm+zFFDCHkXyjuHce6devUUw8CAgK0WdYRzJkzR6pXr66JO/D4E+KOUNwT4gSQvwzQHGYTHv11In9HfEUn4hNYJ0YQIwfM90cI+ReKe8dhDtYbO3as+uEdCSr4qVOnlrVr1+rcD0LcDYp7QpwA0hmArewvPsl8JcnDJPL77bNy8bZxUCxyL/Sa7iVKklZ8fXT3mZh2IfP9EdcED4Vo/vvll1/0Cz0c5moQsR+muH/hhSfXzogt+fDDDzXisnTp0jJ48GDjqONAchjeA8DDBSHuBsU9IU4ADVzAVo2rPn7+UiiVvyS59rOsP2L4RC0XZe+Ok3LjTEbxK5JXUloh7pH5DJBGUaNGDRkwYIB89tlncuDAAbl3756eI44H3l+khKC5MF++fPLSSy9Jzpw5Nd0IXxiCBl/ya6+9pnndH3/8MZui7YC5ssXKvf34+++/Zfr06boPz72zQOPu66+/rg/R+DwR4k48Z7FYOK2GECeAZV+MRkckJpIgYiQ0SFZtPSTXI7afzpkle6SodOjQTUpn8ZcylYpI2MJa0uj9H+RuunrSu09lSfPHRpm5YKucTlBIJqxZK32K+Rp/0dPB1MfvvvvOePVfkKaTN2/ex74gKIl9wHCe+fPnqz0gKhjggxH7KVKk0H2M1v/jjz/+Y/N66623In5HOkQOKCPxA0OTZs6cKZMmTZIePXoYR4kt+fTTT+Xtt9+WcuXKybfffmscdQ4rVqyQJk2aSP78+XX6LSHuAsU9IU4CTVuBgYF6A2nUqJFx9OlYDo+UYoVHyS/G60iS1ZJlQSukuW+QfNCyvAzb/Ki6+IikUmXaVvm8e2nxjcFGf/fuXUmaNKnu//jjj3L+/PlI24f59fDhQz0fFR8fHxX5GOMeVfSnT5/e+A4SW/DvP2bMGBX3JnXr1tUM7jJlymj1PkGC/y68Hjt2TAeQ4c999dVXkWIf9oahQ4eq2CdxB4OUkLc+Y8YMjU0ktgf++h07dsjChQulbdu2xlHnkSlTJm2u3blzp060JcQdoLgnxElMnjxZBRemLcIGEyNm5f6JhtnEPv5SuFpFyY3C/O1QCd6/R4LO/SkPXsgkOQuXkcK5fMUKR45GzjVt2lSnNG7bts04+i8Q9qbI//XXXyP3zcz+J0mbNu1jYh9feACApYQ8nffff18++OAD3cfqDsbqQ0hatboThdu3b2vVHxYH82eEajOqziRuICYRn1U0XLZu3do4SmzFtWvXIosCN2/etO5aER4mwd9tlMBv98qxO36Sq2RFqV6ttPhHpoaJhB0NlI079sqPp65LynxlpHa16lI4gzVXRZHevXvLRx99pA2+7733nnGUENeG4p4QJ3Hq1CmtwCZKlEguX76sFgtnUqdOHbV/IH4OFUpruXHjRrSi32zOfZKsWbNGK/q9HVi04Klfv369vn7nnXdk1KhRkixZFJUSR/D3jBw5UvfhI0YCiNn3QawHPx88BKMPBXYNYlvwu48BUhUqVNBVzRjBZO5pzaX+8K1y2RKuYWGJXkot2ep8JKs+aS65Iz46oTsmSOsWo2THn/ckXL/hRfHN1lwWbvpY6maJWeAjkrN27dpqWYy6kkaIK0NxT4gTgdUCo86RyOCMVAiTQ4cOaWMmrB5YgkbFOL5EZ+uB+DebEqOC6M0nBT++vEWAIjWpfv36asdB5RLWD9i2bAnsOlgBwM8hW7ZsattBIy6xHqxsff311/L555/rZ5fYFqxYYeVq4MCBMn78eOPo0wnbN0Zq1B4tPz33mtTv0VXKJQuRpZ8sk2+vpZbmn6yTZRVCZVTt+vLBz39Lvsa9pUNpHwkOmCNrf7gqqTuslB1TK8ZoV/zzzz91uF/y5Ml1nxB3gOKeECcCYQ+RgOhJJNUg8cQZoAoJ73/37t3VLmRPgoOD/yP6f/vtN+Ps4+DfJTrR76x/J3sAX3zlypVVfBcpUkRWrlypqxv2ICwsTBo3bixbt27V5ujNmzezNyIWoDF506ZNsnr1aodnr3sDSKjBwCrr/PZhsnfcW1JmyHEpM2GXbBhQWHzDwyRwWA1pO+F3yTj0Cwl4M1BqVhwmv1f8SPau6fmokr+pj9TuPF3+eG2ybFv/juS2wp0DSxxWV2Fv8/MzJoAT4sJQ3Hso8C4iPg9L/UjTgHcxXbp0Wn0grgUqths3bpRu3bo5JXLtyy+/1IZexPtBeDtD7OH39EnBj6+nVcrQ5Bad6H/++eeN73Af0HMBQV+wYEEV26gS2hNEDaIxd/v27VK+fHl9wCTWYTbB4/NasWJF4yixFYjfxe8lPgd44I0RS5iEnL8uiTP4ix9E+u1gWdC2vgzeKFJs2ipZ1d5fLOcvyvVk6cQ/TcTjwJlg2Ti9k7SYdlCydd0uu2dUFD8r5vXhs/nzzz/rylqBAgWMo4S4LhT3HsLRo0e1ooQYw6CgIK0yRAeGc8B+gZs6blRZsmQxzhBngZtGiRIldH/ZsmXSvHlz3XcEiE8sXry4XLx4USZMmKDNY64EHlCjE/3RZe7jIdYU+VGTe/z9/Y3vcD3QqIdZAliJ2LNnj+TOnds4Y1/QD4HUnRMnTsi7774b2cBLns2bb74p33//vQpQ9C4Q2wKvPVawdu/eHYd/X4uErO4v1dvMlrO+NWV+4HJpnt0oy4eHysbuRaXG3AuPXufpIRs2TJTqVnjuAT4reF+I5ixVqpRxlBDXheLezVm6dKkOt8GFJypozoSQR8X+n3/+0aZHeKkRdxgVVPDgw61Zs6ZxhDgDJJrAZ4rJl7iBILrQEUCsoBKJihk82O4CRKkp9M0m3uPHjxtnHwerVabQjyr806RJY3yHc4ANCw3VSCGCh9vRDZr4PYOYAogedNTvnDuDJCkMdIP4LFasmHGU2Arz4Qmxk2hgjQ2huydIo1qDZHfYq9J47jqZ067wv356NN5+/I4MmLxQdp97dKj40D2yZWTMEcEAgv6HH37Q4hmKIYS4OhT3bsqaNWu02oaqL0Dlr0GDBrqUiQsRbAvRgZHeuHhiKR52DCzRA1Tyhw0bpjcv4hy6du2qKSawZSChwd43EXj98XuESacQ+M4Wu/El4loWKfijiv4LF4xq3RPg4Teq6DeFv6Omj+KhesmSJRqpiPQVZ4AHSozZr1Spkv7OkWeDz+SRI0doz7ATpkURTctI77KWsH3TpFX1vrL+eiIpP/4bWf6uYbeJEPWhZ66LTwZ/8UWRPtwiIevGSMt3PpAjSTvI19/Ol4pWXPYwqA8FhZ9++olD+4hbQHHvZqD5rlevXtpwBCBI+vTpIx07dtTXsQHVfKRyTJkyRW0ZABaB0aNH6z5xPGYaB1ZcsCqDCDZbgxUcRPqhWos+DIg6VJA9FVjUoop+U/hjqmt0IEHmSdGfPXt246xtQG9D4cKFdR8P3Lb++60FvQ4oBKBHhz7ymIGgp8izH7i3YYYAVjKxbw0q7GtGCPurSaTK+HWyqHeEsFchHyZ7p9aTRmN+kle6bZDtYx5V6S2HZ0n95sMk8J8GsnFHhLi3oj82ceLEWjxAqpUtomkJsTcU924EbAcQZYcPH1Z/MfLI4ZeNL4gmxHAOeK5B1apVtZLo7Nx1b6Vdu3ayfPly3cdqCqLhbAUyuuGrv3TpkooTePw9Wdg/C9hiohP90ZEkSZL/CH58xbX5FRVzCBgMRZozZ45x1DmYGfhI0bFqmJoXg8/M2bNndRIw+5Vsz6xZs/SehmIVCk8xEXZgtrSq0U3Wa999ZqnU4I1Hwj5hCslb521pk26jNGo4Sn78y0+qtusttXNYZN/i+bLt0GVJ0XC+fLOgbowNtXgQx4pe5syZn2r9I8TVoLh3E5BDDtsNKuxovsSFz9bLwojHw0X13Llz2nQLDzZjv5xD1CmlEN+YjtisWTN9HRdgI4D9wvTVI8YP00ttkWfvSYSHh/9H8OMLqx3RAXEfnejHw8CzQJMvPsvolXF2gx4+7xAuAKscnCD8dCDo0eQdEhKiq17EtsDXXq5cOW0sf9qDdiSWEAlokEdabLQYBx4nXbX5sj2ggYR91ka6TNsrp85cFm3DT5pW0ueoI/NWz7CqoRYrCV26dNH7L4ohhLgDFPduACaZovEVySbwSSOPHFNN7QFu9JgQuH//fn2IwEQ+Hx/rEgWIbYEPfujQoZp+BCAa4c/G7wB88jEB2xUsN8iNRpISQFQk+ixQMUZSC7GO69evRyv6kRsfHciQx88ramqPOTAKqTiwv+A1qoJWER7TiH2LhB7dI4Gbdsih+1mkYpUaUrGYn1j7yX3rrbc0AQZWMHz+SfQgJhYWJvRxpEqVyjhKbIn5b4zehmeuKuIzsXWj7An9b3IWSOxXRKpXQlNtxGfjQKAEBl+Um3dEkqdIJ7nLVpTCGaz7dGC2AaySM2fOjJP9lRBnQHHvBiA1AJVX+K/RAGlv4CtEYy5EJasVzge2DdxY4M02gXjE6gpEPqrH8ISi6oyfHaqK8ATjd8YEKTzI0Yflyhy+s3btWuuypMlTwcNwdKLfbFSPChp1IfKRXoXPVo8ePWTGjBnG2WcA7/CzRuz7hEac7yZvz/pWjp8J0+pk8iyFpVzLMTJ9YPUoDwBPB9NAMSEZTd3Tpk0zjpInwUoX+hQQJZo0aVLjKLElZrAAChtjxowxjjoHrNKYKzQcYEXcCYp7F+edd97RwUaFChXSih9EnCOAtxDZvqig4MaPpl3iXFCFh60GA15QSbYGRB0idQLZ+eYAM3PEe/78+XWFhtgWiHdT5JuJPfjCQ1dU4G/HAKuYiGnE/uRkU6RC67lyMXExadSzvZTyCZYvPloqOy8mlOqfbJXlrXLHWMHHKhFiCGERQkQmiR40U+Ih+vbt25IwoRUZiiTWIAYTK9WYCgvrWoIECYwzjsfsR0H13uyDIsQdoLh3YXDDxaApAC+iOejIUcD+g+xtNO9CnNhrJD6JPajMY9kaghE+6YjPsYqNlClTSsaMGdWziti+p3m/8eCGPg5Ua0eMGGEcJfbk5s2b+jmCoD9//ryurMQcdxrDiP2BU6Xrn6Pk3YW3pcCHy+TL/qXFVywSvKSZNOj9jTwoNlXWruqqY/efBUQU7BBp06Z9an+Bt4PVGFTr8TmDuCf2A9GsyJQfN26cDBo0yDjqWLA6g94YpGrB1mjOhCDEHaC4d2Hgg8WwFIgvVA+cAdJ5zAqjNekFxD1ADKZpz+FAHsdiNtOihwaCOkaeNWJ/zHuS98shMulCWhm0cIuMq+D76I8cniV1WvWQg8+3krlfz5X6VjQOoh8DA7VgO8E+eRwMAITPHgIfwo/YD4hpVMthJ0RfijMKS2+//bZ88sknOuARM2EIcSect95FngkypyG6MGgHMZXOYvjw4brFsB3EvxHPAFWo7t276z68rcRxQDwDq/OyfXzFP7sh7DFif+vHMmnLKbmdJpe0LJFYHjyMOJwspWRIGUXA+6aTl/4RuRoeJpbow0T+g+khf3KKNXnEX3/9pVsITmJfsIKE/gbENCO619GsXLlShT1w5v2XkLhCce+imEOqevbs6VTPIYbrYJImQJMT8RzgvUcEIjyuVjV2Eptgfp6ja7qNidDd06V1+5ly7NYrUmv4e1I9i+2EJqr2wJnXG1fGFPeOmmDsrUyePFknpWN1BBao9evXO9Sagzky7du31/2xY8dyEjFxS3gVd0HgoUbzJMBAI2fTtm1b3aKaQTwHRJyaWfrI0X+y4ZPYB3M4nLVN0SaYxNmp9iDZHYYR+4tlervC4psspU7dlNvX5fz1KCX6sIty6zmR1C/6RnxPzJYcVEixogAxxRSY6KG4ty9IA0MinLmSiHQv856DAYvw39sbrE4jIQ49FZgrgkALQtwRinsXBGkooEaNGpoYYD3I890oAUtWSeCpJ9biLaEStGmBTB7SU3r2+0BmrdwrIVb2hKH5EpGL8Ajv27fPOEo8AWSa4yb24MEDFfjE/mTIkEG3mHRqLZEj9q9jxP43shwj9iHqffylQM5UkvHsVdm1K1jCwvHdFgneu0EuXkwsr6QvJ/6PbPjPBDF/wHxv5L9Q3NsPDNRD3w/mqsCK+vnnn8vUqVO1L8i0x+D6hAAAewEbLKKBMbkaDb3m6jkh7gjFvQvy/fff6xbRdFaDgR7L+0uDRi2lXev+Mj84ynCdCGEf+EEjKV+jo/QbN1NmTh4mPRq/IZV6BEiwlQLffC/meyOeA6r3mEq6evVqzjRwAOYwq59//lm3MaEj9utECHvt4UwrD/cvkgEdW0vrtj1lwqbrUrRRBUn1ynk5Mqe79J+8QBbMGCYDJ+yVIw/TS77GZazKuTffi/neyH+huLc9WKVGWANmPuDfF5G9Bw4c0EF9Jli9NgU+YpkR7RubB2NrgC2xbNmymhSFohquhYS4MxT3LghiDoHV0ZcQ79PbSPUe8yQoQgD4PJFqHXZ4vgxf9KMkerWkdP/4K9mweKhUyewrv69/X6bsCDW+69mYkX3meyOeAxJbTHsOlsQx2ZbYDwwfA1Y9KFtCZOOICGH/p/FazsrWr5bIkmURX5/NlOnz9sjd4v1kbMs8cutikMwf1FE69posW8+GyavVB8vIejFn3APzvTA16elQ3NsWJNDg9w3WG1jBZs+eLZ9++qnG+T4JBD4ENwb2Yfgeon4nTpxonI07iNtEtb5Xr176GlYgzBLhDAPi7jAK0wXBBQwCC9NGkRjwbCwSPK+FlOm8SrRWnyqryDUfabZ2uwTUejRNL2RlQ6na+CsJb/SVfB9QX/wivjNwcGVpMekPyfHhetnSv3CMAmDv3r1qz4EwYfXeM0FFDJYwjFjHRFxiH7DsnydPHl0tQfb9M7F2xD5SdI7ukaAjv8ufDxNJptdKS5li/o/8+FYAsQS/8bZt27SZkfwXXPewgvn666/L9u3bjaMktqC/4913342MVsYsFzTRIiI2JhAhO2DAgEgvPiw8CHyAtRDWUWtA4zgEPAIikEoHMIUWzbP4ewjxBCjuXQwMI/L19dVmx3v3or+h/4ewIAmYtVbulSgrlo96So/18pi4D9s9XMrXHCvH07aQmXP7SpHEIfJFr9Yy8WhqabHsB1lcL+aR2lgGzZIliw5IQuMT8TyOHj0aWblFlczMwSe254033tAhVgEBAU4XFEhLKl++PD/bMWAOFaxYsWKkKCSxY+vWrSrsT5w4oa/RKBuXqEsETkyZMkWLTiaY4o4HL0zexr0KMwkwrwGN4ngowMMrJnLj52jGveI+i6o90nieNvCPEHeE4t7FuHbtmtokULFH5T5WYLhNy4bScc3j4h5L+6v6vikNZj+ehpKs/kzZtaC7FLai4Q7vxcweRmMt8UzgacXANFSWMcGW2AdYEPr06aOiGgPFnEmLFi30IWPgwIE6bp9EjzlYCQ+99GTHnmHDhsmkSZN0HyIc1XoI8viAlably5erVQeTZK0FlleECWBIo5leRYgnQXHvYsCOA1sOqvexjcp7mrgP3TpKatYeKQcRoJMsp+TzPSFHz+NMNmkVsFXmNvOP0ZZz6dIl8fPz0/Sec+fOGUeJJwJbBprasPw9evRo4yixJeHh4VpdxEPz119/rZYoZ/DDDz9IqVKldB9Ve1TvSfTg59S0aVNt9kSaC7EOrFChWo+qOUDqjT0GQ+3atUuvW6jQnz9/Xu+lmCWBijzuW9myZdPMejxYMBWKeDpsqHUxzCpCWFhY5FCZeBEeKodWfiXnLFmlzLtfyemLx+XIyYuy/cNqkj/VBTn4RaBVkZhYUQCscng+ZnPthx9+qDdmYnvQsAfBA5w5AdP8b2MVgcL+2ZgNtZxQaz1oeoUFDcI+X7582tNjr993/HeQSz937ly1TaFHAtHNsOHgYQzXtSZNmlDYE6+A4t4FMS8+NhkqFH5PLGF/y2XxkdR5c0s6xOL5+EmeXK+KT7J7En7nulgznZ452N5DuXLlItMjmH1vP/r27StFihTRGMp+/foZRx0HHt7MXPHhw4cbR8nTYFqO9cBTX7Nmzcjfq+7du2tVHdcWQoj9obh3QZBcAazNwUYU5t6VAbJgySrZexFTbCxydusyfR0Ymlj8i6eT7D6n5ceJI2XyJwtkwbzJMnzsFvntz8ySIl8eSWdFVh5zsL0LVLmyZs2qg12mTZtmHCW2BgIbwH+MQT6OYs2aNeqxB6iuciptzFDcWwdScJCqBj88ikErVqzQ329CiOOguHdBzEx5CCuruP2rfNG/hXR8e5gs+BEpBKdlz4x+0rF1V5kfLFK43fvS8c3UYjmzUoa93VE6du4n8w9ek+eKNpWR5qTLGDDjL833RjybRIkSPZZ9f+rUKd0ntgX9DabwQaTfF198ofv2BKKrUaNGuo+UkPr16+s+eTaIcAQU99GDvqyWLVtKz549deI1GrVRra9du7bxHYQQR8GGWhcEjUEYrIEK/q+//mocfQao3K8LlF9vPxGdmTCl+JetLhWz+IiEhcjeHXsl5NpNuSmJJHlyfylcoaLkTmN87zNAJGfy5Mm1CfC3337TZXziHSDzfunSpXqDRgWO2AfYF8yhPEjS6dKli+7bGvwMEb2Jfp727dvLxx9/bJwhMYHoRdjU4OtGJjr5F/xeoYcEE2cxvwEPrK1btzbOEkIcDcW9i5I9e3bt+P/222+d7lNcsGCBijy8DzREEe8B1biCBQtqgzca1XjDth8jRozQ3G8AjzLsULaclIkoQnM1BqsEGLlPrGfcuHEaFTp48GD9WZFHc1kg6nGPAPDZQ9hnzpxZXxNCnANtOS5K8+bNdQtB5WzMSYLmeyLeA2JZo9pzzNQkYnsgHKdPn677s2bN0pU7rJrEF/jr4YE2f46YY0BhH3vouX8cFHow9M4U9lh5+vLLLynsCXEBKO5dFFTWAIbLIM7LWWBACLKwM2XKpAM/iPfRoUMHHdyDJXcIfGI/YMdBrw2yuNHn0KpVKylcuLCK/dgMtbt9+7YsXLhQypYtq7nsGEiGyZ0bNmxQnz2JPRT3/wJ7EmYz4HcUv2OIzIXXnhDiGtCW48LgJoyl+bfeekvHdjsaNEVhUiku4Kgo2ssHTFyf4OBgFZngq6++kho1aug+sR9Iz5k6dar2uZggy7t06dKaGY5cesydeO655+TmzZs6ORo9OigGRL1eYPUFOfaI3iRxB1579CjAe//2228bR70LFHrw73Dw4EF9DasXvgghrgXFvQtz9+5dnagH7z38no6uuHXr1k2b+1BF3L59u3GUeCtYdkfj52uvvSY//fSTcZTYGyToYAjPpk2bjCPWUaFCBWncuLG0a9fOOELiA/ogYEHBKgpWs7wNxLaaA6hwX4K3HlV7QojrQXHv4pgjzwEqpo6Krfvoo4+kd+/eur9nzx4dtkMImqpRvUMTnenhJo7h1q1b8t1336nFBkOCLly4oMf++ecfSZYsmfj5+UmOHDmkUKFCKrrSpLEiCotYjZkchRUVRD56C8eOHdPPu1ng6dGjh0yaNEn3CSGuCcW9GzB69GiNXkuQIIF6ZqtWrWqcsQ+ffvppZGXqk08+YeWPRAI/OGxiYMeOHWoRIcQbQP/DypUrZcmSJZFzAjydOXPmqLBHDDL6rlCtr1WrlnGWEOKqsKHWDcBSKBpskU2NxkY02doL+ElNYY+BVRT2JCoYumR6t9FUR4i34E0NtRcvXtR0NKzeQtjjwQYDqSjsCXEPKO7dBETXwQMPMPnPHB1vK27cuKFCHlUak/3790v//v2NV4Q8AnYc2D/27t0bOV2VEE/HW8Q9+jsQcblq1Spt2IYNCXHIGGRICHEPKO7dCCRnmD5nNDch2g7LxPEFS6+5cuWSRYsWSaJEifRiDn8/wEMFK7QkKrCHRc2+P378uO4T4smY4v6FF17QraeBAAcUkNq2bStXr17VqdSo1ntTfwEhngLFvZuByvqWLVu0wfXo0aOahlGiRAlNtcEF2VrOnj2rDwg5c+aUrl27SmhoqFSuXFnzinExR9QhMu4BrDqcyEiighu/Oa2W2ffEG/Dkyv0333yjNkzMRgBYkVuxYoXGrRJC3A821LoxiGRD/vy5c+eMI6IpGSVLltTplhkyZJCXXnpJ0zRgu8H34YEAdgozpxgg1gw+6mbNmhlH/gUXeFPEIQaRQo6YYKhSwYIF9aESD5eo+BHiqZQpU0aTir7//nud+OspDB48WFeFAeYooJiDOQqEEPeF4t4DQIMtRDiqL9bi4+MjNWvW1JhNbJ8F4t8QAweQ3DNgwADdJwRWLqz8pEqVSrPv06ZNa5whxLOAoP/ll1/UquIJ4hdFHqwE44EFsHhDiOdAce9BYOQ8ogqDgoJ0qiysNjiGCZZohkqfPr3acGDpQYUG3mlrwXKt2dA7fvx4nXhJCGjYsKGsX79eV3jmzp1rHCXEs0CP08mTJ+XIkSPaUO7O4Bo+cuRI3cfqG2w4SMIihHgGFPfEaiDcevXqpfu4GWBiIyFoqIVAAFhBgh+fEE8DhRFYGzFADJnv7sivv/6q1XrMqAC4nqP3ihDiWbChllhN586dIycT4gbBKi0Br732WmR6DpKVMI+BEE/D3RtqMZAQEZcQ9lmyZNFENAp7QjwTinsSKzB6fNy4cbqPqg8814TgYQ8Nh7CDMTqVeCLuKu7/+OMP7a1CaAIevNu0aaN9A0hEI4R4JrTlkDgxYcKEyHjMBQsW6GAt4t2gQa9ChQq6v23bNnp4iUeRMmVKuXfvnly/fl0SJ05sHHVtEGf8zjvv6HvG+4edEpNnCSGeDcU9iTNjxozRL7BkyRJp1KiR7hPvBWkbEBCIY925c6dxlBD3J0mSJFr5xrCn2IQROIM7d+7oapq5slq3bl39XL766qv6mhBXB7/D6G+5cOGC3Lx5UyO9kyZNKq+88opky5aNyWwxQHFP4gWq96jiA4wtx02EeDeFChWSY8eOMTaVeAwPHjzQmSGY4H3r1i3jqGuyceNGFfYhISGalAZR//bbbxtnCXFdvv32W9mwYYNukUr1LPz9/XWuT7Vq1aRevXrGUWJCcU/iTdQhKKtWrZLq1avrPvFOcHFu0KCB7iNDO0+ePLpPiLuCSOE0adJIsmTJdHibqzJw4EAdbAjKly+vwj5v3rz6mhBX5eOPP5Z58+ZJcHCwcUTk+eef199dTEn29fXVB1V8DtFDguJR1IdsVPE7dOggPXv2lNSpUxtHvRuKe2IT+vXrJzNnztQP4Nq1a6VSpUrGGeKNYCYCZiOgqrJ69WrjKCHuCaYww9IC4QBx4Wpgai6q9YcPH9bXWFFF0YUQV+aLL76Q999/X4MYAOw2sPfivvH666+rwH8a+F3fsmWLpj79+OOPegzWuWHDhmmfibdDcU9sBtJzEI/5wgsvqMBH5Yh4J2jgK1CggFy+fFlmzZqlVRVC3BX4frNmzaqDAE+fPm0cdQ3Gjh2rFjhQuHBhrdYjuYoQV+X+/fs6Jwe9eqBEiRL6cNq4cWN9HVvQ3zVt2jT5+uuv9TWGdM6YMUNjmr0VRmESm/HRRx9Ju3bt9IOLqaV79uwxzhBvA8kcEB0A0ZiXLl3SfULcEVeMwfzll1+kSpUqkcIeU8ORWEVhT1wZTHkuV66cCnv0sEA3/PDDD3EW9gB/H1aI8ZU9e3bZtWuXCvxvvvnG+A7vg+Ke2BQMSkEsJrxx8F3v37/fOEO8jVatWkmdOnXkxo0bzL4nbo2riXt4lIsWLaoVS6woQNSMHz/eOEuIa4IHUvTkBQUFabUePVnwydsKBHrAroO5Drjv4LW32kIp7onNQe49nsJhzYDA/+mnn4wzxNvA5Fr4JpctW0bvPXFbXEXcnz9/Xpo0aRLpKcZKKQZSwaNMiCsDaxt0we+//64D1FBdz5cvn3HWdiAuE/MdMLQNNGvWTAIDA3Xfm6C4J3Zh8eLFGk/1559/qsD/9ddfjTPEm8ASKQQ+QAY+IgUJcTdcQdzjAblYsWKyZs0aSZUqlWbYY6UUTYSEuDodO3aU3377TcM21q9fb/fP0pQpUyJXBdDzhYcLb4LintgNPD3jCR3VJgh8syOeeBfwAiOPGI2ItOcQd8QU9wgLcDSI/OvcubMKlLCwMC2aHDx4UK0HhLgD6AtB9RwWMjykOgr4+WvVqiUXL16MrOR7CxT3xK4gpqpy5co6UAUC/+zZs8YZ4k2Y1XskGHByLXE3nFW5R4UT1XqshMLehkQQFE3SpUtnfAchrs3PP/8cGa6AXhFHT5adPXu2rnRhxWvp0qXGUc+H4p7YHQh8xGIeP35cBb63LY+RR1Fn5rRa2HMIcSecIe779++vqWMoiFSsWFG99V27djXOEuIemBPsMSUZ6U6OBvG148aN031vajpnzj1xCHfu3JHatWvrsJUiRYpoDj4mPhLvAj979F+MHDlSBg0aZBwlxLVAmgeSPE6cOKFDqxDfh2AACAUs86OXpGDBgjEO2okLu3fv1oZZVDzBqFGjdPIsIe4GkmtKlSolCRIkUHuuM1ecsAIGOxsq+W3btjWOei4U98RhwC+KGyPiMUuWLKkCP0WKFMZZ4g0gdxjxZACVSHukJRASFyCqMTET1yVr5zLAg4++IkzVrF+/vnE07sC+homdAFGXGEgFcUSIO4KHVFhxevTooZZMZ4IGdKRLlS5dWnbs2GEc9Vwo7olDQXoOKvh4ov/f//4n69atk8SJExtniTeAC/38+fO1FwNCihBnggfOqVOnPtYLgso8RDUePjNnziy+vr5afURzKyr5wcHBOvIe1X0T/Bk0jyMVJLYcOXJEJ3QiHhBAFJk+ZULcFXx28KCMgh4q587kn3/+0c/xzZs3dRXO06fXUtwTh4ObIwQ+BlrASwqBlzBhQuMs8XQwXASWhtDQUE0zQBIIIY4Gv3+whn3++ef6Go1+7du31xSaQoUK6bGYgNVgxYoVWhWEQAdYlYTH19pJsTNnzpR+/frpfrZs2TTCzxneZEJsCSbU4/6eO3du66Owwy0Ssm+jbNz5oxy7mlhyFa8s1WuVFv9kxnmxSOjRPRK4aYccup9FKlapIRWL+YmPcTYmWrdurZNxJ06caNPhWa4IG2qJw3n11Vflyy+/lBw5cmg8FppsifcAK5aZnoNoTDZYE0ezceNGbfKGsPfx8dEqOeLy0HBnrbAHGTJkiPTHQzSgGohR+hA106dPN74res6dO6d2HlPY48ECnmAKe+IJ7N27V7cVKlTQbYyEh0nQzEbyetUm0nvYBJk5daT0bV9dyrf/TIJv43yo7J3UTKrVaiAdB4yRycM6SrNG1aXx8I0SgvNWgM8lMN+bJ0NxT5yCv7+/puhkyZJFNm/erDc54j20aNFCPcq3b99m9j1xKPPmzdPfPdMiCIvN4MGD490Y27JlSzl27Fjk9Fg0wcJqEx14EIBNAbZEBAt89tln6k3GgwYhnoC5koXeEWuwHF0kvT/cLLeT55TmI2fK/CnvSsVMSeTyjmkycWuIhG79QNpPiBDyf+eRFh/Ol/kfvSslE16QzVM7yzurg8Vi/D3PwrQGmc3qngzFPXEaOXPmVIGPBArc5Jo3b26cId4AqvdoSET1FCs5hNibuXPnRi7H46ES2dcoMNgSNMEilx7MmjVLevXqpfsAljR48jt16qTeX6xaorG8SZMmxncQ4hlgtg3AfT5mLBK8c6V8dzGB5Oo8Xz4a2l069BwmIxplkZRX/pRTP/8iO1fulKtXXpViPSfJxP4dIs6PkenvlZZsL1yVo0t2WlW9N9+L+d48GYp74lTy5s2rAh9+11WrVkmbNm2MM8TTweqNac9B9r3FYk3thZC48fXXX0cKbXhuzd89e9CqVSu1/qAJFw8UmNCJAgYqhxikkyhRIu03wbROPz8/408R4jlcuXJFt6+88opun42PFO6yQS6eDJa1/UqLr4Spt37Lt4fkgvwjWTL+JQeO3ZLLmdNI8WK5I84/+jP++d+SjK9a5PqfeyT4Ssz3DxSTMNDq77//lmvXrhlHPROKe+J0ChcurAIfneyIokNVi3gHqKKWK1dOB/VwuBWxF6jUmY3bI0aMiPS525Nq1arJypUrdR+eflgPf//9d3nrrbe0Ws9GcuLJ3Lt3T7dJkiTRbYz4+Ipfdn/xC98rwwunlHSFa8jI7y2SrtUkGfx6YnnwMOJ7kqWUDCmjWNd808lL/4hcDQ8Ta2tDZjqfpxeTKO6JS4DmNlgzcCGAHxXT7Ih3YEb+wcLgDfnDxPFg2itsMLC/YICao4C335yKiSo+HmDXr1/v8TF8hGB1Cty/f1+3VpPQV7L/r6JkN15eXPK+zDl43XgVfx48eKBbT0/oo7gnLgNy71HBx0Xh008/1cxo4vmg4QoNjYDNtcTWYDUQghqNq84YpIPGWiTgPHz4UB8wCPEGUqZMqdurV6/qNkZuh0rImTCxJMstbT7ZLifvXZTtY8tLFrkgG1adk4Tod799Xc5fj1JxD7sot54TSf2ir/gms64Z3Xw/5vvzVCjuiUuB2CyzuRJjolFxI54PrBL58+fXsf/29EIT72PSpEm6HTVqlPb2OIMxY8boFg8Xp0+f1n1CPJlMmTLp1qrf99vBsqBVaSlYpJT0XRf66JiPr/hneUUSp7gvCZ57RbJnTyUZz16VXbuCJSwc32CR4L0b5OLFxPJK+nLi/8iI/0xgz4PfHiEe5sqCp0JxT1wOVLlMgY+bIb3Y3oFpz8H4fUwQJCS+oIkWkXywwTjT6odGWjMsAFGchHg6efLk0S2m0cdIMn8pUz23JH8QIl++00z6TF0gC6b2l7aj9sjZhK9J/loVpFrTCpLqlfNyZE536T854vyMYTJwwl458jC95GtcJsqgq6djvhfzvXkyFPfEJalZs6YsX75c9xEt50ifLHEOlSpVki5duug+7TnEFgQEBOjWFZpXzd9tpOUQ4umgjw589913un02PpK70WQZVfc1SXLzR5n+Tkfp+M5MOXD9b8lUaYC8X99fMlfoJ2Nb5pFbF4Nk/qCI870my9azYfJq9cEysl5uq6bU7tq1S7eYIu3pPGexWP4x9glxOeCXNStew4cPZxXfw8FQq4IFC8off/whU6dOlW7duhlnCIkdt27dirThhIaGWhnJ9wjLmb2y8bsQkRwVpXqp/463j+n800AyGKqHa9eulcqVKxtHCfE8kJaTOnVq7TXBNOaMGTMaZ55BeJgEb90oQRduyk1JLslT+UvpSqX/rcqHWyTk6B4JOvK7/PkwkWR6rbSUKeYvvlb2xiLn/uTJk7J9+3Z5/fXXjaOeCSv3xKVBusX8+fN1H3YN5FMTzyVZsmSPZd8jOpCQuLBz507dImo1NsI+bN8CaVO7obRq3VPe/ypELOrv/ZeYzj+L6tWr6/bbb7/VLSGeCiIn69Wrp/uY52AVCX0ld7Xm0rxDV+naIWJbL4qwBwl9xL9QRanfqo10bdM84sHaemG/detWFfaYr+Lpwh5Q3BOXB2PdMZodoHo/bdo03SeeSdOmTTUT/O7du1ypIXFm//79urX+Rm6RkHXDpUb9vrLu7C1JKD6SCAkdkcR0PmbKli2r2x9//FG3hHgyLVq00O2cOXN060w++eQT3UJPeAMU98QtaN++vUyfPl33Bw0aFCn2iWeC6j0qPytWrFBrFiGxJTg4WLeweVlD2L7p0rLhGNlz8Zbcu+kjT47eiem8NRQqVEi3v/76q24J8VQ2b94cWYg7c+aM9s45C9hwVq9erRNqzd4XT4finrgN+FCatpx33nmHqRMeDGLUotpz7ty5o/uEWItp6cIyvDX4Fmsjk2aMlPEB22XD0Bz/uTnGdN4a/Pz8JGnSpDr6Hv0lhHgaaFqtU6eOfmHfzJPHqjtEvjMwV4ARrY15F94AxT1xK3r27BkZmYj9zz77TPeJ54HowooVK8r58+dpzyGxJiwsTLdo6rOKhH5SuvMIGdisiKSLzm4T03krMcXOjRs3dEuIJ3DgwAFp1qyZNoqjau/r66t9crh+N27cWBtse/ToYXy348BK/w8//KDxl3jA8BYo7onbgao9BtIAVPPNuDvieZgPchhotm3bNt0nxBowrAa42ph58/2Eh8eiE5cQF+WXX36RDh066IR50/qCieOnTp3SSvnzzz+vg+QwOGrDhg3y7rvvGn/S/iCMY8KECbrvTFuQM6C4J24JRrqb1Vz48VeuXKn7xLOAR3nYsGG6z+x7EhvQswFczdKFRnFgvj9C3BFMe0UlvmjRopFpOL1791ZRj4njSD4zefnll2Xu3Lm6P2XKFIdU0JcsWSKdOnXSfTxcYPq9N0FxT9wWXCAGDBig+61atZI1a9boPvEsIO4h8n/++WcZPXq0cZSQp3P27NnICvnFixd16wqgWv/nn3/qvpnBT4g7cenSJb3v5s6dOzKmGkPijh8/rlVyCPnoeOutt2ThwoW6P2bMGOnevbvu2wM8QLRu3Vr3sYrgDDuQs6G4J24NxF6fPn10H5n4Gzdu1H3iWZjNtbDpHDp0SPcJQWPq7t27NWqvV69e8uabb2rT6muvvaZ2AXDs2DHdxoxFQrYGSMDCZfLVTzfkYcSRu79skGVLAmTVvtCIszGdjxnzvWTLlk2ee+453SfEHbh586ZW5LNnzy4fffSRHkOsZFBQkL7OnDmzHnsW8OQvXrxY95F498Ybb8jBgwf1tS3AgzMKfab1B+8XX94IJ9QSjwAf5lmzZukNc926dVolIJ4Fei1wQ8Dy6qZNm4yjxBtAxRtiPeoX4iQx+TI6MLQqRYoUcuLECWnXrp18+umnxplnEB4qq5rkkAar/ptik3fgHtk9xl8Cn3V+fGnxNV4/DbwP+JMbNGhg/WAfQpwIPnvwq+MLAh/Ur19f77mw5MSFPXv2aGCC+bCLv6tfv376YB4X/vnnH51ojgZeNNL7+PioHjBz9r0RinviMSA9B/GYL774oo53x2RK4jkgbQGZ5RB08FDGtNR6/fp1uXDhgt6QMAI9SZIkKvrQ2EVcl9OnT0eK96hiPjrwM82bN2/kFxIxsIVIQEWxdOnSkiVLFvUHxwwq86tk7/l7cs848ojEkjJ3RaleylcuPvO8n/gYR54GxAYCAGAbgLghxJWZMWOGivrQ0FB9Xa1aNRXiaJ6NL/fv3//PzBr0z2EFHok71oBBdV9++aUsWrQo0u5Wq1YtGTdunK4weDMU98Sj6Nq1q37Q0cyDCj5u7sRzQOM0ll3xAPfTTz+pcDOBz3r9+vU62h+xbE/zWuN3Ax5+TAutWrWqlCxZ0jhDHMmVK1ceE+/m161bt4zveBxYbaIKeXzlyJHDOBs98AVD2ON3wtkP+6iAIgYT+fZHjhyJ8b0T4izgpYeoNx+K8dmBqLdWdMcGCHRU3VetWmUcEXnppZf03o3POGaeIFYTq/L47Pzxxx86oA5TnlG8McEkajT01q5d2zji3VDcE48Dy95Y8k6VKpVW8IsVK2acIZ5AmzZtdGqtaW1AnwVWbJ606uAGYd4YEiRIoDcGCH6zCmWSP39+rRh169bNOEJsyV9//RUp3KNW43GTjg6srDwp4vGFB7rY8t5778mHH34obdu2jWzmcxZIC0F0Lx4qt27dahwlxHXAqhJEPT6foESJEirqMZDK3qAhF9d1FOXw8GsNuL5Xr15dGjVqpOKe/AvFPfFIUN1FlRc2DAh8a0fQE9cHohA/T4h1iD7zRgQBj4s8lo6xbIymxehAxXjfvn2am49qkTnJFA1hiFc1UxZI7EEMnineza+nNbTi4cu00UT9smWKDN5Pvnz5dB/vA9V/Z4GHyKNHj6rvvnnz5sZRQpwP8ulhFUMVHeAzA1GPBlhngIo8ghMg+E1rJXz1mO4Myx2u7Vh9zZkzp/EnyJNQ3BOPpWnTpvL1119LxowZVeBjiZ54BvXq1Yus1CN6Dc22qIqiSh9bUC2aPn267N27V1/j70b6A6MKnw7i8KIKeLMi/7RM+ehEfNasWY2z9gUrMqjaw+++dOlS46hjwe8XUr3w/9uW6SCExAdMkkWlfteuXfoan0mIeqx+E/eG4p54NOjqh20DFy0IfG9vsnF3YPGALQcPbQCiHgkJaKyML/CZYqIi0hbg5Ycg9PaeDQxciireza8nrU0meJA2xbsp6FEFdOaU2DNnzuh7QVP1559/rg17jgSrB1hpwr8lbGSwkxHiTL777jsV9d98842+TpcunYp6b8yD91Qo7olHg6U8NNjA44olefj54NMj7geWZlFV//7779VutWDBAqlRo4Zx1jYgiQcDWVDRQpwakhi8JVYVS+BRBTy+Tp48aZx9HMRMmiI+6hf6XFwRrMRg8A7eH1ZoHLmcj+z9wMBAtTg42/dPvBsEDcB+Yzav4nMMUY+v559/Xo8Rz4Dinng8iNyCwEdiBnyvqOCjUkHcCyTbmD9DiG57CjQ02EKIJU6cWIU+Gss8BXhYTfEetSIfcS8wvuNf0McQnYi3ZmCNqwFbzldffaXZ3HjYR3KNvUHGPtK7sGKIYVtxsY0REl/wOUel3pytkChRokhRj94X4nlQ3BOvAM2XEPgYnlGkSBEV+GnSpDHOElcH1XRMNsTqC4QZ7B/2xhRmaN6CMHOEGLQl+J03hXvUr8uXLxvf8TgQ7NEJeQh8TwBzEhDlh6bBUqVKqdC358wD+JbRPIsVoC1btnjUAyJxD2BJg6hHmpgJ4iJhZ8TqJ/FcKO6J14ChRhD45s0dAj958uTGWeKqwH7TvXt3eeGFFzTlpnDhwsYZ+wNLzvbt29Wn/dlnnxlHXY+oFXhz/7fffjPOPg6sKdGJeCzRezpYtUAfzuHDh7UPB79b5cuXN87aBqQ5dezYUf3M+J2FBYITs4kjQcM7RD3saCadOnXSSn3U2SDEc6G4J14Fpthhgh0GICFvGgIf1gvimqDKDOEJvz2EGOwyjiRqMyRWDho3bmyccQ6I7XyyuRVfDx48ML7jX7D0/qSAx1eGDBmM7/BOrl27pk3ZZtb88OHDZfTo0bofX1CpHzhwoMatorcHKz9lypQxzhJiXzAADqIeX+Y1oWXLllqpR1M58R4o7onXcf78ea3gQyRVrFhRm2ytbSaCuNqxY4dOx8OfRwMmVgRwIcXyO+IT/f391ReOm3qlSpX0OIkbqDTNmjVLG2mjTjB0JBjB3qtXL41SDQoKMo7alxs3bvxHwOP37erVq8Z3PA6q0E+KeN7Mn82QIUO0uRDgM9u3b1+dcI2HotgCiw/iLpFCAjD0B1VTWh+II8D0Y/wuQ9Tj2gGwQoXrJ3pMiPdBcU+8EozVRgUflVk0aprRik8DVVs0I+3cudM4Yh14aGjYsKFWCvEgQawH02QhugCywdEr4SwwMAWrPZgyasshV4hnjCrezX14ZaMDD49Pinh8JUuWzPgOEhvwoI6qvTnjAM2F+Lyag9Ce1niPCin+DKr/eOg8ffq0Hn/11Vd1JQATcQlxBCg+QNSb8bS4n0HUY2WaeC8U98RrQfQfKvhnz55VoY+Jtk+CxJSJEydG3rzhoUX8Ii6cEHyomKIxF9U+NOzhAnvixAmNHINwMCt5oEKFCjJo0CApV66ccYQ8i/Hjx8vIkSPVCoNBU84EliD4qLEag1jDuIDfM1O8R/2CwH8SrPZAtD85/MmeDaDeDNKX0HT45MM7Ku9o3kY/AhqL0aQM3z5+llHJlSuXNtCiN8RTGpCJa4NrEkS9eW/CfQX2mypVquhr4t1Q3BOvBuPgIfBxw8ZwGTMqDKPq+/XrJ9u2bdPXxYoV0yV7xOnFxmaDCiwaMWEtMVNK3n777Ug7AHk6WE6G+N2wYYNUr17dOOocIMCRlgPvP6w5z5p2DE93VPFuVuQxHCs6cuTI8ZiAxxdSgYjjwc8KQ+8QuYrGe9Pi8CQYyoWVJDzko1LKKilxFAEBAXr/wL0LFC9eXCv1devW1deEAIp74vUcOnRIBT6a4Jo2baqVeUQvohKP5sMxY8aorSY+YLIq/h58AQhXVF5Q8SP/BasqaGSFDQVN0HHBcmavbPwuRB5Pb/cR/7LVpXSW2PdBwGqBBzWsKPTp00d9rlFFvPmFvozo8PPz+4+Ixxcbul0XJN/AHoaHOgzEwyRkVPOxYkeII4F1FJV6PHQCXDsg6ps3b66vCYkKxT0hEfzwww8q8KNW6lq1aiUzZ860aVwmGnG7deumDxQQritWrJDSpUsbZ4kJ7FD4d0IE5eeff24cjQ0WCVneTAo0/1puG0cekUV6b9kr0yr5Ga+tZ8mSJeq3hzUGVXwI+eiAAHxSwOOLzZWEkNiCGQkQ9aZlDA+WEPWwgRHyNCjuCTFAhB0SL8D7778vw4YN031bg2QdjKJHwgYmVsIG4MxmUVcElfHZs2fLpEmT9EYWa8LDZO/QN6TixBDJ22mgtCnwKMM9+SvF5I2qpcU/Dv2nWE14cqUFr58U8ZhGSggh8QH9WhD1mJcAsPKHa2HPnj31NSHPguKekAhwATU9i3EWlLEEy6nLly9XzzWqMhguRB6BVRRUrNavX682qVhjCZGAxiWlxfYs8v7OLTKsmG3G/sNr/ffff8uuXbu0oRoN1oQQYiuQDAZRb0b/opkbjbK4J+H6Q4g1sK2feD3IDkeTKxg8eLBDhD1AYxTiMU+ePCk9evQwjhJg+uyfFkUYI7dD5MffwkTu7pfhxVPKcxkKSo0uETfMo9E3tVqL+X5gzaGwJ4TYCjRzI5Hr9ddfV2GPBDakq+H+gFVlCnsSGyjuideDCyjScpDIMnbsWOOoY0BTLaw5uJhjmiV5BCbCgqRJk+o2tliuhMpvlzCh8UVJky23ZJffZcfcD6R/h5Gy6szjLbaxAX56gGZrQgiJL0hUg9UG1sylS5fqMQzNwwwWRAHbsueLeA+05RCvBpF3iLID8FTnzJlT9x0JRtajOQoDcJCRb+20XE+mcOHCEhwcrHFv8LHHmnCLhB4NkpBwX/HPkk7undoo0/uNlHlBSaTa7OWytFVuicvcYPjpf/vtN62yMTGFENcGn1PEGmMqOcISYKlDOhXCDPD5LVCggNPskFidhP3G7PMCnTp1UguOObyPkLhCcU+8Gvjs4bd/7733ZNSoUcZRx1O+fHn13Y8bN07H4Hs7GPiFCaBoKsOk0PgTJkHj60nDwb+J38AvZMOY0uIbh1Xu1KlTa449IhKxTwhxLTDwbu3atTps7vr168bRp4PIXRR4MOcEYt/eYLoxcuoh7O/fv6/HMD8Foj5OhQxCooHinngthw8fllKlSmklB5Nlnbn8iZtRnTp1tJqEapO3gxhSTAxevHix7scFS5hFxNfnUYXeEiKretWRrvNuSuFpm2RN79hX7iEUUOWDNQcCnxDiGsDGB8E8Z86cyGGBANfT/PnzS5YsWfSzi1VRfC9mF5iTxDGDxKRSpUpqkalcubJxxHZg1QCCHl9m5HK9evW0xwtDEgmxJfTcE68FFR7Qvn17p/sakQ6DqacYJb5161bjqPdiRk7+/PPPuo0dFglZ2Unyp0wsJVt/ILMWLpBZQ7pJrxXH5G66bFKtXLo4WXLM9/Ks6bSEEMcCWyMmOmNAIIQ95obA6gL7HL4w/GnatGm6Ojt06FD54IMP9M/s3r1bLBaLpnJhpgb6e3DtxbUYSWa4FtsKzEuBpQ/vAcIeKwX47yItjcKe2AOKe+K1bNiwQbeNGzfWbVywnA+SwCUTZPjQaRKwI1hQLI4rjRo10i1y770djFQH33//vW5ji8Xyl/wdsf15yTDp0b6j9JixS+4mek3aTZ4pbfPFLRYTFiFQokQJ3RJCnMft27d1VQ9JZxD1VapUkW3btsmePXu0IdXanhhU6z/++GO5dOmSCn+szCHgAKLbbHCNKwhMgNWmX79+ulrwxhtvyJo1a/SBA/uE2AvacohXEhISohVY+KavXLliHI0NFglZPUwatZsmh2/8rUJSEiWRl0v3ka+/+EBKx34Aqt6UEIOWJ08enWDrzWCpHD+b8PBwOXfunGTMmNE4Yy0WCTsWJHuCQuTirQeSOG1GKVy6jOT2i0vN/hFlypTRPgCs+MBCRQhxDgg/gE8dDfdYdUWlvm3btsbZ+IHktP79+2tUMRgyZIhW3GMDKvKw3+D9ATwowH4DGw4hjoDinnglqMxg6RUDkjAoKbZYji6QJpW7ydqLaaRS36HSJLdFghZPkM/2/SUZuqyWHdMqil8cGjaRnY4JtqhEvfTSS8ZR7wQ3b0zxnTBhggwYMMA46hx++uknHVqVLFkyrfAx0YgQ54CeJDxc//7771oMQYSwPaZCw8pjhhtgi7CDmEBVHqL+xx9/1Neo2qNRFtcyQhwJbTnEK8FgEBC3dAKLXDyyU0IePpDsdSfJnLHdpUOnd2XMxIFSLMtNCTuwSy7eNr41lqBqD8z35800a9ZMt3PnztWtM5k9e7ZucZOmsCfEOWCVFdcFCPuaNWtqlLE9hD3o06ePfP7557o/depULTI8DfjnYQtq0qSJCntEWcJnj2mzFPbEGVDcE68E/keQIUMG3caVv+/dFEv4o33Lvdty72HEzj+3I+R/3DDtJ+b782Zw80bePZriZsyYYRx1PKgUmuIeOdSEEOfQuXNnteQgKhcJY/ae2gqxbvruR4wYoZX5qKApF1YbNOEiytjPz08+/PBDndGBabOEOAuKe+KVIGsYpEiRQrexw0fS5S8n/r5pJWTvKGnWfpB8MKybNOu5VM6e9pHkWcuIfxyt3WZqD5rFiKhPFcDzirhSZzB8+HDdIlUpX758uk8IcSywuyBsIH369LJkyRJ57rnnjDP2BZV3JPEA2HOQdmNW5N966y3ZtGmTXrcxTRYrrmjmJcTZUNwTEgd88rWQ8QOrSq7n78rpDRNl2Aez5YDlgYRmyC/V2peRePRtKv/8w1YY0LBhQ62KhYWFOeWmiaV19GfgITC2TXWEENtw9uzZyIdsfCYxzduRIEIT8ZVotkXKDbz+6AfCysHAgQNV1A8aNEgSJUpk/AlCnAvFPfFK0BgJbt68qdvY4yO5282VvXtWy6LxfaV6hrTic+GO5K0ySHqXjUNUjoG5omC+PyIyceJESZkypQ61wtK4o9i8ebMOtAGoGmLJnRDieHANePjwobRs2dJpiTNjx47VLWxBANeGU6dO6WTzuK0AE2I/KO6JV2IKtT/++EO3ccNHfLMXkXThv0qI5Za8kK+JfDiyepwtOeD8+fO6pZD8l8yZM0d63kePHi2TJk3SfXuya9cuXTUAvXv3VlFBCHE8uCbOnz9f9wcPHqxbZ4D+ny5duuh+06ZN9YGD12niqlDcE68Cy6oYIIKx4wDNknHHIiFbx8uQBUFyNmkhaf3BMKmeIX5+HDRigRw5cuiWPALRdx999JHuI4N62LBhum8PYMPB+Hn0PcBX+6yUDEKIfTEbWiGozTQxZ9G9e3fd4h6C6baEuCrMuSceDYZB/fDDDxpPhi8kr0Tl5Zdf1tzyuGA5GiBtanaRr0OTSpF+AbJpZEXxjUd4A95nqVKldJQ6ctXJf5k3b16kVaZu3bqaRY3Kvq2Ar/7999/XfQzFMVcMCCHOoWTJkno9xDwSzCWxmrAQCdy6V0J9ckvFaoX/nTtyO+L4pojjT2hznxwVpXopP4mpPIOkHkRwIl8fDxyEuCIU98RjwOAnU8TjC2L57t27xtlHYDAUbhYlSpSQhQsXauTk999/r9NHY4dFQnZslL1nLOKTIbeUKRtx84hnEy0sJ/CUI27RmdGPrs6GDRuka9eu+vNOnDixplTEd8jV6tWrVdQHBQXpa4h8TKYkhDgPTKfOmTOnptEgpcZaLOcDZVavXjJl8y9iyT9Wtm0bLIWNNibL4VlSqWQP2X3/0WuTvEP3yO4xpcXXeP00kHmPwVStWrXSYgMhrgjFPXFbjhw58lhV/tixY8aZf8GNAULeFPQFCxY0zjyyd0BEY1gJLtjOpkCBAvr/CUKzWrVqxlESHXgog6BHky2A9xW50qikWTuY7OrVq/Lll1/qQx5+j0D+/Pl1EiUi7gghzgWfb4hozLxYt26dcfTZhB0NkOHt+8hnR+9LghduSNICY2X9xn/Ffei6blKm4WwJK/WuDGmcWV7EwReySbFqFaW0FbZKFACKFCmiw7OOHj1qHCXEtaC4J24BohCfrMo/Wcnx8fGJFPGmoIft5mns379fypYtq1UhZKijCuwskJVcvXp1yZQpk5w4ccI4SmICVfwpU6bo6otJ7ty5dSUGmfSw7Pj6+upUWSQRoecCD4H4HcIAGhNE6yFqE82zhBDXAKty48eP1xhMrGzGSGigDKr0pkwwNDcSM//JHiHu15vi3iJBM2rIG70OSLGZ+2RT99wx2nCi44UXXpAHDx5ogSBp0qTGUUJcB4p74pKYAsyszKOi/SQY8R1VyBcrVsw4Yz3wcG7fvl0tGfZs0owJNHBu3bpVb2DxtZh4I/DAYlT8ihUr/mPFehYYGd+oUSOm4RDigrRr106WL1+u/vY2bdoYR58FQg5my+LDmaRsll0y6J3p8ke2KOI+PFQ2di4tNRaeefTtiTNJ8cr1pE2X3tKhmr/VQj9XrlwaiYkqPooJhLgaFPfE6UCMRbXXYP/KlSvG2Ueg8hq1Ko+vDBkyGGfjzpYtW3RIEioxuFhnyZLFOOM4kAaBpee0adPqMBSsQJC40bhxYx1L37x5c12RQdQpZhkgIztJkiRq38mWLZvaszCIhvMECHFdkJKFeROYTBtbq2Lo1j5Su/0T4j4sSCbX+5/0+/auJEmfXTInsUjohfMiactI74VfyYgK1kVbYsUXK38oDOE6QoirQXH/DFBJxXI/OvWRsoJUFQhRCE0s9UNc4gkeFePy5cvrPokZ/FtGrcoj0eZJ8G8btSqPLf7d7QEqQl988YUOR0EMoiOBdxz5yfjdQtRj586djTMkLsBeg6VyRIpiZYcQ4r5A0O/YsUNFdMWKFY2j1hGtuI8g7EyQBIeK+Gbwl3SWQ7LsgyEya+UReaHuSvlmUfV/U3WewZtvvimBgYFqp0R6DiGuBsX9E8CHjSVANPLEdnopmmxQMUTayYsvapuO1wNf4pNVeQjaJ8EDUtTKvCOFGXzYxYsXV1EIj6cjp6DCFoSqFLYYZ07iDh7C8TuE3x1zXgAhxH0xK/forUFPUmx4mrh/krAdo6RG15FyJt2zvy8q//vf/7TwB4Ef+6Q1QuwPh1gZ/Pzzz9KsWTNdbluwYIEKewjOgQMHquj65Zdf5Nq1a3L//n25d++eLvfjw/3JJ5/ooJtUqVJpBbpfv35q7cC4em8E0WVIIEESTbly5dQageQRxApi8AeE/SuvvCK1atVSnztsMWiWxRIn/s2aNGni8Ipr+vTp5eOPP9Z9iPtZs2bpvr1p3769CvuMGTPKzJkzjaMkrphNtVwmJ8QzSJ06tW7//PNP3dqE22FiCTf2xSIXz/8mt26IJHopg9VzShDDC3DfJ8QVYeU+gg8++CBycA281xiSgwE2SNuIDaj2z507V7Zt26avCxUqpCOq8cDgqUStyuPr7Nmzxpl/gb85alUe8ZSuCGIx8VAC8HPDg5q9aN26tSxZskT99VjaLV26tHGGxBU8ZONBHA9qeHAihLg3CBgYO3ashh2Y9+iYCDu6UTbuvygXg1fJwoCNcjVFfenRo7r4Zygir6c/JAPqdZTVr3aUce1Lie/tA/LpxOWy/2YSqfHR97K8fcxNtf/8848kSpRI/v77b7l+/bpTU9YIeRpeLe5RiYcI+Oabb/Q1RksjcguV5fiAPF4MwTl8+LC+RkXaHFvtzqDqHtVegy1WMqKCSoYp4k1Bj8FR7gLy7gcPHqz78L+jip8wYTzGzj4BcpG7deumKxVo5sQDIT2btgErPvgdhT0HU34JIe4NHtbx0A5LDqw5MWORkIXVJGv7b43XUSg+Vn6YkFzGtOkh6343jkkiSZz8JSncaYksHRnxAGCFJefAgQNq40SRCiv+hLgiXivuQ0JCNAIPYgu2CIyZj62nLyZQ+TXtOYg3tCqn14WAzcgU8/g6deqUceZf8uTJ81hV3toBQq4MKuromwC4gI8ZM0Z/V+IL8prNBwf8u8H+hWZaEn/gsce/JRpq0bBNCHF/zp8/r8OikCV/+/Zt4+izMSv394zXJonTFJHq1QqLz5Vg2bM3SEKu3ZSESTJJzsJlpHAuX6tjMCdNmqQrvAhimDNnjnGUENfCK8U9BhahCx+CAI0xyMeGKLAH8+fPjxSKEHaObNaMDYieNEW8WZW/c+eOcfYRqMA/WZX3VM8h8ovfffdd2bNnj75G/0DXrl11AmpsgDfzs88+0xWAM2ceZSvD8jVt2jRGXtoQfM569OihUZiLFy82jhJC3B00rKLQhJ4tNNg6mzfeeEO+++47LQLZouhDiD3wSnGPwTU7d+7U+Eo0NNrbM4chHEjRAWicxJh8Z4OhUKaYx1d06SI5cuR4rCqPHgJvA6Icnk8k6YCUKVNqsg0u8Pj3yJo1a2TTFzyYeHDEhFks3SLCDX56E/xbDho0KNZ5zSRmzGE306dPly5duhhHCSHuDirl8Nw3bNhQbYzOBEUfpOJhJQHXenjvCXFFvE7cwx6DPHF4cuF7TpMmjXHGvqDJz/Td792716F2jBs3bkSKeLMqj4SaqKCK/GRVPr69B54CGqznzZsnL7/8crSpDc8995xe5J/sPzCpWbOmLuEiIYjYB3ye0cyNKNv8+fMbRwkh7g5EtDlcEH1sCGhwFijMwU6Jvin0ZxHiqniVuMcgDFRdAZbVYMlxJLggwNsPiweye+0FJq1GTbGJrukHF8uoQh4NQuS/4MEIlq3w8HCtxqO5FtnG+Hf99ddfNfrTfFBKkCCBTplFNR8CEwk4lSpVctgDpLcCjz16PfBv//vvkZ1yhBAPoU+fPnrvRFQybLTOAIUD3CsB7qmumvpGCPAqcY9UElTN4XtHnrmjifi31im2qDDiQgXvdXzBxFxTxJuC3szgNcFkV1yUoop5TIAlMWOm58BKs3r1auPo4yAaDcO6EKNKHA889kg2qlu3rtNu/IQQ+4G5Mggh+Ouvv/QzDpHvaDCvBQXCdOnSydKlSzlPg7g0XiPuV61apb53VKyRlOMsFi5cqPGbEPlmVGZsOH369GNV+YMHDxpn/gWV5qhCHlsIfBJ7ChQooB76FStWSO3atY2jxJWAxx5Ny5hNAAsVIcTzMOeQYCUU9z5HDjtEQRBpd7BfopADevfurTNybBmVTIit8Bpxj5hL2CnQcNerVy/jqHPAcCxMvEUDYL169Yyj/wUXEVPE4wui/sKFC8bZf8Ek3ahi3tETXj2VNWvWaIUIfm5kpxPXBJ8nxLRiQm3RokWNo4QQTwI2SKy+wyqJBB1U0R2ROGYW5ACKhEhQQ5MvgAUTUcn169fX14S4Cl4h7nHjhwDAhQCDq5w9UW7KlCkas/ikjQB+4ahVeXw9fPjQOPsINHU+WZVnpKJ9wM8HA86QTw/PJ3E98JlBqlOKFCnk0qVLxlFCiCeBwZAdOnSQmzdvSpIkSdSOin4mWCWRXGMvYPlDGAIYN26c9O3bV/dxn0aCD3r3QLNmzVTk2ytSm5DY4hXiHuk4SMlp2bKlZtNaj0VCDwRKYLBF/EpXl4rZo4hoS5iEHA6UjZv3yPV0FaVG5YpSOIt1Ihv+QXjeYZVBzCKsNbhYwIv/JEgGiCrm2cTjGBAViiZjLMNikArEI3E98HCM3hWszKGqRgjxLDATBBHCACupQ4cO1Uo5inZYqVu0aJEW72zNhAkTIv+72EbXpwdtAZGPpDQ8ZMCmg3kohDibBMbWo0GmPUC+vdWEh0nw8v7SoFFLade6v8wPjhIdeWWvTGuST3KWbSw9Rk6W4V1qS4kIEd56SXDE40DMmJ545KIPHDhQ/dwQ9shQx3t87733ZP369doYC9EPryEeTCjsHQeWYgHy0ynsXRdYcQCb2wjxPGChNQX2kCFDtLcG90HcH2FHRWEMAv+TTz7R77EF6Gtr0KBB5H931KhRTw3gwPuDZRPfj6GPWOFFoQF5+IQ4E68Q95huB+DTswpLqARObyPVe8yToKsiPlEHU4dHnJvSXYav+0MS5mktYz6eLzOH15OsCX6Xzwf3lEVHrZH3ojGJwLww4SJ18eJF9XnjIobOfEyEJY4HF+lPP/1U902vJXFNKO4J8TyQbY/Y6rlz5+prTKBG0csEwRgYEtiqVSutmr/99tsaMQ3RH1cwpX348OFq88MqIIptSMVBAe5ZoMdt2bJluoKAFXn09uH+jocCQpyFx4t7ZJBDNCdLlkybX2LGIsFLukuDfmvlzLW/5F6ilHLTOKPcDpHvvr8tt9MVl3fmTJGh3TpI9yEfyrg6r0nqP36XbcEXjW98Noj1AsjnRnUYW+IaoGqP2FJ4Or1xKq+7AI89muzQQ1OqVCnjKCHEnUHDKqbHo2EW92yIeKxcPwkskxguiEJMpkyZZNeuXTooEAMiYak5evSo8Z1PB979tWvXqrUP/WzwzaPPDcl6KLhhKq61NG3aVPPvMc8GwKOP1QX0bRHiaDxe3KMCAKzPdfeR3I2GyawxI2X+lu0ys8xTfPQPLHLjllGlD7fI9dsW+VseRuzj8SBmMmbMqFs8eBDXwqza46GLuC6s2hPiWaAnrmLFinLmzBldvf72228jV7mfBoT4sWPH1O8OkY+IaVhqMEgQmfSVK1fWORg4Br8+mmIhxIsUKaI++Tp16qjdB/NKEHe8ZcsWvQekT5/e+C9YD5p9MRtl06ZNuiqPBwwEM2A6/fXr143vIsT+eLy4v3Xrlm6TJ0+uW6vwLSzNh46QDqXTic+T8fDJ/KV48VSS6eYJCejaQjqN+ED6dGgj4w7+LpczvCxFc6SMauJ5KqaP23x/xDXYsGGDVoOzZcvGeDMXh+KeEM8BNpZOnTrpPmZXwGKDaro1YDo4EujMmSSo9EOco7i3detWrfCjmo8ACzTofvHFF5G+eDw8wFOPEAX82TfeeEOPxwdEduL6ZHr1FyxYoDNTkL5DiCPwCs+9TUnoJxX7jJXOpVPKg6s/yOLRw2T6ij/k+Zs+krNoK6mby9f4RuKORG2kJa4NxT0h7g/mubRu3VptLODDDz/UeTRxBdV3ePTRGIuK/tdffy0zZ85Uyw0eIPD3wx+PoA1U02H7QVUfXntbg78X9h5MOEdABlYQYPU5fvy48R2E2AePj8IMDg5WD17u3Lm1IhsrbgfLgpYNpeMakWZrt0tALT/jRAS3QyRoR6BsXD1Tpn4TIvcTFpahK1bLwFLWiXv48PCBx9JjfJqAiO0wf1eee+45jb9MnTq1cYa4GrgpY8kdcbIYasMpkYS4HxC5CC2AAMZqNircNWvWNM56FrD6IDYTs3bA+++/rxN3CbEHHl+59/N7JMgh1mxKMv+IB4aUEnrspty9/4qUHzBFelsp7IH5fiBQiGsQtWpPYe/aRK3aU9gT4n5s3LhRG2ch7OF/h7/eU4U9wEMMGm7NoVhI5oEFCI3AhNgajxf3iLN65ZVX1NseEhJiHI0BS6jsXRkgC5askr0Xw3FAzm5dpq8DzxjtsmFBsmz4eNn0003JWKGvTGhb2Cqvvckvv/yiW3ssBZLY89dff9GS40bQkhM39u3bJ5MnT1YbBP7tcP3B3A00IqIBEauJaDgMCAiQCxcuGH+KENsCmwx6mrACB5sKrDFYXfd00qRJI3PmzJGvvvpKcuXKpVPo0fCLCj7uQYTYCq+YUFuvXj3tXkcWLTrrY+RKoPQp9qZM/8/A2LTSbOPPElBJJHBUA6kzdY8kerWJTF2zSNrkio20f5S5v3fvXh2rjchF4lxmz56tA0jQCIXfFeLaoOKFGyMsbbC2kacD3zE8xitXrtTp2LEB2eG4ZprVRkLiCx4ezaFTyJD35jx4ZPejBwBkzpxZE39iE79JyNPwCnGPaKrBgwfrDQo3uRhB5X5doPx6+55xwCBhSvEvW10q+gTLxh3BEia+4l+8jJTOHrsmWsRfopMfHf7w3/n4xO7BgNgeTAzGkinSDBo3bmwcJa7I7du3tQIGUPlDzj35L2goRJMi4gVNMN3zzTfflOLFi2vlENchxAFiWjauRYggxOcAKyN4yA0Px8qlaGUfaSRIMSEkLqChtEOHDho1CVDB5kOjyP79+9WLb07Sx/0HIt+MyyYkLniFuEfTTsGCBfUmhhvYCy+8YJxxDkgCQJUYAzdQTSPOZfPmzZp1jMoJUwxcH4gDJGJgcBV8uuS/IO4PBQ1kdwNEDGJQj9VTuiO4d++e2nMQI/jDDz/osf/9738yceJEbTwnxFrw+wNhf+rUKb3OonEWv0vkX2BVgsjHAEUULJDug3x8QuKCV0Rhvvbaa7q8fOfOHY3IcjbmkKQmTZroljgXeu3dC/rtnw6EQYsWLTSCD8Ie3vqTJ0/qGP/YCHsAgQFBBp8+LI3Zs2eX3bt3ay64VSughESAB0Q0zkLYw/aIB3IK+//So0cPXTVr1KiRPlhjpaxq1apy4MAB4zsIsR6vybnHTQrAouNMsESODzBulPTWOR8IH+QgA4p794DiPnowsAfNeWjWS5UqlQ7qweRNXGviC3z3iBLu2rWrvsYWQ4EIeRaoPiMlBg+aHTt2VKsXE+KeDuxv0Aj4wr75IDRixAjjOwixDq8R9/CxFStWTKsH8LM5A/haR48erfuw5RDnY1btUeFEqhJxbe7fv09xHw3I+kf6CJqMESuIZn1b944kSpRIGyFh+QEQHGYzICFRefjwoRZLIO4BJsPCdkKsA9V7FAFRzQd4kIYVDvGhhFiD14h7gFxZAF+b6SF1JEgJwMMFlsdRxSDOBQ9btOS4FxD2qAJCwGLoDXkEGhMPHTqkjeHoIUHjrL3o3bt3pL0RaR+w7BBignscbDjLly+XZMmS6QrSO++8Y5wl1oKgjUmTJunnGQ3wGLKIB3isml29etX4LkKix6vEfZUqVaRbt266jwazmzdv6r4jwM1wxowZuj9+/HjdEucCYY+0lbJly6qPmLg+e/bs0S2r9v8CgY2J11jGR4O+mSRkT2BzhPAAuKYibpMQCFEIe6wgIcQCthKEFZC4g37B7777LnLVH/0uBQoUiCxMERIdXiXuATz3EHJHjhzRpS8sH9qbVatW6cMEmDJlilbXiPNh1d79oCXncdDgalpjUECAwHcUaPjDigGsUsgrJ94NLFsQ8leuXNHZMhhMlS9fPuMsiS8DBgyQw4cPS40aNbRyj4dqVPJR0SfkSbxO3AM0mWXLlk0j9dCAhouRvUBjTIMGDXQfS5Nvv/227hPnsn37dh17jumcVg02Iy4Bxf3jvP/++7qFuHbGMDz479Grgort559/bhwl3ka/fv3Udmruw5KTJEkSfU1sB2ZToGEeMwKwQgcPPrz4bG4nT+KV4h7VLXxAMHodIg8e+MDAQOOs7YC3H42aAA20aCoirgGr9u4HhD1GtKMamDZtWuOo94Lp1hh8g0FU5pK9o/H19ZWRI0fqvrOTyIjjwdwYVOnNZtmPP/44somW2A+smKHhFklEAM3tKHhw7gcx8UpxD/AEjMo9cncRh4ipjag4IHUivmzdulWtP2YqD7b02bsOISEh8uWXX+o+xb37QL/945hNraiYOnMwHxr8ELf5008/yYYNG4yjxNNB/jrun4i3zJAhg67emGKT2B/E3eJhavXq1ZI3b15diUYuPhwCyMkn3o3XinuAvF1cmPr376+vJ0+erFV9VNx/++03PRYbUEnD1FlYfTD4BQ8Q69evV28qcR3Mqj3sOLDlEPeAlpx/OXPmjIqp559/PrKfx5mY6V+05ngHSMBB4ywmer/xxhtaMUbjJ3E81apVU2GPwXUAgh8NtytWrNDXxDt5zmKxPJpP7uUgGnPcuHGaOmGCFBVU9NEAC6GO5e8XX3xRzyFlBTdYLI2hqQ0PCX/88Yeew2RHrAIMHTpUXxPXImPGjHL58mVdYcHPmLgHsOLcunVLH7y9/aFs1qxZWjRo2rSp+pvjjkVCDwRKYLBF/EpXl4rZfYzjsQPXQn9/f732warx3HPPGWeIp4H75KhRo3QfK59opCWuAUQ+ipNoZgYYlAnnQObMmfU18R4o7p9g165dGjWFSLkHDx4YR/8lYcKEmo+OrO0nyZ07t1aDUUmDF5W4HvjZwkYA25R5ASSuz/79+/VB7LXXXlP7h7eDAVVr167VVai2bdsaR2NJeJgErxwuHYcskwNnUkqDtd9LQC0/42TsKVq0qGbtY0WBVVzPBCs0S5cu1X00c5ur3sS1wAMXiot3797VgiT6IHr27GmcJd6AV9tyogNLjJ9++qlWdrGshYEtuFHBUwhfa3h4uAr75MmTS548eTQJB5UMTIQMCgrSix2FvevCRlr3xLTkoPmdPKrQgThblCyhEji9jVTvMU+Cror4RPwvvpizIiDwiWeBPqWKFSuqsMfqTEBAAIW9C4OYTLgKsLKHEAL8rGAXxvwB4h2wch9LIO4TJEigX8S9wKoMLnCI7jt79qxxlLgDZqUaTaQtW7Y0jnonaPrH7zCiBu/cuWMcjQ0WCZ7XQsp0XiVheJkqq8g1H2m2dnu8KvezZ89WUUGrhmexbds2HVp26dIlbdxE8QsDqoh7gGRAWHXwgAYg9M0IXeK5UKHGEthyKOzdE9yUAKv27gebaf/l4sWLukXvSNzwkdyNhsmsMSNl/pbtMrNM/Kv2wBygdeHCBd0S92fu3LlSs2ZNFfa1a9fWxlkKe/cC7gJYGXv16qWvJ06cqD9DhH0Qz4UqlXgFv//+e2SSB8W9e4EbEyYyomETX94OmopBihQpdBsnfAtL86EjpEPpdOLzvHEsnpjv5+bNm7ol7g0Go5mCEHGrsKm+9NJL+pq4F7AUY5I1QiRKliypKUdotu3cubNakInnQXFPvALTaw97B5MD3AtW7R/HbOZ3tUQa8/1EFzZA3Ac8nDVq1EimT5+ur2fMmKF9ZcT9QSgBBt+Zg8YWL16ssZkLFizQ18RzoLgnXgEbad0Xc3gVm2kfkTRpUt2aFXxXwXw/yZIl0y1xPxAKgfx6zGzBHJiNGze6xBwFYlsQ1Y2GW1itEOvdvXt3qVu3rhw9etT4DuLuUNwTjwcJD/ApFytWTCcqEveClfvH8fN71PTqat728+fP69Z8f8S9QOMlhP2vv/6qnzVEBSMhh3gmOXPmVKvVvHnztEEfM35wj+QqjWdAcU88HrNqz9Ho7kdwcLA+mGFoFTLuiUjq1KklTZo0EhYWpr0kccISKntXBsiCJatk78VwHJCzW5fp68AzlkffE0vwswLZs2fXLXEf4Mdu0aKFxia2bt1atm/fLlmyZDHOEk+mVatW2tdkTpnGgDLE2gYGBupr4p5Q3BOPBpYOVH4hiGjJcT9YtY+ewoUL6xbzNeLE7V/li/4tpOPbw2TBjyciDpyWPTP6ScfWXWV+sAZkxhpM+QbmeyPuAYb6vffee7o/cuRITcgh3gVm88ycOVPWrFkj+fPnV3tW9erVpU+fPnGM2yXOhuKeeDRRvfYcie9+mOKefvvHwbA9sGXLFt3GmmR5pMnEZTL/0/mPfy2eLR1zx34I35UrV2T37t26/7///U+3xLU5d+6cVKpUSad2I01lyZIlMmjQIOMs8UaqVKmi08CHDBmirzG7Ag23y5cv19fEfeAQK+KxwM5hRif+8ssvki1bNt0n7gOsOBg4hhsOKkrkEUeOHJHixYtLypQp5dq1a8ZR54GhVW+//bZUq1ZNVq9ebRwlrgr89BhMhb6NXLly6QyQIkWKGGcJETl8+LAOv8IQM1C/fn1N2cmaNau+Jq4NK/fEYzGr9rgoUdi7H7/99psK+7Rp01LYPwH+PeCLRdIFpvY6G3NAHKJmiWuD2EM8hEHY16hRQwdTUdiTJylUqJAOukIkKuYbrFq1Sqv4ZkQqcW0o7onHwvhL94Z++2djNohPmzZNt84CiRsHDhzQCbXNmjUzjhJXBHYLxB6Cnj17akIO/NaEPI0uXbpow23z5s0lPDxch5u9+eabsm/fPuM7iCtCcU88EkyjRZIIqg/wlRL3g377Z4OUC9iWYDmbPHmycdTxjB49WrdoviOuCZoimzZtKlOmTNHXeCCcOHGi7hMSE+nTp9fVOXjvsQqOazNiU/GwyKF1rgnFPfFIGH/p/pjDq1i5jx4sj586dUr3+/fvr0NpHA2qeHi4KFq0qHruieuB3wsIsa+//lotbhhQhYQcQmJLvXr1tIpvPsjjYRFWHaTsENeCDbXE4/jxxx81TSRFihQ6WCdRokTGGeIuYNUlR44c+jO8dOmScZQANBcPHTpUdu3apa9RSUN/QokSJTSxxlG/7wEBAZqNDrZu3aqj7YlrAUGPxllU7kuVKqV+e/YfEVuA4guuQ2Ycb8uWLeWDDz7QgViOAP1YuDfcvn1bk/DQF4CpypiJQli5Jx5IVK89hb17Qr999CCHHCIawh5JUFgmR6oF7Gd4qHVUQyumWZrCfuzYsRT2LgisWrDiQNjjZ4XGWQp7Yitgl0TqEibaPv/88zoJHo3+mHhrDzBHA9c/TE1GnwgsiSjiIY8fDeKI4MXvNx4ucGzChAly9OhR4097H6zcE4/i8uXLkjFjRt3H8iGnmronaPbDTQKVoHfffdc46r0gzx7+VvNmhX8f/NsgnxwcO3ZMb3CIf61du7b2nCROnFjP2RqkZjRs2FC9tt26dZOpU6caZ4irgKZZVOnB8OHDtcJKiL2APRCxmVgpAuhzw/UJlp34MmfOHP1dftJ2mCFDBq3So2KPa9GNGzd0xffJlV4UiDp16qQPut4ExT3xKDBGHdMWIXCQ4kHcE0Tz/frrr1oZQuSjt4IlZ4h6c2oovO24acJD/SSHDh2SRo0ayR9//KGVfNwUYdWxJePHj5fBgwfrfufOneWjjz7SffJ0IHxgXcBsgtOnT2sB4t69e5IwYUKdU4CUody5c+vcgvj+ruNnDxsOqvSopkIUeZuoIc5j2bJlKvJRZADYx1dcwKokcvVhOQQQ8w0aNJDKlSvr5wSfnegIDQ3VlV+sLq5cuVJFPyhWrJg+6GJQlzdAcU88CtwkQ0JCdJAOKpnE/UDlJXPmzFp5Ro67t4LqO4Q98sgBHlrx+llASKKJHBYdMGLECP1zCRLEz4GJ2DvcGM2BNqgE4zWJHvzMFi9eLF9++WWsrAEQLGhaROxgbCf9wqoFYW/2qyDdBA8MhDiSmzdvqqA3CxIFCxbUgsRbb72lr2MCfx4rk1988YW+RoECDbxxidl9+PChvg80/p48eVKPYVXLmelijoLinngMuJGiqSdfvnyau03cE9g+IG5wM8AQFW/j3LlzKp5RdQL4d4CvPTZL3O+88458/PHHuo+la9wsIfqRlhIbdu7cqTdHNM8CWN4QoVi3bl19TR4HVUOsHpr/9iB16tS60oLKYc6cObXpL0mSJPLgwQO5evWqVvNhIUQzNJKHTOAthiUNmeIxsWjRosgEnKpVq2rFHv9dQpwFCgG4juF3G2ClDyIfNpqngf6hNm3ayPHjxyVp0qR6rYH1zxZgFcAsSKBHCA/f+Cx6KhT3xGPAtMXt27frU7k5qIW4HxA0s2bN0qqzaQHxFj755BOtzsO2AQEIUR/X2MLAwED98xCNJviMQCyiGpYrV67HBCCqXFj1grcVf2bTpk0SHBxsnBXp27ev3hzxvsh/gQ0Kv693797V12hubt26tf6bWwuq/LA2oN8Ewh8gGAAPDE8TRfiZmJn1iCM1s+wJcQUg6N9//33d9/Pz09dmM35UkL4D2w1Wa8uVK6eTt7Nnz26ctQ34b3Ts2FGva1jlRyEJwQSeCMU98QjgN0b3Pp72sSxNAeK+ILIPFRw0kSINwRvA/19UufBwCiAMcRM0m8Pjw8aNGzVBCvnmT+Lj46Ofmb///lvCwsKMo/8CnytWUVB1wz75L6jA498HHmEAgQJbAvoe4sr9+/c1hQTpIAApIFhBiZoeFXHvVhsOpswCFjWIq4KCAT4TuKaDOnXq6PXNFO9YsYKXHg+0sN+YK4X2AP8NBAKgLwXpPnhPT/PvuzMU98QjMNNVevToIZMmTTKOEncDVRsslaIZEI1QaDr0dKJWtiCg8bpJkyb62pagkXPz5s3abIalcjSqmc1mJniYQEUfXm1YSbzl4SquoD8EDatomEVlfebMmVqttxUQPbi2obEcQPTUr19fj0PY46EwVapU6q+HHYcQVwb3aIh8XHfQB4RrHe7Z6C/BNQlFDdNrb0+wuoaHCVwLEZuJCr6nQXFP3B4IQogiVB8PHjwoefPmNc4QdwMee1RVICrNKo+nAsEGC05QUJC+7tKli9poUEl3FMimxjI1mjjNyjOxDlx3atasqdccNA3CTmOvaw/sNrBsgX79+mkVH42HeAiDvx5efkLcAfSlQODj2gOQS4+H5JIlS6ptJr7N/9aCFX6k7iBhCitkgwYNMs54BhxiRdweWA4g7PEETmHv3njD8Kq//vpL+wqQ5gRhj6VhWGamT5/uUGEPzCFvZl4+sR5U6CHs0b+A5kF7XnvQoNu/f3/dx8okhD1WDGAtoLAn7gR89/DTo0KfPn36yFz62bNnO0zYA6xSmg/MEPeIXvYkKO6J2xN1Ii1xbzxd3MMfjSovGoYBGjD379+vQ1+cAZpogSNvqp4Afm5bt27VZjz8TNOkSWOcsR9oqsUwHoDUI1gcYF8jxB2B797sKYI9Jz49KnGlVq1a2i8DMMPDk+AVnbg1mIiH/Fr4hPFBJe4LxuSb+exojvYkMNQFUZRIiThz5oymQSCRBolAzgSTHcFzzz2nWxIzaHo2p/LC6+7IRmPYcfDZQP+Ep9kIiHexdu1a+eGHHyRLliwxzu+wJ2Y8JoZemrGdngDFPXFrWLX3HMyqPdJyPCntCEvQqNajGRI2GFRg0diK3HNnw8p97Bk1apRu8WAW3aRgezNt2jTdYvUHqz6EuCOYzQDQUOtM8HBuvofPPvtMt54Ar+jEbUG8FkTSiy++SHHvAXiaJQceTgx7wo0DHmk0raIy1KtXL+M7nA8r97EDU4OxuoQIPzOm0tGgiRZDygAz7Yk7gqZaRPQCV7h3Y3AWwCBMT4HinrgtUav2yZMn133ivniSuEd1vkiRIvLNN99oGgSq90ijyZo1q/EdrgEr97EDthiAhmhnMnDgQP2ZrV692uMaAYnnYyahwUqLKFeruB0qe1cvkMkDekrP4ZMlYGuwhIUb56JgObNXVi0JkFX7QsViHIsJrKKiIf7PP/98bOifO8MrOnFLbt++TUuOB4GhPaa4d2e/PW4MiPF877339DV89sgib9mypb52NVi5tx78HBHVh6m+cZ0abCtefvllzbkHWE0gxJ0wr/WYlm0Vt4Ml4J03pXLzrtJv4kyZOaaftKtXThpOCnpM4IftWyBtajeUVq17yvtfhYglGvH/NCpWrKhb8725OxT3xC1BIxsmNGIQBfzMxL2BaILQRLXb19fXOOo+oAKOBJW33npLbRto8EaKCiIMXXn6ISv31oMZDKBRo0a6jRWhQbJqyQJZsDC6rwDZeCDU+EbrQRQmQGMiIe4ELLUAFrOYsUjI6pHy3oqTkijdmzLwo/kyc3hDyen3j3w/f5AsOYX6fMT3rBsuNer3lXVnb0lC8ZFEsQySMt+L+d7cHV7RiVvCqr1n4c6WHGTU4wHTTFDBkCFUeWvUqKGvXRlW7q3HnBKLeRqxxRL6jYxs3VE6to/uq4V8sP+61RYCE1QasYpw7NgxCQkJMY4S4vpgOjZAESRGLBdl7+ot8tudDFJ/1iIZ37ODdB8wWvrkflksf5yX4xctErZvurRsOEb2XLwl9276SFziGF577TXdnj59WrfuDsU9cTtQQQsODtamNjQpEvfHHcX9lStXdKosKrmIY4WdCAJwzJgxxne4PqzcW48Z01q2bFndxgafLHVl2mfz5KOZH/379V4r8dezuaR0rnTio/uxAxM2waFDh3RLiKuDFXcEDPj4+Fjnt/fxl+afBsvp4D0ys5Kfeu+D9wbK2v2/iiRKLfnS+ohvsTYyacZIGR+wXTYMzREnYZsuXTrdwnfvCfCKTtwOVu09D3cT94hMQ7XejE7DEJbAwMBIseUusHJvHXh4e/DggQ6tipNtzDe3VGzdUXp272l8dZL/pb4klsRJ5dWa/aRD8bhZ0TDdGKB6T4g7cO/ePd3GKu7Y10/8s0cI+6OzpMJL6SRP5R6y9lIiqTR6ujTNFfFYnNBPSnceIQObFZF0cZzrZk4HN9+fu0NxT9wKJENs2LBBJzNS3HsG8Nv/9ddfki9fPp286cpA5KFSj4r91atX1XqDeEtnp6fEFVburePChQu6zZQpk27ji+V8oMyd86NcSZpdmvaqIbmTGSdiSebMmXX7xx9/6JYQV8ecqhweHotuV5Nk6aRojTzy6OPyQLZ+OEE2n4mtoS16zPfjKVOfeUUnTuP48eMyZ84cHamOpW5UxbBMlyJFCl0iwzjqBg0ayPvvv69VURC1am91hBZxadylag9PPar18NijSfaTTz7RplnTq+mOsHJvHTdu3NCtbZqjwyR4xXj5+uQDSf96T+lQ2s84HnvM92O+P0JcHcRWo5gAaw5Ww6zBEhoiIaEW8cleXyat/0UuX9wjM+vlFb+L38unm0Ni3a8SHdeuXdOtOwY6RAfFPXEo8NvNnDlT/ckQSr1795YlS5bopEWM6L97965Wca9fv65LzajSw/KAJjY/Pz+ZPXu2/j2s2nsOri7uMSIdKThIw0Glu1WrVlqt94TfQVburcOW/06WM4Eydd5PctU3uzTsHveqPTCrjOb7I8QdyJgxo26taQS3nFolPd8sKgVLNZPPNBlHxCeNv/hnSSJJ5KHcs03hPvK9mO/N3eEVnTiMSZMmaXUeaSJoAEPlvXnz5hoXiHzw33//Xe7cuaMPAGhWRCTVihUr9PsLFy4sYWFhkU/6GMHO4S2egSuLe+TVlytXTn8/s2XLppni8+bN05xxT4CVe+sw/cG4PsWL8DAJWjlNdvz2j6QvE7+qPcC8DxAr/zIhTiZ37ty6RZEkJnwyFJYKJV8Rn4s75L2mPWXyvAUya1gHGbLhrJzOlFPqvolmdIuEbA2QgIXL5KufbkRIfpG7v2yQZbEYZmW+F/O9uTsU98Tu7Nq1S0qWLCnDhg3TijyqoBDt8CwvW7ZMunXrpsIuQ4YMepN68cUXNeINzWLwN0+cOFEfBhAviEo/qmcrV67UTPQJEyYY/xXijmDF5tatW5IzZ0559dVXjaPOB5Nl8fuFSbOgV69eevGvW7euvvYUWLm3DvNhDquL8QFe+08+PSqXUuWSVr3jV7UHZi8ApiAT4i6UKFFCt1ZNg/Xxl/pDPpAmEQI//MRn0q9zR+kxYbucvpFUqvWcIu3z+T56aJ7dRVq07yEfrPlFQuWC/LL+A+nRvoW897V1th3zvWBarSfAKzqxKzNmzNBBUxBGqL7Dr7x169Y4DYKBjQcV+3Pnzknnzp312IgRI/Tvgn+PuB9opgWuUrXH71GPHj1UxGNlCBd6jEqHyE+YMKHxXZ4DK/fWgRVHcOLECd3GCQiQZdNk++lwSf96H2lePH5Ve4C+JYBVJULchfLly+t248aNuo0JeO1nrP1alixYJPPnfBLxgPypLFq+QQL6FBZfXJYT+krhrnNk2afzZf5jX8tkdF3/GGNmsQK2adMm3a9QoYJu3R2Ke2I3UKnv37+/7mOL6nvNmjX1dXxAhReNuGvWrFEfPh4YqlSporYe4l64kiUnICBAHyDnz5+vr0eOHKnVnDfeeENfeyKs3FsHmvyxugTLIFab4oLlzEaZ9sk+CU2aS1r1qB7vqj0w30uBAgV0S4g7gJ47PDCfOnVKi31WgTjZRs2lQ+eu0rVdc6lfIfcjYa/4iH+l5tK8XQfp8NhXxPeV8otR3OPaj2shBsNBU3gCvKITuwCvMjz2YMGCBZH2BltSu3Zt2bt3r1p+goKCNFkHVh/iPriCuD9z5oy0aNFC2rdvr7YLrDRBNA0aNMj4Ds+FlXvrMYdXWS1GnsBi8ZU64xbJki8+k3fLxj+RA8IIq0tIH7FujD8hrgOuuQCFOmczd+5c3aIH0FOguCc2Bx9WU8x/8cUXKprsRZYsWdQ2gUoAGnDbtGljnCGuDqxaeBhDBce0PTgaJDehWo9Iy2TJksn06dNl7dq1kcOBPB1W7q0Hq4Ng9erVuo0tvvmqS/NWzaV5pagVx7jz5Zdf6hZJYoS4G7DWIu0J196dO3caRx3P4sWL5eDBg5I1a1Zp2bKlcdT94RWd2JQDBw5o0ytAbGXjxo11356gcoUGW3w4t23bJkOHDjXOEFfG9NvjwczRwCJWrVo1TWJC9GrTpk31YQPDqbwJVu6tByuFaKzFNe7bb781jjoPczpyw4YNdUuIO4HPEq6/YPjw4bp1NEi/Mv/b5nvxFCjuiU0xrQzdu3d3qFBKnz69RhSCyZMna0IPcW2cZcnBUDQ8UOzYsUMnjmLOwqJFi1wqrcdRsHIfOzp06KBbrPA4Ewh7zAFBbJ8t+pgIcQaw72bPnl2+++47DcdwND179tSADjTR2tNh4Ax4RSc2A956NCCigo5pno4GzTAYNATGjBmjW+K6OFrcb9++XfszMBQNIIIV8apxSW7yFFi5jx0oWvj4+MjXX3+t9i1nYV7fENFKiLsCW47Zmzd69GiNxnYUsA5j4j1S0BC37WlQ3BObgZhKgCfwRIkS6b6jwQUCFVhU7pGiQ1yT4OBgbV7Fz+q1114zjtqHe/fuSd++faVGjRpqvYHHfv369foA6u3Df1i5jx1p0qTRFDAwcOBAuX//vu47knfeeUebabH6xEndxN2pWrWqrqYCeN5XrVql+/Zk1qxZ+vkFaKbNly+f7nsSvKITmwDP+8mTJzWSrXXr1sZRx4On8D59+ui+GWlInAs87ciPv3v3rnHEcVV7/F5CzH/yySf6Gv0YP/zwgw5SI6zcxwV4c/F7C1tMx44djaOOYenSpZGrouYKFCHuDqKyzVUopN6ZFlt7gFUvzDIB48eP96iEnKhQ3BObgFQcYHpSnUmnTp20Erl582Y5e/ascZQ4gvPnz+tSJ5IQSpUqpZMzkRGO5qlUqVLpPpJozMnC8Lzbgz/++EPatm0rrVq1ivRUooHXWY1brgor93Hjo48+khdeeEH7NRwVmYrrGX6fAURJ6dKldZ8QTwA2mXfffVf3cf+AALflyhhWips0aRJ5D8B/zywEeiK8opN4g4osbA7AJuk4YcGycXmABKzeK6HWzI1+AghIM0HC2gl4JH4glq9WrVraHAUvO+LF4Ge/ceOGiiD8TGCBQRUfKzzmwDH4LYsWLarVSCQX2AIss6Ja//nnn8uLL76o/w1MHyxSpIjxHcSElfu4gQdFU3jgQXXAgAG6by/g70daD8Dny5NFCfFesBpl2nthnYFlE8Wi+DJlyhTJlSuXrFixQu9F8PZ7er8KxT2JN+h0B1iqjvd0N0uobBxVV2o0byEthq2VkDiIe2BmUjM1x76gsRAVenglMdwHFeB69eppZRMDxpBjD0EfFham4h1fR44c0YonVliQcvTLL79oIzQasc3mqrhw9OhRFUC4aGOceP369dVjby7Bkv/Cyn3sQfMdUjZAnTp1dItjiFOF/czW4MEX/x08TGBl1BlhBYQ4iq5du6ptE5PBMWAQKTZ58uTRzxheWwvuK0jjQV8XVgTw2axbt678+OOPav3xdJ6zWCyPSjeExJFx48bJqFGj9AMUH3EWoewleEkHKdM6QMLwMv8g2bNrnJSOwzBHMyYOto8TJ04YR4mtQEUeTaoY2w1QYUGSCKwwL730kh6zFjwgYCYCbAcAFXbEmcbGdgCbwsiRI3UfD5hjx471WC+lLUHzOyrP+PyaDWbk6aBnA7+bwBT5WB1EYys+E7je4HexWbNm+j3xAeIE/701a9boa/iSzcZDQrwBRL4idhaTmE0KFSqkqWe4v2fIkEHvN1iBxOcPFkx8blBYOn78uPEnRO8lWO0yH8a9AYp7Em/wZA2R9+mnn8YrvSFs32SpV7qfPBoPk1ReKtJPNm8fGSdxDxBZh6oxqsdJkyY1jpL4goZUVBCR2AHLDR7ukOARX5BuhCQSTBoGM2bM0Or+s8DKDATQ/v379TUaHLG0i6VXEjPwn0KkQjRCPJKngxUgs0kf1q+owQGwmuFhF0P0AHo88P1YPYot+P1HAzgeeAF6VWArwMoAId4IbGmw1OBBOmoww7NInTq1WkXhs8fn0duguCfxBlFWmNgIW0ZcU0gs5wNlZN03ZcJB48DzEeK+YPzEPfzfv/32mz7JZ8uWzThK4gOq6+irwEMT5gpAhOTMmdM4axtQYTGHBKGybM4uiEp4eLgMGTJE7T8Ay7YQ9Zg6S6wHD1NYbUOChKdNaLQlsJ2hrwRAZJj+9yeBIMeq0Z9//qmvM2fOrNVCfFZKlCgh6dKl0+NRQVRrUFCQPqhu2LBBZ4WY4OEW1oK0adMaRwjxbvD5QD8XikuhoaFqwUTPECr4sHnifoTV32LFihl/wjuhuCfxBl77gwcPqpetePHixtFYcDtEAvpWlRYLTkiWFstk1bsikxp1lXXJ34mXuMcHHDfNffv26VIeiR8QHxDPf//9t67WYGiZvZg5c2akr/lJ4QkbD6r1eHADtCvEHTwgoSoMQWqL1RdPA8IBFXOzIr9lyxb1Aj8LeOMh8tEIiHkOUfH19dUEqcSJE+sD6rVr1+TChQvG2UfgHFYFkBiSN29e4yghhFgPu6iIcwkPk6AlfWRAwGlJlrujzHq/vuROZpyLJ0wAsR1It2nTpo0Ke4gOewp7ENUCgeoyqqWohqKSCbEFYY+Hyp07d1LYxwOm5TwdxLriYRbCHs3esKPFJOwBrGpo6kZhASuaeBAtX768pEyZUhvL4QVG5REN4KawR4Ufv9uwN166dElXrijsHceBAwdkzpw5+oALGwdWoytXrqwNmF26dNHYRDzY4WGPEHeAlXsSb5BMA5GFm+Cbb75pHLWS0I3Ss3wzmXnypsij4I5HPPeCPP/PfflbXpDaAcfki2b+4mOcspYcOXLo0h2Ww2HRQdc8vtCEY+4jf53EDKwFsOTAjmA2+DkCNHsiRxz9E4i1RNMUhCgqzfA4k/iBJloISfw79+7d2zhKILzRFAsvPVYAly9frgI8vqD/58qVKxJx39WBe7C14SGWPQ+OBylviMuFn/vy5cvG0ZjB/a5Ro0Zq1SLEVaG4J/EGCSm4SC5atEiru7HCEiIbJ4+Q2buvSLhx6P7ts3LwcIjcDU8thcvXkI7jxkvHQrH35iBXHX7WZwHBaAr9p31F55P1Jj7++GOtaOHfAtVIR/t/Uak3h6ShQQreelv7/L0V5LOjbwGVSU/PfbYWxPDhdw6CD414uLbZq0Ebjbn4d0cQgTlFmdiXb775Rq1oUWOScT0pU6aMDtjDQxxWWRAPi0o9VleQvgbbqTlZG8DfjZ8dZw4QV4TinsQbiC1UniAUzMmj8cFyKkA6VIuf5x4VN1yw4W+F9xUTS5/8wrI7KmkxgQrbk4I/6pe5EuCJIJceKyDwBqN66YzEDtxcEbWJG+1XX30lNWrUMM6Q+IJeBvQ3oKmW8wBEG1pRsYdvHvMa8DtvT7DaWbNmTbXtQHQS+wFbH1aqzJ9pmjRpIm1+BQoU0GMxgfsFGqtRyEIvF8iXL5+uJMLGQ4irQHFP4g3iqRD5Bj8q7DnxRcV9uRayMvUg2RnHnHtMSMUqAiq9K1euNI7+F8RqRSf8o36ZyRfPAlWeJ0V/dF/PP/+88SfcA3OGATyomPLqLFBZxo0Zv2PwvhLbgNkUmASJ7HbMKfBmMLUSEa/AUZV09I7AW895HPYFD06Y7Hvx4kVJlCiRzsRAMQqFm7iCxn4UtQ4dOqSv0RuEL0JcAYp7Em9u3boVadWAnxT5svEiLFg2bgqSMB9/qVittPjF1mwfAfyQuFlHnSYZVxD7GJ3oj/qFm4Y1YCk3OtFvfmEVADcfVwERovj/B7+9MytTSBbBcCpUznbs2BGrAVfk6aBvASIWU08hfrwV03oGYLPAICpHgIZm2AexxQRNNOMS24KVW/N3G6sk06ZNs2k0MuJ6R48erftIOYLVihBnQ3FPbAJSBVAdwU3S2SIBPnsMfon43dbGODTT2psHDx78R/BH92UNsBJFbfqN7gsNpvYGFgWM6S5YsKCmezgbNBzCPoLfL47gtw0QsohthODB2HdvBJYKU5yhoosGbkeCyj0q+PiM5cqVyzhKbAEGK7799tu6j5U/ez20oYoPOxfuOdjigYIQZ0JxT2wCItyQfY7BEea0UGeBBkEkf2BwDCxDrsLDhw+jFfxPfiFuMiawUhKd6I/6Fd+pvGYcJZae47rcbDkfJIGbAmXX0TMiWQrJGxUaSPU4NEcDNLRh7Dga3qKOFidxBw2BqDTiM4OIU2/DbCgGznrAgXUQAwBXrVol1atXN46S+GLaRQEe4KIbhmdLMFwJ/UBYgcG1E4UIQpwFxT2xGWh6PHv2rKZLICvYWSCTOiQkRG05qDy7G9EJ/ie/sFIQE1i9iGkFAFP9ngaazOADjutwMsupVdKzfmtZEnxH/tIopBfkpXQl5N3PVsqISn76PbEF7xkNthjRz8Sc+APL2rx582TGjBnaXOhNIL/8s88+031UWlFxdQbmAxb7HmwHrhEoBCDxCKIe4t4RoEG6UqVKuo/c/FinxxFiIyjuic2Adxce3jx58sgvv/xiHHUsWF6HBxIXdls097oqGLsdneiP+oUl4pjAxMwnBT++cBxiB/afmOJEo8USIqvaV5DWX96UtBXbS48G/mLZvkDmbwmWf/INldVrh0nhOBTwUYlbvXq1Nkw3btzYOEriCsQkBpKhqdZsJvV0sIKG323Ma8DvN9JTMKzKWWDFAFYg/Cwg8En8adGihSZrwS6K64UjwX0QVqBkyZLJTz/9pNdTQhwNxT2xKWXLllVbDlI4HL0suXfvXs0qBuvWrYusoHgrqFqZQh+xn1GFv/mFtKBnUbhw4cg0iNhgObNK2pRuICuStJMN2z+W6ll8NAWpZd2Im640kK/WL5X6EcdiC6Z9ogo3fPhw3SfxAyIEvmT0ysBW5+lcv35dow/x4I/eFqwyOrs5G0OU8KCKBwxHC1FPBA9tWDmGuP71118lY8aMxhnHgZ8nUtpQuUcFnxBHk8DYEmITzIYlVKBQXXUUGOtu2gpQAfN2YQ/gyy9UqJD6QGFBwKoGqrRofD5y5Ihm10Pgw3YDUYG8cyxhI/EBTbQgrlUnnyz1ZU7QaTm9c4oKexAW8rOcvyfil8RPfOPYEAybEcDKBYk/qGIDRLl6OrDqQUBD2MNCiGhXV0hdgo0Q4P2R+GOufiDC1xnCHowZM0a3sH2hek+Io6G4Jzbl9ddfjxxkhaoFKuj2BjGJGAcOKxD++1zath7ElsJbD9HTsWNHtTTB/2vGAiZPnly3ccHXz1/8Mxjemyt7ZdnEeXL4XErJWKWFFEnz6HBsMXsEMNCKxB9EMILnnntOt54KJivjdxyJNLDsQdjDPugK+Pv76/b06dO6JXEHkb0oVmBugHkNcwboBzKHwjEakzgDintic5BUY2bL165dW5e+7QWsJ1WqVNFGJkRemg1yJH6YYs8Uf/HidrAE9Gsl/bZek7+LdJaRHQqLbxxnx3iLGHUU3lC5//bbb1XYnzlzRmc1QNhj3oSrgFSrdOnS6VTcc+fOGUdJXDCnz7pCc7iZvIRgB8xKIcSRUNwTu4DhUWa+MJrXsERqa7Zv364e+8DAQF1mR5Scadsg8cOskN+4cUO3ceZ2iKwa3FBafPabSI6OEQ9fIyNtOnHBfD/PSvkh1uPpD0vIH4ewh20PPmj42zE0ytUwrTms3scdPKjCbw+aN2+u2xgJD5PgHQEya0RP6dnvA5m1cq+EPLEoqHG+SybI8KHTJGBHsITFnFOgYH4BJmoj2GD9+vXGUUIcA8U9sRtTpkzRoTAAW1zoUEWLL8gR7tevn7z11lty6tQpzbPHciyjEW0HKong999/122cgLAfXlMazPxVJFdHWbZqojTPFb/hW+b7caXKqzvjyZX7RYsWafMsHmCQ4e/IHqDYQnEff9BLgWQvzFox/z2fSYSw3zutuVSs3kZ6j54pMycPk74dakn1bgESrALfIiGr+8n/8hWXyq0HyZixfaVFlWLyWpWhstfKlh9zbgGmahPiSCjuiV1BxBuaNWGZ+e6776RChQoaZ4imztiCGx9SUtAkZfrqMYQGw0r8/OKWm06iJ0eOHLpF2oQpAGOFJUQ2Dm8gDaZFCHvw0iVZPb6XtG7ZWjoNWhBxc7Sy/PUEZsQqH+Rsg6dW7qdPnx5pi8BkY3NQlati+u7ZVBt3zOGJ6LuyhrADM6Xfh9vkVvJc0jxC3M+f8q687pdIjm0aK2M2hYjl6DLp0/0jOXjjZanYN+L83EnSvWRSubtnprQfEyihOrvj2fzvf//TrbMHOxLvg+Ke2B0siyMxAEI/UaJEKvZxLEuWLNKtWzdZunSpDiVCRd4EQ5owEAsVeaS8lCtXTrJly6YpBPg+/Pldu3ZFjo0ntgU+4Hz58um03O+//944aj1he6fLO9OCjFcR7F8nXy5bIksivubPmSpfBMdN3O/bt0+3iOgk8ccTK/ewAA4cOFD3P/jgA52w7Oqwch9/jh07plsEBMQM7Dhfy57LL0rBdxfLR8O7S4eew2R4/ayS8epNOfPTOTl+ZKeEPHwg2etOkjljI853elfGTBwoxbLcjHgw2CUXrejpN1PHgoODdUuIo6C4Jw7h+eefV2sOKlNIZEFlGOJ99uzZ0qpVK70IpkiRQsU/Bsu88MILKv6rVq2q3w8hj+oivJRbtmzRB4QSJUoYfzuxB+XLl9dtXFZZfPybyNjF82X+p9F8fTRamvjH3p6DZferV69qfwV+N0j88bTKPYbojRs3TvcxmAvzNtwBivv4g1kewLprg6+U7rtNTp/8Wb7qVTjiVQSWixJy6ppYEieVFJlSyIv6fSJ/37spFqNKb7l3W+7hefif22JNeQJZ+y+//LI2SzO+lzgSDrEiTuPAgQPqwccWlQ1krpsRhwkTJtQhM6jWQ/jDP3vr1i2NssuVK5d+D7Ev8IlihQQPYidOnDCOOg/ML8CwJQg2VGRJ/GnZsqV8+eWXunrWsGFD46h7giFcAQEBuu9u/3+uXLmiYQCYDE0RGDdQ7MEKMGJPMd8jdsBf31+qt5ktZ31ryvzA5VLfskyaNBwsay8+LwWrtJFGOW/Itq+3ybFfzkvypstk58L64mdFjSJ37ty6qoDVaxQmCHEErNwTp4HGJzTGIioTFz7c4CDuYbvB9rffftMqPZJ3EKkJ4lJFJnED/RG4GZ08eVJHuTsTpJ1gABfA9EliGzyhco+YQfTxQNgjRQnJJO72oJImTRoV9vg9x3WQxB5YCAEKQ7EldPd0ad1+phy79YrUGv6eJnr55Gsh4wdWlVzP35XTGybKsA9mywHLAwnNkF+qtS9jlbAHWLUG5vsjxBFQ3BOXAhdmWHKeBPYcQHHvWDDYCiD5yJlMmjRJRRym7VrnqSXW4O6e+z///FNXl9BUj8o3MuyRouWOcJhV/DAjTu/cuaNbawnbN0061R4ku8MSSfnxi2V6O3MOh4/kbjdX9u5ZLYvG95XqGdKKz4U7krfKIOld1voAh7t37+o2ceLEuiXEEVDcE7fAFPew8cB3TRwDhpHBw7pnzx7tj3AGSOwxbTh9+vTRLbEN7ly5h1UMwh6/m2j+hrDHaqC7Qt99/EibNq1uL168qFtrgLBvVbOvrL+eRKqM/0aW964ofo8V/n3EN3sRSRf+q4RYbskL+ZrIhyOrS2xahsz3Y74/QhwBxT1xC7DcXqlSJd1Hgg5xHIgfBfC6O8N7jyZJ0K5dOylbtqzuE9vgrpX7H3/8UYU9olERNwhhb8a3uisU9/ED/Vng+PHjuo2JsAOzpVWdCGGvtaK08nD/IhnQsbW0bttTJqwONhpmLRKydbwMWRAkZ5MWktYfDJPqGaxX9vhZYogV5oaguZYQR0FxT9wGWnOcQ4sWLXQYEJaXO3ToEFntdQTIKEffRaZMmWT8+PHGUWIr3LFyv3XrVhX2aMCHTQvC3hOqoqa4Z9Z93DDtelZlymMOx4gIYf+n8VrOytavHkX1Lvlspkyft0cn1VqOrpJB3WbJnlP/SIGWH8jACrGbp4KHUGBGYhLiKCjuidtAce88Zs6cqePUd+/e7bBmRYh5eO0BUnIQlUpsi7tV7leuXCm1atVSXzUeOtHojfhcT4Ce+/hhDq8KDAzU7TNJmFIK91gQfVRvxNeknkUknY9FLl72kToj5sjydZtk9bCKhhfferZv365bawdrEWIrGIVJ3IqSJUtqss66desibTrEMcACgXHqly5dkpo1a0amk9iD9957L3L4ELz+bdu21X1iW5Ayg2bUVatWRY7Kd1XmzZunPSAAsajmlGpP4dy5czp5GRYOVu/jhnl/WLNmTWTCmjPBihLSj1DBZxAAcSSs3BO3gtV754HKPYaHIZUEcYOlSpXS4WK2BDdCWIBMYY8VAwp7++EulXus4JjCfsiQIR4n7AGsZ0gKQwNmbBNfyCMaNWqk288++0y3zmTx4sV6PStevDiFPXE4FPfErTDFPZtqnUORIkXU84xlZqTYlCtXTn3xyOeOL3PnzpU8efLIF198oRYcbM0oTmIfTHHvyp77YcOG6Rf48MMPdVXHU6HvPn60adNGf5exEmX63Z3FjBkzdMviBHEGFPfErShdurSkT59eTp06pcuvxPHAGwwv6TvvvKOvUVXNmDGjDBo0SCcNxwY8FMyaNUvy588vXbp0kcuXL6s9ZO/evVKnTh3ju4i9MBtqXbVy36NHj8i+Czz89erVS/c9Ffru4wdsMObvyJgxY3TrDObMmaOT17Nnz64hBIQ4Gop74nbQmuMajB07Vnbu3KliHBOFJ0yYoJV3LEMPGDBAVqxYIYcPH9Zx+jdu3NAlaoxhR7rJuHHjNPEkZcqUKuCOHj2qY9oxhRZVN7OCSeyLK1fuW7VqJfPnz9cHD6zitG7d2jjjuTAOM/6gyJAqVSrty0KfhqNB78TAgQN1f/DgwbolxNFQ3BO3g+LedUADG8Q4Eiqw/IwsZ1SsJk6cKE2aNJHChQtrgyBG66OqBgGPhwH4ps2fX+XKldWfGhQUpAkoxHG4YuUeD4pIxEEyDkQaHga9ZRWH4j7+oGCAwgPo1q2bddGYNgQrkChmoFmd1zPiLJiWQ9yO+/fv600/PDxcb4Kw6RDXAZ582GqOHDmi3mFYbTDIJWHChHrjReMgKvwlSpSQChUqcHKjE8HqyY4dO1RA42fhbJBdj4ZqCDJYVD7//HOvygjHz6FevXqaBIbKM4k7EPYLFy5UawyuSZi0bW86d+6sqwWZM2fW2GBe24izoLgnbgmy1pHYgvzz9u3bG0cJIbGhSpUqaq1Cgzqao50JolabNWumU5Cx4rN8+XKHCDJXAra1QoUK6bRV/HuQuPHXX3/p7xJiXgGKCZiJkCtXLn1tD1CxR18I5i7g81SmTBnjDCGOh7Yc4pYwNYeQ+OMqE2q///57XUWAsMcKAirY3ibsQVRbjiMnQXsSf/75p/4uQdgjthcPikj2Klu2rKxdu9b4Lttx4cIFnfsBYY/VSdjJKOyJs6G4J25JVN897DmEkNjjCjn3EGEQYxBldevWVWGPHg1vBDn3sK1B2NN3H3vwcIh7w549ezSBC/eH7777Tv3vaOhH70bfvn1tNkcAth/YxjZs2KAPEvjvmfcmQpwJxT1xS3AhRTMnll/ZWEtI3HB2Wg6mHEN4oY8GDdnw2Hs7zLqPG8i1x0OiWaXHQyL89qim4/fMnI8wbdo0XRUaP368XL9+XY/Fli+//FLeeOMNtYTioQHTcOGx/9///md8ByHOheKeuC1MzSEkfjgzLSdqv0yfPn1k9uzZuu/tMOs+9qBhFsIeDdmwyGA1KE2aNMbZRyChC1V8NCtDkCOmMnXq1NrAjYm2v/32m/Gd/+XatWv6sIDZHngwwCRc/F0oMn3yySca++vn52d8NyHOh+KeuC1oBgQU94TEDWdV7jHnwByCNmLECK2ikkcwDjN2wOOO6FRYbVq2bKlVdTS1RgdmcCCF6Ouvv9ZIXjzcYoYCVo1Q5U+ePLnaeVD5R4N5sWLFNI0NDwH4/qlTp8rZs2e1QRfD1TBMsV27dsbfTojrwLQc4tYgNx3L17t27dJoRUKI9cBaADuDIz8/GPAzffp03YdYQmQh+RekuiAfHVYPVITJ00HsZM+ePXW/e/fuMnnyZN23Fgh1+OURB4v5HBcvXjTOPE6SJEk0xQiiH0UlNswSV4finrg1aI7CsiiWXE1PJSHEOuARhqiBxQBVTXvTtWtXWbRoke6jGRFxheRxDh06pOIRFWRHD2ByJ1A5HzZsmO4PHTpUhg8frvvxAfYbpN/cvHlTV7Ug6l9++WW13xDiTtCWQ9wa+u4JiTuO8tzjvwNvM4T9iy++qFONKeyjh7acmIGoN4U9pmHbQtgDDEfMly+fPlzhwbdIkSIU9sQtobgnbg2WSJMmTarVLqZLEBI7HOG5DwsL02ZH+JxfeeUVbUyEf5lED2JA0QwKD/nTbCLeTI8ePbRqD5Atb9pyCCH/4vXiHn7Tjz76SMdGQyiigQbLoUWLFpXKlStLp06dNDoL4/SJa8LqPSFxw96V+zNnzqiw//bbbyVnzpwq7OlXjhlW76OnVatWMn/+fHn++ee1H6F169bGGUJIVLxS3AcFBUVGWqGhbMCAAbJ48WIdw3706FE5efKkjv5Gk9mSJUtk0KBBOjUxY8aM0qtXL30gIK6DKe45rZaQ2GHPyv3hw4dV2ON6i2ZdPHwjZYTEDLPuHwerGEjEQTIOrDOIukTDMSEkerxK3B88eFB9n6VLl9aM5dDQUK0moTqPpkxk5f70009y/Phx+fnnn2X79u0yZ84cbQJDKsvly5d1GRAPBA0aNJB9+/YZfzNxJlEr97aaPEiIN2Cvyj0KJRD2EKdYAUXFHpGCxDqYdf8vyK7HNR73Zzz04HcJMZWEkKfjNeIezTevv/66+j6RgWtW4CHkIdgh4N966y0pUKCACn5YcypWrKh2HQh/TL2DrxsVf3TQIz6rfPny0r9/f+O/QJxF2rRp9YEL0JpDSMzgIRgZ3Xfv3tXX586d04QQW7BmzRq1OGL6J4b9rF27VvtiiPXQlvMIrKDjIRGpQYULF1ZhX7BgQeMsIeRpeLy4x9Q5iHSzAad3795y/vx5zVmObfQbLi7I0cWfN0X9jBkz9KEBFyHiPOi7J+TpQLxjAiwSalC8wFAepIKYUzmxEonIP1SMsY/r44kTJ/RcbMCkzyZNmug+VkRhaySxh+JeZM+ePSrs8XsIWyyEfebMmY2zhJBn4dE59z/88IPacJA4kDdvXpk5c6ZW220FmmzRuY+KfsqUKeXzzz/ncqGTwMoKYstQxf/999+No4R4N1hhRAMihFFUEEeJiL8UKVKo3x5Ve9gfzEq+Ca5nHTp0kMaNGxtHng6CCdC/BFD8eP/993WfxB5krUPge+v1DJ563Lvv378v9erVk+XLlxtnCCHW4LHiHoK7Ro0aujRcp04dWbZsmV2WhsPDw3XkNUZYJ06cWNavX6+VfOJ4MEHw2LFj6s3EJEFCvJXvv/9exTVSagAEfMOGDXWFC2k1uXLl0uNPgko+eom2bNmik1LNHhakiGFQECqp0TF69GgZO3as7o8ZM0b69eun+yTuoHEUD1uXLl3ShzBvISAgQNq3b6/7bdu21RUnQkjs8EhbDhpfIbgh7PH0D5+9vTyfCRMm1Ip9u3bt5N69exrVhZHWxPHQmkOI6KTmN998U4V9unTp5MMPP9TJm4gOhGh6mrAH2bJlkxYtWqi9Bn9m1qxZkiNHDp1iiwoqbI1Pgj4kU9hjdZTC3jZ4ozUH/W2msO/Tpw+FPSFxxCPF/dtvv60XxEqVKjlsOe/TTz/VaC4sp+K/TxwPxT3xZjAsCquUEPNg4MCBmjMPiwwGI8WWF154Qa9l8Dx/8MEHegzpYbDqmBGNsOwgeQwsXbpUOnbsqPsk/nibuB83bpz07dtX90eMGCHjx4/XfUJI7PE4cY8n/XXr1mlz2MKFC42jjgH/PWTnI0JzypQpxlHiKNBPgUZBNDfDnkOIt4C+IlhmMOsBTYewpkEcQaDbgiFDhmi6GJJK0MuEB2lEXMLuCHDNhe2H2A5T3HtD1j0eREeNGqX7U6dOlcGDB+s+ISRueJS4R1NY1AvEq6++qvuOAh5J/HcB3gdy9IljQQQfYPWeeAvwZaPhFcOiSpYsKd99953G+toapIvBy4+HCFgPMeQP4L+HVVJiW7wl6x4x1EhnAiiQdevWTfcJIXHHo8T9tGnT1GePRtrmzZsbRx1L3bp1Ndv5r7/+ihT6xHHQmkO8DVhjkANetGhRTRnBJG17gd4l/DfMh2g02sY2UphYhzfYctATt2jRIk1vWrVqlUa1EkLij0el5SDa7cqVKxIYGKi5uM4Cy9eooCE9B/FyGHpFHANWb2DJAuh/wGoKIZ4K7H+wzKRJk0ajebNnz26csS/w9yN1Jzg4WH3S8EsT24LkIkQ4w2aFYYueBH5/IOzR9P3KK69obxx+nwghtsFjKvdIgoCwL126tFOFPShRooQuUyM9BxGZxHEkT5480iLA6j3xZNDoCmEP0GvkKGEP0KCL5lqAFUrYdYhtgS0HEaawQD148MA46v6gyRvWLgh7DFTDShCFPSG2xWPEPRq6gDkd0WrCwyR4U4AELN8owWHGsSe5Eiwbl0d8z5IAWbUvVCzG4WdhDn0x3xdxHLTmEG/ATBNBDC+myjoazJIYNGiQ7ptRmMR2JEiQwON89z/99JMKe/SHoAiG4WpYnSCE2BaPEffmsJbq1avr1ipuh8jGEfWkasv20mLwbAm6Eo1st+B7mkv7dp2ly7RD4pPBV3yMU8/CfB87duzQLXEcFPfE0zl69KgO+wHItXcW+G/DEoSEMHwR2+JJvvudO3eqsEf6D5KWIOwdHXpBiLfgEeL+1KlTOrgKjWQYuGIVV4Lk/+3dB3hU5RIG4FFa6AFBQhUQhVBEFFEQRIK00KvSkSpC6AIKSEd6k15EQECkt6CUgLSAIKEaRCSgKJEioShBAtx8k3NyI4Zkd9mS3XzvffKcs2cj7pVkd87888/M71BNmk88INfupRZJF1/LuEgJXTNY+q85IimK1JTJsweKfx5LQnuRXLly6bAYlOYcOXLEuErOgEE8aNmH+vtt27YZV4k8BzYhAjqLoP2uq2BfUUBAgJ47u/VwcuApwf26des0sMdgNDScWL9+vcMGSxKRhwT35mYji5f3IsNkde/a0v7LnyQi8rbcyXDTeOLfIo58Lv0Gb5KfUrwo/oNHS/PS1g2CKV68uB5RG0vOxew9ebIVK1boESU5rmZOFF25cqXeUJP9eEKv+0WLFmm57P3796VDhw6yePFi4xkichSPCO7RFQXQVcAiXgXE/8M5MnrgNNkUtERqZzKuxxURIp/3HyM7L6WQyPBUErFrtSzZECLhlhTcG8zXg4455FwM7slT7dmzR/744w8pWrSo7W0ooyIlbM9qmT6yvwT0GirTlwVL2C3jOSuhS5nZVx9DtMh+3L3mfurUqdKxY0c979Onj3z66ad6TkSO5RHB/fXr1/VozYh1ryL+0m94F/Er4CX/LciJkJAvhspn+85JplS3RVKflq1z+khAa39pPDJIwqOMb0uE+XqYzXI+dE1CaRRKtrCJi8hTILgHmwdVRUW/v01rLK9Xf1u6Dxwj0yYNkZ5t/eXNtgsl1MYAv3Llynpk1xz7cueynOHDh0vfvn31fMSIEfpFRM7hEcH9gwcxrfrRXcAuLuyTGfMPyvG0z4tPzSGyauVSmdG7kRTIfle+Xzle1p6yLH1vvh4sR5LzMXtPnsi8WbU1ax954nPpPvYbuZXpeWk2ZJrMm9hb/PKlk8s7Jsu4rbaVf2CuB3B/kX25a1lO7969ZeTIkXo+bdo0zdoTkfN4RHBvDom6dcvGtNNDIiPCJOyv3yVX/ioydnRvaVDDX5p9NFYGlHxavE6dl23HL1rUDtN8Pdw45BoM7skTYbgR+Pr66tE6kRL67QrZffFJKdJxnkwd0EXaBQyUwY3zS5Yrl+TMDxEWvbc9DM0DwHxtZB/47MiZM6dOPP/111+Nq0kbJiZPnz5dz1Ff3759ez0nIufxiOAeE+7ArL1/bF5ZJOMTaeRu5B2JNEtwIiPk2q07cjvzA0mXIa1F7TDN12NOTCXnwoj8lClT6uTOixcvGleJ3Bvq7QFBn/W8pFSnTXLxp1BZ36eseEuEhJ/YJ1t2Hpbf5YHkf966pgEmvBasVKJrGVcq7ctd6u4xaKtRo0ayZMkSyZAhg854QWccInI+jwju0foQTp06pUeLhIfI6sXzZcmKIDn/T/Tjf85J0IolMn9ZkISlLSXVns0ht37eKEOGT5D5C+bLhH6dZeTBC5I+b2mpV8KyD0Dz9Zivj5wrTZo0zN6Tx/n777/1iADKJl7e4lOogPhEBcugUlkkZ6maMmRvpORsOV4+rFHAosRFfMwVSvP1kX24Q909psOj1eXGjRu1dz2mzpqTwonI+TwiuEdPc2RoT548qX10LREZvk4+btVe2vedLvuwkvzz9zL/o+jHHSdLyO0C8s6oj6X20+FycE4fad+2vfSZc0iuRZWUNqOGin/+xD/+/vnnH/nuu+/0HK+PXIPBPXmaFClS6PHevXt6tFlKbylU3k8KGQ8vLh4us3eHG4+sZ74eu+19IpXUg3s0LcD7LDZ6ox01hlNh+iwRuc4TkZGRMbtR3RyyBpgG++WXX2pP3UQhc7/1cHTAbjw2pPUqIKVq+IkvkvMRYRISHCKhv94UyZ5XSpUtJ74+luW1kMGoXbu2vsnt2rXLuErOduHCBSlUqJBm8a9evao3gUTurHDhwnL+/HmtbzcDP6vcCpewK16SM78xbTsyXIImNZV2Hx2WlE0XyO5FDcTHyl+T6M8RHWiVOnVqdgezs2XLluk8A5S8fPHFF8bVpOHQoUPStGlT3Q9Qrlw5/fxlGSqR63lMigXBPaxatUqPifIpJQ1atpN27/77q1lTI7AHbwT6DaRZx9bSrH70dQsDezBfB1YS8OZsdvQh50IPbtxgYUMas/fkCfAzDefOndOjVW6FyvyWZaXkS69Jzw1Glt7LWwrkzyFpM/8jT94XuW1hq9+4zNdivjayn6Saud++fbt+7iKw9/f314w9A3uipMFjgntkNQCTG2360LOjS5cuxY6Hx5Ilsi4+Pj7SvXt33dxJzsXSHPIkZmeaY8eO6dEqGQpIOX9fyXQ3TFb2aio9Js2X+ZM+kDZD98n5lIWlhH8pyWlD0b35WszXRvaTFIN7JK9q1qwpN2/elGbNmsnq1at1dZSIkgaPCe4xsAhvMjBp0iQ9usrkyZP1iDe/KVOm6EAlDNqaPXu2VKpUSXtCT5w40X7dfShBZnDP6ZnkCUqXLq1H2wZGeYlv4wkytF5hSXfjO5nSq7207zVNDl27J/mq9JXhDWzbUGsO1jJfG9lP9uzZJXPmzBIREaEbV11t/vz50rx5cz3v3LmzfPbZZ3pOREmHx9TcQ0hIiAbS8P3338tLL72k586EDjlm/2ksW77++ut6jsEzqEdcvnz5v4L6OnXqyDvvvCMNGjQwrpAj4O8Eg2Cw/4Gbvcid4ecYP8/oToP6dps2sEZFSOjWQAn5/YbckEySKWsBKVulrBSwsQHPc889p6uUQUFBWntN9oXPNXy+7d692+bhZfaApNRHH32k5x9++KEMHjxYz4koafGotgalSpXSTAJ88MEHenQ2cxJf69atYwN7QMecTz75RJdWv/rqq9hgfv369brikC9fPh3VffjwYb1O9sXSHPIU6Hv+2muvyV9//SVLly41rloppbf41mgmzdq9J++1iz7Wtz2wRxIDgX3+/PkZ2DtIUuh1//HHH8cG9qNHj2ZgT5SEeVRwDxh5jRpFZJAQLDsT3uw2bdqk9fWjRo0yrv4XsvX4UP7ll19k7NixusKAOv2pU6fqh+Mbb7whM2bMsLitJyWOwT15ErMEce7cuXp0pTlz5ujRfE1kf66uu+/WrZt+VsGsWbOkR48eek5ESZNHleWYkElCvTtMmDBBevXqpeeOhGC8S5cuer5y5UqpVauWnlsKPfFRtoOvuEF9kyZNtGwH3Qjo8Tz11FOa7UTpFLKMRO4KU2CRzcW0WmxudFVZH+r+y5cvr+coF7Jtai4lBnXt77//vrRs2dLpN3RYhUY5KeDzqV69enpOREmXx2XuoXLlyjJt2jQ97927t4wZM0bPHQWbZs3Afvz48VYH9oA6cHOT7aJFi2KDebOEBzWtgwYN0kFdZBtm78lToM4e722AcglXwXsS4LUwsHccsywHN1DOcvv2balbt64G9t7e3trqkoE9kXvwyOAe2rdvr4E29O/fX9577z2H9JpHe0tziXLEiBHStWtXPX8cyNajtdjp06dl+PDhOvUPvYTHjRsnL7/8so71RscCZKHJcgzuyZOgVALdaXDD74oyCZRAYnDgM88849IbjOTA2WU5Fy9e1PdLdBjDKicCe3R6IyL34JFlOXFhoh8CfUCQjFp41Lw/LgSI2FyEDgYwffp0adeunZ47ArokmGU7ZlCfKlUqLdnBF1YrKGGXL1+WvHnz6jmm1aLbCJE7w9wMM+iaOXOmJjGcAaWHjRs31nOsLtrjPZUSljFjRrl7966WbaZLl864an+hoaE6dRbli2gEgSGM5s0FEbkHj83cm1q0aKF1oSh7QYYLy4woecHGV1sgk4E/A5P5ENi/+OKLmr1yZGAPFSpU0BuI8PBwrblEMI83+sWLF+v+ghIlSmgmDV0rKH7oF43NysDsPXkCtEg052qgUxiSGY6GLK4Z2A8cOJCBvZM4I3u/f/9+/WxDYF+xYkX9u2ZgT+R+UkS/OQ8xzj0WBlxhSmzatGnl0KFDGuSjWw0CY0yzvXPnjmTIkEEyZcpk/BP/99tvv8m3336rAXVAQIDW1//444/6Z+GDDZNozWywM6RIkUKzKRgi8vbbb0vWrFl1CRVBPXq4Y2Mv3qCx4a5o0aK29cD2YOhKhE5KyNozKCFPgNKce/fu6SCpNWvWSLZs2Rw2y2HJkiXSsGFDPe/UqZO29yXn2LJli77Pv/DCC5IyZUpN9Ny6dUtXcO0xHRYJD9TUY1gW3hvXrl3r0BUCInIcjy/LeRjGZaOVFzat/vTTT8bVGHgjQ3YXb5T//POPlnE8XNeOjU3oWIDlbwTWScXWrVt14xPKdqKiovQabljMsh2zo0Vyhxs77FvA3zP2MRB5CuzPweoddOzYUTP6SELYS79+/WLbIaJzCxoAkGOhwQKy50gwIfjG0LL4IIGFlspY4UWtfOHChY1nLIPPjTZt2uh5q1atYtubEpF7SnbBfVz79u2Tbdu2aab7+PHjGsw/DFkw1OpjaMxbb72lb55JGTI5Zm2+ORIeihcvHhvo58mTx7iaPKGUCsvOuCFK6n+fRNYwWyYCBuNh9kbbtm31sa1WrFghw4YNkxMnTuhj7FtyRnvh5AzvTfPmzZN169YZV2IgY4/378yZM8sTTzyh7/e4Afj777+N74iB8kOUimJ1NzGzZ8/WxhAQt589EbmvZB3cPwxvlNishDKd1KlTa2Yem5jcFT6MzUD/woULxlXRVp0I8hs1amRcSV7QPQlZTbTvMzOdRJ7i6NGjmmXfuXOnPkZywgz0kOG1BN4HsVF2wYIFOoMDkBnGZFJz3wrZ38GDB7XrGvZ2mVAqg2w8Jp4jSROfn3/+WTdXo3QHpVn4LAP8nQ0YMCB27svD0CbanDSLtqb4XiJyfwzuk4mNGzdq2Q6ycCYMdTKz+a+88opx1fMh6MGHJYKe77//3rhK5FkWLlwokyZN0lUqE1YgsQkXP/vI7CMDDChXRALghx9+kAMHDmgZiAl7itBq05zlQY6BRANKqwDvzfhvjn0NKCG0BhotYI8YJp5jfxh06NBB94vF3YP14Ycf6s8HYNgj/36JPAeD+2TmypUrsbX5yBKZUIduBvrWfpi4I2QwkZ1EltPa+lQid4JMLn7fcYOPjbeWqlatms7cwOZ9chwMi0K9u1mCg6AeQT72TD0urLQgiAe8x6MBBAYionQLJVyA8h90lSMiz8HgPhlD1tos24m73wDdMBDk165d27jieVCHjI5JWJY2602JPBnKDdFR6/DhwzogD122zA2aCCR9fHw08MOwvOjPBW25aGkZD9kGCQa836KkBv/9kXG3ZcJ5QvD3jQ3WeL/PnTu3JjPQMQxddtDD3t7/PiJyPQb3pFatWqVB/oYNG4wroh8ECPJRq4v2a54E9cToCoEBQOhGQUQxUOONziwo67FkQybZBqsoWB1B4wO0N8ZgsEKFChnP2hdu7DCbAO/vKM1BORZKNNlFjcgzsQk6KWSP8GaPjVmo/UQwjx7/qMVEz2w/Pz9tj/aoVmzuBjX3gAFkyJ4RUQxzwyymYpPjYHI6AntskkWCwVGBPaC98/r163VjLWagoOMOA3siz8Xgnv4F2Xp0kUGHjO3bt+tyLoZ7oW0o2qRh6RglLejK4M7w/6lKlSp6zmm1RP9ntodFCQ85BoYNoiQG3dhwzJkzp/GMY2HFEokbtH7G+zwReSaW5VCikOkxa/PjBvUYS25uwn3++eeNq+5j+vTp+gGHTYMYakZEMXLkyCHXr1/X2nx01SH7wfA8dCvCoERMSXf2ZlbMdUHHJAgMDNRVWSLyLMzcU6JQo9msWTNd1kWrvI8//liDeWy4w0AbZIL8/f01QEZtp7tAvSswc0/0b2b2nqU59ocONgjskRRxRZcatEPFezh88skneiQiz8LMPdkMHReQzUdrTTOoT5cunW7CwwdXxYoV9VpS9uqrr2o7zFmzZungMvSFRr9vZC2x4Q3/f55++ml59tln9SYGg2RSpEhh/NNEngk90vv27astGvG7QfZx5syZ2EFUSJT4+vrqubM9ePBA5xdgX9Xq1as1OUNEnoPBPT02jD43e+fHHX6DDy6zbOeZZ54xriYdx44dk65du8ZO4LQE2sfVqFFDp/uinIfIE4WEhGjpBkrvEISSfWAKLFqN4qYJ039dCW2AMa0bLY/jDjckIvfH4J7sKjQ0NLY+//z588ZV0YAYQX5SaK2HmtOJEydqmZEJG4WRlS9RooTeiGTNmlUz9H/99Zf8/vvvmtHH0K+4E23xfdhkzMmO5Imwuf7q1asa3CPIp8eHHvN4X0QSxOxK5CoYaGgOLPzll190hZKIPAODe3IYtHczy3ZMWbJkic3moyTGmVDn2q9fP5k5c6Y+RhYeY9nxWswa48Qg0MdMAEx6xHAYQI9q7D2oXLmyPibyBE2bNtXptrNnz5bWrVsbV8lWhw4d0vaTuFFCy2FrRJ4LlsDdYSLP+Yn/az7iZVyPK/JMkAQGh4vkKSv+lQrE+z0PQ9Yek4sxPKtly5bGVSJyd9xQSw6DbD0G4WAS5qRJkzSYv3btmgbXqMfHsv/kyZMlPDz6A8nBDhw4oP9+M7BHPTFeFzrmWBrYAyZ2BgQEaAbfbCuHmn30j0aAT+Qp2BLTvvbu3atHa5MAEfvnS+s6jaRlqwAZvipMIqOMJ+IKD5YxzStLw1bNpdtXoRIR3/fEw3wt5msjIs/A4J4cDtn6zp0761I0xqz36NFDy2BQ14uaz/z582v2fO3atcY/YV/IPmISLUqGkDlDYI5606eeesr4Dttg4iMC+4EDB+rjYcOGSadOnfScyN2xY4594b0CMBTQMpEStmGQ1GzQUzacvykpxUtSxbeXPzJMVn/cXIYYW4dSxRwsYq6eHjlyRI9E5BkY3JNTlSpVSlvBnTt3Tkt2MOoeENgjwEegj4DfXh826ASB8gL06kfgjUDlpZdeMp61j+HDh+u/x8vLS1cqsFmOyN1h/wn63aMeG/3u6fGgUw4UKVJEj4mJ2D9FWjQaIfsu3pTbN7wknXH93yIldFkPaTc3LOZh2vSSPmXMqSXMbj0//fSTHonIMzC4J5dBYI8AH4E+Av4XX3xRS3RQqoNezG+++aa24UMpjy0wVRf9+QFlOI5s6Ve/fn3ZunWrZM6cWf8/cfojeQJz0ydLcx7fH3/8oUdsVLaEd+nWMv7TITJ66XbZNOC5eD+scQPQ/v31EmE8liet+0j39vaWDBkyaOOAW7duGVeJyN0xuCeXQ4kOSnXQxWbnzp3y3nvvaSkPHuM6RrMjG44NupZCe06zRAYlQSjDcTSU/GCzLaCW/7PPPtNzInfF0hz7wXsSIJi2SEofKdtxsPRr+pLkjKccJ/JCoIzuOkT23ckudWbskx9WvyfFrMjam9KnT69H8/URkftjcE9JCjL2yNxjsys60mBTLiAbjuw4WskNHjxY6+cT8sEHH+hSM7L/M2bMMK46HjaoobsIIHsftx0okbthcG8/mPQNGI732G6FyuoPu8iUYykl/9uTZXTLUpLFkvY48TBfD4fzEXkOtsKkJA8BMoJ7fMUN6tFxx2yrmTZtWuOq6MbdatWq6TkGVaF22NlQDrRs2TI9MoNP7gzTmTHJFK1fixYtalwla6FlLuZlnDx50sr/jhESMrim1Bp2TnL3WylbRpQV2T9I3qw1Qk5cjw7Oje9SqVKJ3L0bffKmTDu+WboUTzziR0vgqKgofV34uybPgUnrGNKIv1vsnfnzzz+1JXSaNGkkW7ZsOqsFE5ORVMOeMfIcDO7JrSBwNwP927dv6zW8UZlBPrrioHcz6t8xDRIdbFzh7NmzsR+UyHq+8sorek7kbt599129UcWKGkrmyDZol7t9+3bZtGmT+Pv7G1ct8d/g3vtKkEweOFm2/Gb2vPxHbv1xXA7+GCFRmYpJxZrvyvDRAVI2m/H0IyDgizs9PF26dPLcc8/F+4X6fEr6ENAvWbJEm1RYs1ematWq0qBBA2nRooWkTGlDfRclKQzuyS3duXMnNsjfsWOHcVUkX758+oGVKVMmHThl1pO6AspyMAkXw2EwJIbIHWHl6f3335eGDRtq0EC2wfsB9uJ88skn2hEscZEStnW1BF+4Jj+smynz112Tp2q9K50bFJWcvv8dZhW+ubO81TT676fll7Jtkr/4WBCfYYAVkiEI3JG5TWjmCPY+xRf04+uJJ54wvotcBROHx48fr2WoyM6bsBcMzSqQbMJE4tSpU0t03CeXLl3SDk5YkUN234T9bpi6jtJWJM7IPTG4J7eHpW5MwUWgj4w59OnTR8aNG6fnroI3TvODD50ycMNB5G6wdwWlbU8//bTeOJNtsPqBVRAE0+vXrzeuJiAqXFa//Zw0XP3fLjbF+u2TPaPLStxcOoL7sjVniXTaJMGfWhbc4yYDzQYQyKGlb0REhP59x/f1qA232EvwcLBvfqFZAjkehjN+/PHHcvPmTX2MlaHmzZtL3bp1LUpw4cZg3bp1snjxYl0dB3R1ws+E2XGO3AuDe/IoyC6hdSayEeipb71ICd8fKJt2fydHLojkf/EN8aviJ6Xy2FaPiNr/LVu2yPz58/XNlsgdYSM79r5g0jNqx8l62LeA7Ckypzdu3LAgK2pm7m9LTAGiKa1kiSdzH3kmSAKDw0XylBX/SgX+9dyjIKOL4VooFUpsci5u7OIL+sPCjB778cCKQHxBP75QAkSPB+1L0RXO7NKG9tK4YTOHk9li27ZturoUFBSkj9u1a6crTuReGNyTx8Dk2ddff10/OGwbuhP9Ybqmv9RrOUWO/WVcipa+RBf5av148c9vfYA/ZcoUbeeJwB4BPpE76tChg2b1sOzftWtX4ypZCzf7yIzivaBt27bGVdfAtPBy5co99ooMSiTxfhtf4I8NnI+CWv+HA358YZAhJe7nn3/WrDpuzlBK8+mnn9o1gYSA3vxdR9c5rIxz34X7YHBPHgNDqhBIY+nbpg41FwKlT/1O8umZKHmt0wjp97pI0MQRsjD4uuTsvFJ2jfMTbyv3GYWEhOhE3Oeff1479xC5o0WLFknHjh11mR8lcGQbtPfFpmR0J0Fw7UqYHYKJ2j179tRMrSOgrju+oB9f6NATH9T+xxf04ytr1qzGdyVvWC2pVauWBvhly5bV389ChQoZz9rPwYMHdc8YSl+xGrBhwwaWl7oJBvfkMbp376495tHVA+fWijwxX+o2aC9bnmwj2/csEL9sIuEbOkuNzrPkaom58u2a9lLAyuT9/fv3tfPAgwcPtIsBNyiRO0Iw4evrq8EVNqqT7RCEXbhwQWvw0eHLFcykA7iqBSb2JMUX9KN86VGwyhBf0I+v5NLhJTpmEz8/Py09rVKliu7fcGQbS/ys1qlTR39m0FHHov0i5HIM7sljoI1XYGCgtgBDhtFqFwIloHpTmXE2r3SeP1fa+YqEzm8vHWeek7zvbZDgydZn7qFgwYIaHLGPNLkz9MNGQLZ37155+eWXjatkLXOFEat5p06dckmnGWR9UWePLkjo6JWUYFNo3GA/bskPaswfBTdN+G+KI4J9nOOYK1cu4zs8g9matkyZMtopzhl7F7DfBqU5586dk27dusnYsWONZyipYnBPHgPZjH379mlfebT/sl6khC5oI6+2XS4xPQcMuVvKkm1zpFkR27IjpUuX1v0AeG1mtozI3XTu3FkWLFggo0eP1uCUbId5HCjLQXDt7M2KCObRlhNtEVEqiHptd4EsctzA3/xCecqjoIwkboY/7leGDBmM73IPZlkXOuAcOnRIihQpYjzjeNgrggAf1qxZEzs9npImBvfkMd544w3t14sPTdS0WivyzGrpX7+hTDmBR1nled8n5HToVX2u5Pub5OsJ/uJjQ3yP14IuIxgogmwLkTtaunSpbgLFMCazOwfZBoGZmYDARkhnbVJGth5Ze0CddpMmTfTc3d29ezfeoB9fly9fNr7rv/LkyRNv0J8UV1gxtBHBPNoqz5s3T7vYONvIkSNl4MCB2jELn2mUdDG4J49hdqLAFEhk8a0TKWGLW0vdfl/JX4WHyNzF/cQvj0jYhhHSfuAs2Xe3qiwJ/Ewa2NAx54UXXpDjx4/r5iT0CydyR7/++qsGPsiEYqMkPR50zMGwIEBGtnXr1nruKDt37tQbM/SrxxyQESNGGM94tqtXr/4n4DdLfeIOe4orVapU/wn4zS+seLgC/r7whTp7tFd2FXyGnThxQlecXHGDQZZhcE8eA7v6V6xYIV988YUNLcEiJXRuE2nUcYNI41WycVED3TwbeWpp9IfuAPnqanGZ+/UKaV/I+uA+R44cGgyhXpFDXcidoS866sRxE/04vbQpBjKhGBQEtjYCsARWWtA2EcFsq1atZM6cOcYzyRv2QsUN9s0v3Mg+SrZs2eIN+vGFGQaOglUGDJtCH/rEZhI4Elri4mcIQT4SVpQ0MbgnjzF48GCdtohJfUOHDjWuWi58a3+p12WKHL3+rDTu1VMqPh197duZ8tnGk3KvyABZtnGglLWyzS/ejJHpQW0nzoncWUBAgMydO1cziMj+0uNDG0rz/ap9+/YydepUSZs2rT62B7wvDhs2TM9RVjVjxgw9p0f766+//hXsx/1C17NHQfOE+IL+vHnzGt9hG3O6Mea47Nmzx7jqOgUKFNBk1TfffCMVK1Y0rlJSwuCePMbKlSulRYsWOnobtaVWiwyXwJFvS8fpB+S3a3eMi6kkQ84KMnDJEulXyfqs++bNm/X14E0Z5UJE7uyrr77SrB1K4DCunuwD/eYxaRTy5cunAfnjDrlCT3IE9ajvByQ9PvroIz0n2128eDHeoB9faHkcH2yAjS/ox1fmzJmN73o0tExFF7hp06bFlnIlJuJEoARu3SXB50TyFy8jfjX8/zVpPfJMsKzeGiTHToRL2kJl5ZUq/uJf3LLsFX6OcFOaFLstUQwG9+Qx0H8bmRP0/EXLtBQpUhjPWCEqQkJ3B0nIuWtyIzq+z5Q+ixQo6ydlC1mZsjcguzlhwgT54IMPYpffidwVAhtk7dB+L6Hpo2Q9dK7p379/7Nj/YsWKaU0zArucOXPqtcQg44wbMHQ1QtcwwJ+DDkeo1SbHwUyTuIF+3FIfbIJ9FLTqNNt4Phz4m7D6ixahyJZjsm/CIiV86xhp3Hy07P8zUqLuRV9KlVGeKvK2zFn9qTQo5BUd+C+VTnVby1dn4wwSy1peRq9bIf3KJ57EQuc3JKywwffIkSPGVUpKGNyTR8ESIXbx4wOucePGxlXXwZs22rShTtK29pxESQtau2JDHVai8AFP9oUuNsiGYm+DqVy5cjqJFIE6gjtke5988km5ceOGDn364Ycf9H0Pfydm9hgDn9CytFevXvqYXCciIuI/Ab/5hS448UFyCgE+/h7RaQ3BPybFJio8SPrUeEem/iTyQvN+0vlFkZClM2XNnj8lS6eVsmd8AQlsX13eXxsh2Wp1k2HtfOXa6lEy8qvjkqLUGFm/toeUsiCXhVJT3EyiPSn2IVDSwuCePArayiFLjq4QGzduNK66Bib5YZgW3pSRlSPyBD179pSZM2fKkCFDNNNMjoFe4l9++aW+jzyq3CM+6KGPFpfovoMbAEraMCDq4YAfX8jSx4VkFZJWicHesYpVx8ifVebKrtXtxTdDzKT1Ot1myW8FJ8i2RWVlecMGMvR8Xhm8YYsMKe0tkWeWSpNazWV7ipay4ptF4p/H+MMSgBtOtJ3eunWrVKhQwbhKSQV/88mjoB44TZo0WnOPSZquhBsNaNOmjR6JPIH5QW6WfZBj1K9fX5YvX67lTwjwcTPVtGlTXZ0sVaqUdi7CamCjRo30Jgvfiywq9vlg8yUDe/eAlZi33npLh8RhxQZ7JbBqg2w/utGgLAtQDmcJn0pD5Nuws/Ld0hYa2ItEyMUzYXIz0ksyZc0tXul95Pm8KSXV1Z/k2037JORIiOzbuk4OnX9S0mUtJjktnOtlvp6EOguR6zBzTx4HQzbGjx8v1atX1w86V8AHLd6UUSuJkf244SDyBBgKhO4faPuHAIRBJJHjDBgwQPdtoRNc3759jauWizwxXzrW7SXLLmaRpqv2y6IaPhKxf4LUL9tHdhrfE8NX+q0PkiG1fcSShs/onIUNvrghwcZaSlr4rkwep1+/flqn+PXXX2v5gLOhDhavAT788EMG9naGjdOhoaFa9439DNhoRs6DG1ZkjdEzndl7IseKiorZ9IrBWtaKPBcoQ9oGyOKzN6RAk1HyYQUfkVuhsmri5NjAPlfx5yWmO3+ozJiwUEIs7Nhsvh7z9VHSwuCePE7GjBljlzKRUXD2mGy0tEMdJabkMqPxeLBhC6sgWLLGRk60lENHJJQl4DE2GCLYzJ8/v9SrV0/GjRvH/Q1OwNIcIudA9zfAZGFrRF4IkjGta8qYg7cle/1psnxyMy3TiTzzjSw7fEFylGgo04KvyW/Hf5Q/ji+Rrq8+Kzd/XiXLj0cYf0LCzI3A5uujpIXBPXkctH3DIBgTptViEqEzYNkUm+DQzWLKlCnGVbIWenPjJgnTfbExEK39kKm/d++etgUsWrSoTkhEoI+2jOHh4bpSM2jQIClTpowGn5999pnxp5G9Mbgncg4kLwDvcZbSwL5VdRmySyR342nyzZwusR1wIiMj5PZdkdTp8ohv/piL3nl8pYh3qug7iEj581akXkuM+XrM10dJC4N78hjXrl3TDWfYeAYYtIHezijdqFWr1r9ayzkCSnGQOQYEo3H7FJNl0CECw3uwURCDfbDkixUQ/Hfdv3+/Zq9QlnPy5EnN0OPvFtn9s2fP6k0VJnw+9dRTuhENqya4AcB0R7KvuME9ynOIyDGwKgnooGOR8CCZ8m5tGbIjOoKP9tTNnTKpRytp1aaDBEwMlPAsL8izWX3k19NrZNDwCTJ/wXyZPn6ITDl2TrLmyCMVC1jQBzOa+XrM10dJCzfUkkfYuXOnlm4gQ4/gDiPW0YYSwSDKNdAnGBkGZHMR6NsT/h0dO3aUJUuW6OPPP/88tiyILDd37lwd+nXnTsx0YLRcRPa+cOHC+tgauDFAt6Lvv/9eH6OjCFZS8LNB9oEbMKywoDNV5cqVjatEZE8o8cR7IHrJYzN7wiIl5NMq8lK3Pcbjh+RtKKt2fSGlDn4gjd//XI5euSUxFfNPSrosBaTWmBUy+91S4p1SLz7S9evXxdvbW5544gnd85QyZSL/ADkdg3tye5MnT47tt40sLwL7uNmEu3fvaotM9I2G3r17y4gRI+xSK4g/E6U46IiDoR4I7O1985AcdO/eXWbPnq3nKKPCNF9LW78lBBuqsaKCDyD8eVhRee2114xn6XFgs/ikSZP0d89cLSMi+0MZIlYnsXr56quvGlfjEynhh4Ik6PhFiW80VlqvAlKqhp/4ekd/35GY77vx111JlT6T5HyurPiVLiBeFsTpq1evloYNG+oNPgY0UtLD4J7cFjb0oPTCLLtApveTTz7R8/ggoMcXoG4bQT4ywwjKrYXBHajrNwdlvfHGG/oY47jJOgjmV61apefz5s3Tkfv2hNUc/D3j7ww3dCtWrOAofjsIDAyUBg0a6JRaTEYlIscwB8fhRjqhzzhnQbJs8eLFmoTB0EhKehjck1tCBgOBPcauY0MlsvWWlMLgnxs6dKjs2LFDH6NN5dtvvy01atTQOuLcuXPr9Ych+4+uO8hSIFtvdmRBZx70IcaYd7IeBnyhVh4lUytXrtSbJEdBLT8y9/g7x+ZbjPMn22E1xNxMh0FL+D0kIvvD3hYkJHLlyiW//fabcdU1UBqEVtOAvU/PPvusnlPSwuCe3A7KN1DGAQjQENj7+vrqY0th4iNqvJHNjQvdWTAxMEuWLJIiRQrdrHnx4kU5ffq08R0x8uTJo1Mgu3btqp1xyHoff/yxjB07Vv/7bdmyRbvcOBpWBbDvAmVb+MBkp4fH8+abb+oN87p166RatWrGVSKyNyQ+vvvuO/28w/4yV0FHMqyAY08b2hRT0sTgntwKsvVmi8P33ntP6+0fB4J2lNYgk48OK5i4+SjovIIaQwQxmH5LtsN/c2xyBWzI9Pf313NnwN/dN998o+P92Unn8eCDHp2MsBHaLHkjIvtDII22wEgsoVONK/rLo5tZoUKFtCUxEjKOXGmlx8PgntzC0aNHNbBH9xPs0Ef2Aplze8OS54ULF3TKLN7AUGqA7C76qXPSrP3gRgkfUCNHjtSWpc70yy+/SMmSJfVGDqs3LVu2NJ4ha+EDvk6dOrrJ79tvvzWuEpEjoHwUiaiAgIB/zXJxliZNmuieJZTAonkEJV0M7inJW7RokQb26HmOsfcI7F966SXjWXI3KMVBSQ5Kqvbt22dcda45c+boJlt00AkNDTWukrWwqR0lbHDp0iXJlCmTnhOR/SG5hQ3sgM9FZyYmJkyYoCt0+B0/fPiwriBQ0sUhVpSkoaMNesgjsMfmSwSDDOzdF1ZDzMm9KOlwFfxMIduMTjpmC06yXtq0abVUDTitlsixXn75ZU2OADrWOKtLFZoeILAHrBgwsE/6GNxTkoRa+LfeekumT5+uj9FPe9asWfLkk/yRdWdYyr169apUrFhRl5hdydyUbe7hINvEnVZLRI7VrVs33W8GtWvX1v1DjrR06VKd/A4DBw7kgEY3wUiJkhzU9GHpcc+ePdo3PigoyKXdAch+0O4SsArjavjAQms57OfAZmqyDYN7IudCIwlk7lEWhwYBKDN0hNGjR+scEkCvfQT35B4Y3FOSgjcP1BGihzb6z+/du1fKlStnPEvuDL3QzfkCZqccS0WeC5bVi5fK6v3hEmlcM0WcCJSlk/pLQPf+MmHuagm58PB3PBo65oCjs1+eDME92saiHhh/x0TkeAjosbEWsH8Iwb69euBjfgw2ymMKNQwePDhJDM8iyzG4pyTh119/lVq1asn48eP18ahRo2ThwoWSPn16fUzuDzdq4OfnZ9VU4Ij986V1nUbSslWADF8VJpFRxhMYtb51qNT2ayitPxgj06aOkT5d2kgV/wBZfcayAN+cVItVIrJNqlSpmL0ncgG0oUXpaurUqXViLLq6YS9TeHi48R3WOXPmjGboixUrJhs2bNBOcUuWLIkN8sl9MLgnl8ObCLLzmP6KAVLoe96rVy/jWfIUKH8By4dVRUrYhkFSs0FP2XD+pqQUL0mVwngKwvfJ+L7T5cDfGaVku/Eyb8Z46fLq05Lm+Cr5ePw+iYi9CXg0bKqFkJAQPZJtGNwTuQYG8+H9C6uh//zzj86byJkzp7atRMCPxFlCENCjJTDq95977rnY2TGY6I0/t2HDhvqY3AtbYZJL4Y3IHH6DZUC0ucyWLZs+Js+CuQQYGoVNtRjGkpiI/WOkZsX+su8fPMouPpJK8vZbKVtGlBXvlNGx/db+UrHqGPmzylzZtbq9+GaIvrahs9TpNkt+KzhBtq3rpdcSg583bPJF/3tzrDpZZ9euXVK1alWdH3DgwAHjKhE5E34PZ86cKWvWrDGuxECwj6w+3uuQ5Y+O+7R17c8//yxXrlwxvisGymKxx41d6dwbg3tyicuXL2vvemTtAUuJAwYM0HPyTJhCi83RGHxklsMkKCpcgj+bLbsyVpASJwdJh5HnJHec4F6iIiX8wkW5nSGnFMiGaY0REjLpHWk29luR8p9L4OK3pYAFQxwxUOvEiRO6qRbnZL0HDx6It7e33LlzhzdJRC6GQYzr1q3T1fD9+/fLtWvXjGf+K0eOHDpzBO/J9erVk6eeesp4htwZg3tyOrzhILA3gwBk61FvT57tzTff1A8azCrAh4nlooP2wTWl1rCHgvuHRJ6YLx3r9pJlF7NI01X7ZVENH+OZhOG14HVhwqpZpkPWw+8wfrdRo8ulfKKkA6U5+LzFhve7d+/qtHUE8SiDRVafPA9r7smpMOUOQQDeaJApwCZLBvbJgzmjAIOs7C3yXKAMaRsgi8/ekAJNRsmHFSwL7MF8Pej4QrZj3T1R0pQ3b15tL426+gYNGkjNmjXltddeY2DvwRjck1PcunVLW3WZpTeYdoeSHLzpUPKQOXNmPSa0RGyLyAtBMqZ1TRlz8LZkrz9Nlk9uZlGtvSkiIkKPGKtOtmNwT0SUNDC4J4dDdh5Zg6+++koyZsyoO/jNTbSUfOTOnVuP58+f16M9aGDfqroM2RX95zeeJt/M6SKlvI0nLYRVJDBfH9kGHa/QuvbkyZPy+++/G1eJiMjZGNyTQ6GevnLlyvLjjz9K+fLltd66cePGxrOUnGDaMBw/flyPiYuUsK1LZemCJbLq6HW5H33l75ObZIk5zCo8SKa8W1uG7Lir3/3UzZ0yqUcradWmgwRMDJQwC1rdY1gLNoGi9pQzFR4fs/dERK7H4J4cAnXMmJpn9qvv2rWrbrZDH11Knl5++WU94gbPIlEREjKrkzRv21VGrjsp4fK7nNw4Urq2bS4fr/1RvlsxWPpv+9v4ZpFjX6+UxUsWy+KF82Ta5M8kxII5LubwqldeeUWP9HgY3BMRuR675ZDdHT58WLvhHDlyRKdXInuP3rlEPj4+WuOOjLmvr69x9VGQuV8twRduy23jSoy0ksX3dXk55UnZe/ziQ8/FSOtVQErV8BPfREp06tevL2vXrpVp06ZJ+/btjatkq++++07eeOMNKVy4cOzQMiIici4G92RXCxYs0AEYULp0aQ3sX3jhBX1M1LFjR1m0aJF8/PHHMnToUOOqa2BEu9ktokOHDrrSVLx4cX1MtkPf7OvXr8vp06clX758xlUiInIWluWQ3fTo0SM2sMdIbJQ8MLCnuN555x09zps3T4+uNHv2bONMdPw6bkYxaGvp0qXGVbIFS3OIiFyLwT09ttDQUB1QNGvWLH08depUmT59up4TxeXn56ddVdBNZdy4ccZV58MwF8xcgIkTJ2rm3svLSyfotm3bVvLkySP9+/fXybVkHQb3RESuxbIceizLli3T+vrbt29LsWLFtAyHUz4pIRs3bpRGjRpJunTp9MbQFaUbXbp00Z9VDHNZtWqVXsPP8BdffKFfBw4c0GtQqVIladGihTRv3ty4QgnBnhvcwD377LPaFpOIiJyLwT3ZDJnNyZMn63mzZs00WEL2kygx2GC9YsUKqVevnqxZs8a46hwrV66MbceKIL5kyZJ6Hheum4E+gn7AuHYE+fgqUaKEXqP4YWbA1atXdeN0wYIFjatEROQMLMshq4WFhUmNGjViA/sxY8bIZ599xsCeLIafmezZs2unmoEDBxpXHQ8dXLAfBEaOHBlvYA9Yffr000+1fAhHPEawOmXKFG2biZ//JUuWGN9ND2NpDhGR66SI/mAdYpwTJQrBWMOGDbWcAhk5lOWYmySJLIVJxWiXiKnFCAAxQApTjB0J3VuwUnDx4kX9mR07dqzxzKOhlSv687/77rtStWpVSZkypf7s//TTT7J+/XqZOXOmXLp0SVt8oksMxfjjjz9ky5Yt4u3tLXXq1DGuEhGRM7AshyyG1oWffPKJnqM/OMpwsmTJoo+JbIGuORhwBsjgDx8+XM/tDYOzmjZtKr/88ou89dZbWvdvq+j3zNiSnf379xtXRTeVm2U7yd2xY8ekTJkyOvkX06mJiMh5GNxTotAPHJtmAwMD9fGQIUO03p7ocSGwj9sWs0GDBtptCTXb9oLOTeYNBMppsFqAjLw9YGiTGej//XfMtNysWbPGBvnJuRUsAntk8BHoP//888ZVIiJyNNbcU4K++eYbLZdAYI+BP9j8yMCe7GHAgAEa2KdIkUJvGLFhdfXq1Tq51tzP8Tj27t2rwbwZ2GNIFX5+7RXYA7LTuBlBbT6m3L722mvaZhPX8Fz16tU18E+OWHdPROQaDO7pkVCTXLduXfntt980SEFpA4IloseFny2zzzz2beCGER1qUO518+ZN6dmzp+TPn183vZ49e1a/z1K4QUCdd/ny5eXrr7/WWnhs+MZmWEfBZvL27dvLzp07NZjFJF60+sRjXM+VK5f07dtXs9jJBYN7IiLXYFkO/QdGx6MMx+z/jcALmVUie8Bk2O7du+s5JsOiLWZc2LSNwP/gwYPGFdHpsVhBQgtKBP0ofUHG/6+//tKsOeq6USKDIVS4OQBk6PHvwc9vhgwZ9Joz3blzJ7ZkJzg42LgqUrFiRf3/7Om1+dh4XKpUKS2x+vnnn42rRETkaAzu6V927dqlgf2ZM2d0syw2zSKbSmQPyNKj8wwggMcwqUdBSdjSpUu1K43Za94S6G6DPvatW7dOMhu+caNiBvq4IQG8NrM2/1EtOd0dBllh5Q+DrYoWLWpcJSIiR2JwT7HQz/uDDz7Qc3T+QGDPATRkL9i3gQ2z8PHHH8tHH32k54l58OCBlrccOnRITp06JRcuXNDVpXv37mnpy9NPP63PocXlggULtCtOUpVQNt8M9J944gnjqvtr06aNfPnll1oShT0PRETkeAzuSf755x/N1iPgAJQyYMgQkb2Ym1vxs+aIn69evXrpzeiIESOkT58+xtWkLTlk87HXAe8tjRo1in1/ISIix+KG2mQOdcrlypXTD15sCsSHMQN7sqcTJ07o0CgE9ijJccTP10svvaRHlH+4C0y6RUYbKw64McHv4bVr12In4larVk0WL16sKxfuytxUi3I/IiJyDmbukzFsZgwICNBzBBMIMIoVK6aPiewBQ6P8/f11DwdKclBD7wgnT57UWvsCBQroRk53hfIiM5t/69YtvYYpr2Y2/8UXX9Rr7gSTiM+fP6+JhOTc95+IyFmYuU+m0PvbDOzRtu/bb79lYE92hbp41L8jsK9cubLDAnvAzy464oSFhcmlS5eMq+4HXYHQ4x8dgMxsfkRERGwP/apVq8qiRYvk/v37xj+R9LElJhGRczG4T2aOHz+uH7bmVFBM78TAHSJ7QynO999/rwErNlU6mlmaExISokd3ljp1amnbtq229tyzZ4+89957evOC8hbcjKNvPvYWHDlyxPgnkq433nhDj2ZpDlqVojUm3ouw4oIN0u50s0JElNQxuE9GsNSPXuHYyIflcQQN7dq1M54lsh8E9jt27JDnn39eA/uMGTMazzgOeqqDO9XdWyJuNn/mzJlul83HEDFAtySUTWXPnl1XWrDnAKVUhQoV0q5H+Pvr0KGDLFmyRFd9iIjINqy5dwGUDiDjhnKF8PBwra1F+zsEQMjIISDCBx3O7QUtLrFRDzBAB0FCypQp9TGRPaHl4cKFCzWoQ0DnrHKv5cuXa2/72rVry4oVK4yrngkrImZtvjm0K3PmzFqXj9/vpFCbj58BtCbdv3+/cSUGAvmcOXNK+vTp9YYEm4jRC/9hzZo102C/bNmyxhUiIrIEg3snwUY5BBybNm3SoN4SyK7XrFlT3n77bSlSpIhx1Tr4d6EVnbkkPn78eK23J3IE8yYSnZc2b97s1MDs9OnT+juTnCai3r17NzbIR7tRE0rvzE24mOTrTHifGzVqVOzGZrT3xGbqt956SzfuI3v/MHRSOnbsmP5/wA3hli1bjGdE22hiLgKSHkRElDgG9w6GKZuoad++fbtxRSRbtmz6Iefr66uBSKZMmbTdHZai0V0EdajIdpndMgBTYnv06KH/nKVWrVqlgT3+3Oeee06z9eXLlzeeJbIv9JjHF6xdu1aqV6+u586EjDAywQju8buVnCSUzceXWbbkKDdu3NAZBphCDFg96NatW+xEYmtgdXP27NkyceJEvYGBxCYaExFRDAb3DoJNYh9++GFseQACeHzIYSw+6t4tgezVV199JfPnzzeuxJQ8jB49WtKmTWtciR8yXWPHjtVz/DvRecMZdc+UPMWdboxyDKw2uQJWunAjvXLlSqlVq5ZxNXlxRTYf+xzw/vbjjz/qqg3ee8xuXI8D5TqDBg3S8h7AxNtZs2bpORERxY/BvQOsXr1aM0zIIKZJk0Y/nDBBM7GA/FH++OMPLafBF2ADGoJ1swtFXPgwRLYeKwbgThM7yT1hMyc6uABWqcxzVxg4cKD+nnz00Ud6g5vcIeg2A31k1gGJBgT4qM23RzYfJX8NGzbU1YI333xT5syZoyuF9oTXj83/KN/BDRxWJYmIKH4M7u0MXS369++v5/jAw7Jyvnz59PHjQos/3CTs3LlTH2OaLDadmVCrisAem3Tz5s2rNwBVqlQxniWyP5TfoDMOJIUbSdxY43cCJUF4bRQjKioqNshHlywTyvTMQN+WbD5uHjBJF4E9/hxM1HUUDMFC/f2vv/4q9erVc0p7VSIid8Tg3o6wFG1mCxHoDBgwQM/tDXWtZm96ZMlatWoln3zyiQwdOlSvoRwBgf3TTz+tj4kcAa0uMX0W+0VQkjN8+HDjGdc5d+6cbj7Hzz72r9B/JZTNx5c5LyAxCOhxc4BSHEcH9ib0xkfCAquZKPsZN26c8QwREZkY3NsJ6uLNzV6oCUVtvCMNGzZMBg8erOfodW22m8MNBcqAiBwJAWKNGjV0szbKcJLSIDSslGFK7alTpyR//vzGVXpYYtl8fCXULhc19tg8i1Ic3Og5C/5dfn5+eo4bCuwpIiKi/2NwbwcHDhyQihUr6vmUKVO0Q4QzoPxnzJgxep41a1a9qahTp44+JnIUdKJBYI/MOEpyPv/8c+OZpAElG19//bUsXbpUWzBS4lDyhyAfwbKZzccGfJTrxJfNR6MAPIfNs0ePHnV6m8pJkyZpiWKePHm0uxj2NlHSg1U93IxhcCJao6KkCnvRcGOJPWgYaFawYEEpUaKEDmdz1kwMIk/H4N4OkOlCH3v0jzcHRTkL6vpRZ4yl6g0bNhhXiRzj8uXLWoqD8ggE+GvWrDGeSTqwqoU+60mlVMid3Lt3Lzabv3v3buOqaIcvM9BHNh8bcRGsYcXGHl1xbFG5cmUJCgrSJMeQIUOMq5QUbN26VW+use/l9u3bxtXE4SYR+ypQaspVNyLbMbh/TNgwi84cyDxgCIuzYSQ9sh0YR4+uJU2aNDGeIbIvdCpBYI8SDmTZMKQqKWZMcZOLUg0EfxgaR7Yxs/n4QvkVIJtfunRpzcaWLFlSJ227ChoLVKpUSSfenj9/nq1+kwD8vqFbVXBwsHFF9OcFCTD8vGCA2VNPPaU3iAj6L168qMPnkBzDjRoem9q3by/9+vXT5hBEZB0G94/h77//1iVFBNbr1q1zWUnM9OnTddUA0znRUYLIEVDigo5MuJlEYJ9UN2yjHeyzzz6rk1HjBgtkm0dl87HPqG3btsYj18DNJn4WsbHWVSsIFLOih5Uys4MRBshhL07z5s31d9FS27Zt0zkZ+FmD1KlTy8iRI/l3S2QlBvePwWx7WbVq1di+8q6CabfYQMg6Y3IEc/MksmgI8O3dx9zeEFAgyEf5UFJ/re4Ew8FQmoMbpz///NO46joY8oeBaWXKlNF+++R8CMjRQAK/b1jJQ1lc3759jWdtg30UCOrNacco1Zk3b57u8SCixD1pHMkGZnahc+fOenQlszuP+ZqI7KVHjx76IYt2iTi6Q7BsbgBFVx+yH5S/QP369fX4WCLDJWTDUlm6OPprc4hERBnXrYCgD2U5WLHEVHByLiST0HoZgT1WUX744YfHDuwBq4P4s/Hl7e2tN5XYV4YyVCJKHIN7G6Ee9cSJE5IrVy7tzmG5SAk/FBj9gbZags5Exl4L2xH9RrZgvsyP52vpiiAJu2V86yMgmwbIqqIbAZE9oN2qOe4fS+6on3UHDO4dw2yZ+dZbb+nRdpESuqKvtO38rrTvMV3OZiwg3o/uuvlITz75pO6tgL179+qRnAPvB2ZZFjoXod4eZar21LRpU23z/PLLL2vHHdxUXrlyxXiWiB6Fwb2NsPkHMArdYlERErrsA2nYuIW82+oDmRca8f/rs7tK87btpX08X817rJDQRIL7bNmyxU6jNV8b0eOYMGFCbKtVZOzN3uLuAN1cADfhZD/mBtpXX31Vj7aKOLJEhkzYLkfuF5ZG0+ZJn/LexjPWe+WVV/Toys29yQ1KoNq0aaPnGNyI9wpHKVy4sGzZskXKli2rbVfRSYeIEsbg3kbmxtU33nhDj4mKDJegKa3Fv+tcCbkq4hX9v1gpveWlPvPk82lTZWrs1zjpWim9Pp3xpQpSwILPvgoVKuiRm2rpcaG+1ZywjMy9XcownIiZe/u7deuWblBGf/LHytBeCZbZfcfKth+jA/MWk2VsY9+474ZWw0RiwPwFcry//vorthQVM13MyeiOhDkuq1atkkKFCmnyCl10iOjRGNzbCBt+wMwQJixSQhd3kYZ91su5P+/I7VRZJGZMjMlLfEo3kNZdAiTA/KpbVKL+SCWpspaUjt38xNeCT78XX3xRj6h7JLIVBhSh+xIgc29m6NwJOvmg7R4CUv4+2Aem/kLOnDn1aJOocAma/pFM2/+HPIj8S9Je2iJLlgWJuYhpC5RGgvn6yLEQWONGCm1IMbTRWfBzhw5NgH8veukTUfwY3NsI0znBsgyWl/g2HijTRwyReVu2y7RyiUXqERLy1ThZd+6u5KoQIO3K+hjXE2a2HDNfG5G10PUJw4oAmfvu3bvruTsyb7yZvbcPtP6F9OljVhRtEbF/oYxf/71cSJ9C/k4RJcfXTpU+HRtK1aaTJdjGUuoMGTLoERllcizsucCqHqBbnLNhpdwcWIauPEQUPwb3NkA2EAN98KGCJWqLeJeSZgMGRwfqOcUrhXHtESLP7ZMZcw/LlfSFpFGXmuIb89mVKNTdQ1JoUUfuBxvXsIENkLkfNGiQnrsrlubYFzavwv379/VotcgwCZy2RE4cTisF8zeQCSvWyxfj3pcqvj5y+9vZMmZLmJgtBqyBPvxw7tw5bSxglopgWviSJUu0Dz5KFc+cOcP3xsc0adIkPX744Yc6V8UVsMkfHbuwwdZslUlE/8Y+9zbA0CofHx/bej3fCpX5LRpJ+3UiTddvl6W1H87KR0jIuDriP+CwpPGfIpu/aGdxcI8uOahN5PAeslZoaKjUqFFDwsPDNXM/d+5c4xn3hdpctOd77bXXdJopPR5zOBjKYHButYhgGVmvrQz8Kat8tG6TjCyNjUSREjKzgTQfuFmeqLVJts/3Fx8ru+Zs377dqu49TzzxhL5P4gvTUuM7j+85ixM5HgqbWbGRGr3s8fmCzxlXwT4g1P1jUjYbSBD9F4N7G2BsNt7YMFAD51ZJJLiPPLdaOtZoL19eKyT9lq2X4ZUsK8kB9ADGZEDceCCLRWQJ/NwgsP/xxx+lbt26snz5cuMZ94abXdTpIhi5fv26cZVs9eDBA+0pj2P054b+d7XKrRCZ/vY70vtgOum6fIeMrxQd3EdFSNC4+tJh2GFJ33aN7JriZ3VLzM8++0zatWun3ZwwbO3q1auadMFX3HPzMZIztkBwH1/Qb54/6jncTHgCZOuRue/SpYtMmzbNuOoa+BnEf1/8jh84cEBKlixpPENEwODeRiiBQXkO3lwwZMNiCQX30R90wZPqSJOBRyRFjUlWZe0Bbf9QilCiRAldsiRKDH6Gkd1G2cKbb76pcxLM8gtPgNKB06dPa8mRueGcbIf3F2xQxs+L2YLSctHvb5/Ul4bDD8iD0h1l4LslRMK/lXkzN8sPf+eUDsu2yLQqliczTD179tT6b0sno6KsKL6g/1GPzXPc0NjCDPYfDvofPo/7+HH2NTgKBkthI+3u3bulfPnyxlULRIRJ0NZgCffyFb8apf61MhNxIkgCdwTLd2euSZbi5aRODX8plcey3knvvfeezJ49W8sHzc5eRBSDwb2N8MGG0fYWf8hFhkvwhiD54UqYBH++SOZ/FyXlAt6Xtq8UkAIV/MUvv5dEnlktHWu1l+URhaRv9AfdcGS2rICM6zvvvCN16tTRsexEialdu7Z2ncDmU9QmW3Wj6gbQ6QfDdmbOnKlZXXo8HTt2lEWLFsnEiRM1qLZaeLBM6FRP+qz/f2eblF5PyRsffiVL+vqJjw09McuUKaPJDAxRMgdaOQI27JoBf9ygP77Hcc9tgVXh+IL+h88ffpwiRSIbumz0008/adIoR44cWrpnqcgLQTK9WzeZ+M1JiSwxSrZt+1BKGQmr8B1jpFXzobLj0m2JwraJVGnE+9lmsmDzDKkX/XmYmHXr1ukASbSAZuccon9jcG8jLANjs9aMGTNie/4m6EqQ9ChdWabETG+PI7s0DTwmS6t4SfBIP6k07AfJVu8z2bqwmVVZe0DWaty4cZrFcPfNkOR4zZs3197R6PiEwP6ZZ54xnvEcaJmH1n0dOnTQDZb0eLCBETdJGJiHwUI2iYyQsCP7JPjHX+Ru6nzy/CvlpFQhb5t63aP8EC1PUSKEgDplSuFItFgAADU8SURBVBvG3DoQykfiC/gfdc18bHYmshZuzuML+hO6OciYMaPxTz8abpBxo4x5F6tXrzauJizixFIZ1LaHLDzxjzyZ+rqkf2GUbAw0gvsrwTK0TgMZeeyeFG/SXdqV9ZLQpbNl/YGr8lS7FbJjUuLlWfhvhRV03AjZWmpF5KkY3NsI7cDQUaRx48aWZcnNzP2th2r0U2aJydz7XIx+Plh+iPSSopX8payFS5NxYQXh0KFDsnHjRjuMhydP9v7772utMj4cUYrjqs4XjoYSAgSiGF+/d+9e4yrZ6saNGzpDAFCi8VjDrOxg9OjRWguO9+HFixcbV90f9nLFF/zHdy3uY1s6GaVOnTreoD/u423btsnKlSt1Gq1FQ6vCg6R/lcoy5kTMw9y5o290CkUH9xtjgvuIHSOlgt9A+dVvqgSvC9BEVvjmHlKn4xT5rfAE2baxl0WzXZCQQOtnlIq5+meRKClhcG+j8+fP61hsvDEia+DqTgrodlK0aFFtz3nlio0NoylZMDfGpUqVSgN7c7KxJ0IpBYIUbGrE/gJHlS0kJ+aqJVYKMeTMldC95+zZs5pNxt6R5C5u0G9+JXaDgN8LSyGphb//xEVK2NZZsuhIPqmQf5f07xUdtD/7/+BeoiIl4sJFuZYhpxTIFh3snwuVwCkdpPnk7+XZ97bLnk/9LOqahPcu9N5HWY4nv48RWYvB/WNAh5EdO3ZoPS8297gSAjZksVq3bq2bjIjig58RcwgMSnJq1qyp554MWXtMlEYW3/pNoPQwbE7G5mvcKKEsJk+ePMYzzoUyK/S0x36R4OBg4ypZKzoGeGTgb36hBAvtL/Ge0aBBA+OftEz41h5Sp+1Dwb0pKlwCu7wsNef8HvO4aFfZtGmc+FtQcw/YM4SV6uTyXkZkKQ6xegytWrXS4/Tp0/XoKlgqN1+D+ZqIHob9IWZgj5Kc5PJhyGFW9oW5ASiDwfAoV+3t+eOPP2J/lnv37q1Hsg1q1jG7oHjx4joBFnX1yM5/8MEH8sknn2iyyLwptn8nLS/JUqyalM9nPPxhmgyZFyIRUcbjRJgrcTYPViPyUAzuHwOmeaI92IkTJ1za93fEiBFy8+ZNXUl4/fXXjatE/4cyil69euk5SnKaNWum58kBMruAVrFkH6i9RqD3+eefu6TWvXv37ppRRua2UaNGxlVyFLM1pzUlPAmKipDwM2HRQby3lO32mez++bacXT1AyuUXObV2vhy2cH+s+XqSYutQIldicP+Y+vfvr0eUxbhicBTqDdEhB9AVhOhhWLY262SR7bSou5MHYebe/jD+f/z48XqOny2U6jgL+tmj7W+mTJlk7NixxlVyJLTABJsmEz9M57nUl9IvvyyVhwTHZOlTeknOAjklc1pv+QdtMS3M3GMAH5ibvIkoBoP7x4TlaXwhg+DsoAmbBc1/Z48ePXS5nCiuXbt26ewDQObevBlNTszg/tixYzYPIqL/QscltMW8e/euZs/x39fR0Np08ODBej5r1ixtg0mOh43LcOrUKT1aIuJEoCxdMF+WbP1J/n4gcv/yIQlcPF+Wbg6TXOVqSYGMUXJifmtp/dF0mT93ggQETJPQ8ymkSJlaUjSb8YckAGVhmKoN5usjohjcUGsH6E6Dchh00MHGWmywdQYM8MAgj7Jly+rGXqK4jh49qh1EsEEO2VVX7w1xJdz4HjlyRIKCgqRcuXLGVbIHBPZYHUL2FH3w/fz8jGfsCxl7M7DHEC3cXJBzYFgj6vHRkQ2b0xMXKWELakjBtjuNx3G8Mkp+2NJZIha2lk6Tg+XMucuiDaLTZ5dcz9WVuWs+tWhDLVrbYlIuSmO///574yoRAYN7O0F5DPppY2gJ+t87emBOkyZNZMWKFboRCm3AmLmguFAihj0YYWFhGnx98cUXxjPJk9nXH6Uk+P0k+8L+ozVr1uj5hAkTYvd32AM2z6LGHqU4wMDeNXDzhuYNmFZbqFAh4+qjIXMfePBiTOAeR9psL4l/jVLinTJSwg8FSVDoRbnxl0imzDnFt4KflLJwxgtKDNFzHwm1yZMnG1eJCBjc2xGyV+bmLpTqoCcw6kLtCYNjkIX99ttvdQARPlDZ3o/iunbtmgb2yFRXrVpV1q9fbzyTfJlD57CRGEE+2R/63k+dOlXPK1WqpJ10cHwcSJIgW4+fabyXohTH2laMZB+YUItJteigkxTK+zB47/jx47J27VqpXr26cZWIgDX3dlSrVi0N8DE0B1n1F1980eJR3ZZAgIL6YQT2RYoU0QFEDOwpLtShosYegf2rr76qZRLEjjnOgM2tWCHKmzevlgmiPAdBFzLu+Lm0FFadEEBi4ij62COwR1ecAwcOMLB3ISSsAB2SXO2bb77RwB4/awzsif6LmXsHQHYdWUKzDr5u3bq64RWDX2yBzCuWohHUA95k0Xozc+bM+pjIhHIt/Lzg5m/z5s2SM2dO45nkDeVyGTNmlKioKLl06ZLdV9To//755x8NzpHFx6Z/QC/1ypUrS5kyZfRnE+WEmKaNoB/BO/YrIVhDHfWhQ4f0nwEkM1Diw3aXSQP+Pn744Qdd/cJmalfBXiK8v2FVB53qiOjfGNw7EOoA0YPe7MWLD7aGDRtKtWrVpGTJknrtUdBa7uuvv9YVALyZAiZBor80B1VRfNq3b6+ZUwT0+OBDEEX/hw2B2BiIrF/FihWNq+QoeN9buHChvodZ0yozTZo0UqdOHa3jRxBHSQf+Pjt16qSrKqdPn44dIuVM+HlCEsPb21vr/3HTTkT/xuDewTBoBXWjKKm5fPmycVU0647gK3fu3JpFRGbx+vXr8uuvv2o3gui/F+M7Rd9IO3TooJvK7D8hkDwBpnSiGw6GuaBcCyU59G/4/cG0TWSVe/bsaVwlZ0B/dGTl0cHpzJkzunqCrD6CQ7z/IXFRuHBhKV26tN54uSJoJMu89dZb2kACJVNoTepM+IxEYgwrPZjvEhAQYDxDRHExuHcibH5FRhW9xxMbeIUPOpTx1KxZUzdFEj0KWgSOGjVKz1GSw5+X+JlZR5S1uWKqKpEnMNtiAurvW7durefOYHaJQ4nXpk2bjKtE9DAG9y6CzBUyWGjzhuXrJ554QpcXUVLx/PPP65IjUWJQ+mV2rkBJDmuTHw013diAjjZ+J06cMK4SkbWwGv3BBx/oOYJsZ5RPYd8aVgqyZs0qu3fvZvtnogQwuCdyUwsWLIidUIySHLRIpYRlyZJFbt++rWUi6GpFRLZBcG/Oc1m1apVDOxmhBMj8d3F1kihxLOAmckNosWoG9ijJYWBvGXT7gMOHD+uRiGyDmvfmzZvrORpFoBWqvV28eFG7zZmBPfrsM7AnShyDeyI3s337dh3GBP369bPrNFBPx373RPaDja0mvBehPMdeN87z58/XQVXI1Pv4+GijgHr16hnPElFCGNwTuZGDBw/qkCpA5h7j18lyzNwT2QdWC9E1p2jRojJ37tzYFrwvv/yyPof3KlssWbJEXnvtNW3te+XKFR1ghk5LGIpGRJZhzT2Rm0BfaWTGLly4oJl7DJIh65w6dUonR+fLl0//exKR9cwOXWi9GxQUpO0p0aYS17H/x4QN7HjPQncdfE98+1ww9BE3AliRXLduXWzL6Pz58+uAKmd24yHyFAzuidwAuirhQxIzENAeFRvYyDZPP/203LhxQ9vRYrmfiCxntpSFr776SgeOxYUucJgngQw85rzEhS5w6HaTKlUq+fvvv/V9DRONH4a6epTjEJFtGNwTJXHRv6NSo0YNCQ4OlvLly+vSNz4cyTbVq1eXnTt36qZkZ7TwI/IU+L3B7w9YMkQKdfLI7KM3fmhoqNy8edN45v8wyBG19a+//rpm9lFuiKFmuEkgItswuCdK4rCJ7Ouvv9YPQHxYZsuWzXiGbIGl/kmTJsmgQYNkwIABxlUiSkhYWJhUqlRJwsPDpWvXrjJ+/HjjGcshkx8RESFRUVGSNm1afS/DMS6U8mAmxfLly7VTDhFZjxtqiZIw1JsisH/mmWe0DRwD+8fHTbVE1rl//760adNGA3tscLUlsAeU5BQsWFAHNebNm/c/gT2YncCWLVumRyKyHjP3RI/p7Nmzsn//fs02IbuFDg937tyRlClT6ocZNm+io0SZMmV0U5mlsOSNLhSoU0UpjtnGkR4PNvAVK1ZMu3vg74uIEtaqVSutr8fqIcpsMmTIYDxjf6jDRzID8LuKsh0isg6DeyIb/P7777Jo0SKt2z527JhxNXHIVqHMBsNf0LXlUQYOHKjZsSeffFJLcd58803jGbIHBAxXr16Vn376Sf9OiCh+KF9DfX3mzJk1sMeNsaO1aNFCVq5cKcOHD9dJuERkHQb3RFZAUI9JjLNmzTKuiGTJkkWDb/R3fu655yRHjhy63IwuEMjiI7N/5MgR2b17t3ZoMaGetE+fPlpjGhc+SPGBCqw7dQyUFmzdupX/fYkSgEFSXbp00XNnbkBHQqNBgwbi6+vLgXNENmBwT2Qh9G/GBszo3xl93KRJE12uRmtKS6F8By3i0Cru7t27eq179+4yZswYPZ8zZ45069ZNz1GS07JlSz0n+xo8eLD+N8dUTQ4CI/qvbdu2Sa1atfQcG9DRxcaZENijbA6BPgdYEVmHG2qJEnH79m1dJu7du7cG9gjqkYlH1teawB4wefHTTz+V3377TXr16qXXpkyZom3gUIZjBvY4Z2DvOOb+BWYFif4L5WrYQAs9evRwemAPTZs21ePSpUv1SESWY+aeKAGYBvv222/L999/rxtbkb03uznYw759+3TjbNzOLWzR6Hi//PKLduxA9yH8HRNRDJQTouUl3vPq16/vsq416HNfvHhx3Xd08eJFrfknIsswc0/0COjagM2v+JArXbq0HDhwwK6BPZQrV04HvJh/Lj7IkMUnx0IHI3TLwZ4IdOQgohjI2OM9Dy1jP//8c+Oq8xUqVEiqVaumbTiZvSeyDoN7okdAKc6JEyekQoUKWn+KTK8jpEiRQuvwO3TooB9k6KSDZXFyLJbmEP0bBrxh4ywmxSKwT5MmjfGMa5hJDwb3RNZhcE8UD9SZorsNNnWtWrXKKUvC2EzbuHFjbdHoihrX5IbDrIj+Dx3AsHEWENg7KplhDZREonTu4MGDusJJRJZhcE/0kA0bNsS2ulywYIFkz55dz50BH6pFihSRPXv2yIgRI4yr5AgM7oliYEgeEhowbdo0qVKlip4nBczeE1mPG2qJHoJ+9SdPntRWiX379jWuOs8333wj1atX13O8jmeffVbPyb6wSa9AgQK6KoP9FUTJ0Q8//KCtJiMiInRgFAZHJSXoTIYuY5kyZdLfWZQxElHCmLknimPevHkaUJcsWdIlgT1gE9m7776r5xMnTtQj2R821GJj7fXr1+XUqVPGVaLk46+//tL3GgT2aPGb1AJ7wCRvNBm4ceOGyzr3ELkbBvdEcaDuHTA51pXMkeuYEBkeHq7nZH/cVEvJGQL7o0ePSpkyZbQEMaliaQ6RdRjcExmwgfbYsWOazUWnHFfCRt6GDRvq+ZdffqlHsj/W3VNyhQTC+vXrJUeOHLrXJymXuyC49/LykqCgIAkNDTWuEtGjMLgnMmzcuFGP6NBgqcgLIRI4d4L07x4g/SfNl8AjEcYz0aIiJHTzUlm6+KGvzSESEWV8TwLeeecdPeIDmByDwT0lR9g0i0nZgMC+YMGCep5UpU2bltl7IitwQy2R4ZVXXpHjx4/Lzp07pWLFisbVR4s8s1oCGrSSxaF/yR0N1lNLxpxlpPfCFTK4io/IlWD58M1yMvqkfvv/+c2TH9a1E98MxuNHuH37tqRLl07PseGTExrtD21Hc+fOrcHDtWvXjKtEngvdwNByF9AVDEOr3AFWVtHFB7+vHDxHlDBm7omi3bp1SwN7LE1jaFWiIsMk8ONesuxUaslZubeMnzNNRrxdTJ6KPCQLhs+TkIjob4kIk1NXnpAUeevIwAlTZeq06K9Zn8umCQ0TDewBAScm2AImRpL9YVgPuhHhRgp//0SeDGWH5mZ9DKxyl8Ae8L6MRge//fabrF271rhKRPFhcE8UzeyWUqJECXnyycR/LSLDQ2T5jvPyV956Mn3WCOndoYv0HtFHXs4VKef/PCJhEZHR33Ncfo54ID7lW0uXbgES0CX6q1Nr8X/R2/hTEofXAz/++KMeyf5YmkPJAbpCIbBHIgMlLoMHDzaecR9NmzbVI0tziBLG4J4oGrJB8Mwzz+gxMV75G8jskLNy9tuJ4p/fS69FhB2TC7dFfNL5iHf0pWthh+XCneg/e1lDyZkqoxSu2FgGzg2S8Ej9dovkz59fjxcuXNAj2R875lBygMAebX7RVvKzzz4zrroXs+4e+5B+/fVXPSei/2JwTxQNWS3IkiWLHi3h7VNACuQxsvBXgmXJuLly5Jcskrdac3nJO1LCjv8iWsWd5RnxLZpdrn+/QcYPfk86zbVsQy2Yr8d8fWR/zNyTp+vZs6cEBgZKnjx5knTLy8Q8/fTTsfsFmL0nejQG90TR7t+/r0eb2sHdCpWlfVpKn61/yr2XOsqQdqXE28tbyvUNlH2798nh7/bLvu2b5LPB1eT5lD/JsRVfyeE4TXUSYr6ee/fu6ZHsL25w/+AB+wuQZ5k8ebLMnDlTzxHYo9WvO2PXHKLEMbgniobNq4CJjVa5FSarP2wkzRf+LPJce1m4cEhsmY5XtgJStnxZKVXIR7x9fMWvcWspnT2bnPvzJwmPsKw2x3w9Ztccsj+MtS9SpIhERUWxNIc8ypo1a6R///56junbFjULSOJq1KihrTuxD2nbtm3GVSKKi8E9UTQs98LFixf1aBEE9oNqScNpP4gUaS9LVo+TZkViAnsVGSFxY/jIK7/IL9eviPeT3uKTIc73JcB8PebrI8dgaQ55Gvwsm51xBg0a5PLBfPbE7D1RwhjcE0Uzh7hY3JUGrTAHNZSGk6MDe8j4h6wZ3U1atWglHfrPl+Bj38qYOrklS763pMek+TJ/7kjp1naU7P8ls+R4vYEUzRbzjyXG7OKDdo3kOAzuyZNgfgMC+8jISGnVqpUMGDDAeMYzxA3uIyIsrHEkSkY4xIrIkDdvXrl8+bL89NNPUqhQIeNq/CJ29JDX/KZIvLcC3sWk6+xR4jOzjQzc+f/BSGm8M0u21z6URXO7i18eyzL32ACHTj7oT/38888bV8ne9u7dK5UrV9bOOcHBwcZVIvdUp04d2bJliw7j++abb4yrnqV+/fqyefNmmThxorz//vvGVSICBvdEBmSDVq9erZvP3nvvPeNq/CLPBUvg7h/kWnxdb1JmkaIV/KVstggJCd4noRcuyY0nM0m+wmWlXOkC4p3S+L5EIIv88ssv600HbjjIcTDEyuxMdOPGDUmdOrWeE7mbgIAAmTt3rrbRDQoKkly5chnPeJYVK1ZIy5YtpXTp0rJnzx7jKhEBg3siw8KFC6VTp0464hxZL1fDUvqoUaOkQ4cO8umnnxpXyVFeeeUVnVL77bffyquvvmpcJXIf48ePl4EDB8oTTzyhgX3ZsmWNZzwTOv9cunSJv7NED2HNPZGhYcOGkipVKtm6dascPXrUuOo6uNmARo0a6ZEci3X35M6QyUZgD2h56emBPXBjLVH8GNwTGTJkyCBt27bV8ylTpujRVaZPn6619mXKlNG6WXI8Bvfkrr777rvYzjhDhw6Vd955R889XdOmTfWI4B6tbIkoBoN7ojhQrwrIfO3evVvPne3WrVsyYsQIPTdfDzmeGdyz1z25kz/++EMDewS3SE7069fPeMbzlSxZUsqXLy83b95k9p4oDgb3RHGgS06fPn30vG/fvnp0Nvz7w8PDtfbfHLVOjodOOahVPnHihPXDzIhcBIH9zz//rN2eZsyYYVxNPliaQ/RfDO6JHoKsebFixWT//v3SrVs346pzoMvF7Nmz9XzkyJF6JOdImTIlS3PIrXTu3Fk3ziIpgdXG5AjBPSaM79y5U06ePGlcJUreGNwTxWPq1Kl6RJea0aNH67mjrVu3Tjp27Kjn+Pe/8MILek7Og+w9sDSHkjq8LyGgRxMAHJPrFGsvLy9m74kewuCeKB6vv/66zJkzR88//PBDbUnpSCtXrpR69erpec+ePWODfHIuZu7JHSxbtkyGDBmi5wjs0cY1OWNwT/RvDO6JHgFj2ydPnqzn6DmPHvgPHth/LMTYsWNja+sxafGTTz7Rc3I+BveU1O3bty+2Mw5K99gqNyYZ8+KLL8rFixd1ECFRcsfgnigBmFSLzBg2WiKTj1KZjRs3Gs8+HvTSr1WrVmx3C9xAYJQ6uQ4CBEynPX36tJw9e1aOHTum0y937dolhw4dkl9++cX4TiLnQ3tcM7DH6l7v3r31nJi9J4qLE2qJLIBMbo8ePbSfNNSpU0e6du2qHW2shaB+5syZsRtnc+TIoUE9hmiR65w7d05v3JANvXbtmnH1v1Dji5uAChUqSPXq1TVrSOQMVatW1RvNatWq6R4d+r8rV65Injx59Bw355heS5RcMbgnssK4ceN0I5vZKrFo0aJSt25dqVSpkpQuXVqyZMmi1+O6c+eObtDEiHQEj8gEm7AyMHjw4Hj/OXKOwMBA7VK0efNm40qMzJkza4Dg7e0tKVKk0PkDWPZH9jQuX19fzabiZu/JJ7kYSo7RoUMHWbx4sRQpUkQ75GTNmtV4hkytW7eW5cuX636E/v37G1eJkh8G90RWQlYXmffPP//8P2UayMKjawVas929e1ezSb/++qvxbIz06dNLy5YttYYfgSG5BlZhhg0bJtu2bdPHCMybNGkiNWrU0ME4BQsW1OsPw9//gQMHZOvWrbJmzRoJCwvT67lz55aPPvpI2rVrp4+J7AXtefGF9xUE9mZXJ/q3r7/+WhsTPP/881pSR5RcMbgnegz4oEWQh01u+DC5ffu28cz/oV4fffNfffVVHTSDkh70VCfXQenN8OHD9Tx79uzSq1cvvdmyZQUFG/imTJmi5RKAfRRoZZorVy59TPQ4kK1H1h6+/PLL2K5aFL/ixYvLmTNnZMOGDTaVTRJ5Agb3RHaEsg1k61GKg/7TKOnImzcvyzWSCKymoAsSMu6AtqMI8rGa8rgWLlyoU40vXbqkWXxsxH7jjTeMZ4mshxtG1NnDmDFjpHv37npOj2beuDdt2lR/B4mSIwb3RJQsoGa+fv36snv3bs3Wz58/X2rXrm08ax+4uUMXE+ytwA3dqlWrtMyHyFrnz5/XvTy///67tshlJy3LoEzOLHfEfzvuTaDkiOlEIkoW3n77bQ3ssQkaGVF7B/aQM2dOLQdAic/9+/e1B3ncDdRElsA8jTZt2mhwWrNmTQb2VihQoID4+/vrOdtiUnLF4J6IPF7nzp1l+/btUqhQIdm0aZN2HHGkWbNmaQb/3r170rZtWy3VIbIUfmaCg4O1fpylJdZjz3tK7liWQ0QeDV2N0HIU7Sz379+vLUudBRlEtNhEOdCyZcuMq0SPhta4qK/PmDGjbtgvUaKE8QxZ45lnnpE//vhDduzYIWXLljWuEiUPzNwTkcf6888/tT0loH2pMwN7wKAybKrGBt4lS5YYV4ni99lnn2lgD7gpZWBvO2bvKTljcE9EHguBEgJ81Neb7QSdCZ2SzGBt1KhReiSKD8rGsHEWUGOPWnuyXdzg/p9//tFzouSCwT0ReaTLly9rv3kYOHCgHl0BtfevvPKK/PzzzzJv3jzjKtH/oS87phwD2l2aQT7ZDqseaEWLaeLM3lNyw+CeiDwS+s6j6wjq3cuUKWNcdY2AgAA9otSCKC7MXkBgj03XGFBlrvTQ42NpDiVX3FBLRB4JE4GPHj0q69at06nArvb000/rasJ3330nL7zwgnGVkrsWLVrIypUrpVSpUrqBNm3atMYz9LgwTBCTopG9P3TokHYfIkoOmLknIo+DEhgE9tjManFgHxUhoTuWyvTBARLQZ6RMXxEsYbeM5x4WESqBy5bK0jXBEh5pXEsEsrLwzTff6JFowIABGthj0BJaXjKwt680adIwe0/JEoN7IvI4+/bt06Ofn58eExUd2AdPbiZ+/q2l+7BpMm3CQOnZrrb4d14qoQ8H+JHhEji0ntRs1lyaD1wvYRYG95UrV9bj3r179UjJ25w5c2TChAl6jsDe0bMXkqumTZvqkcE9JScM7onI4xw7dkyP2MhqiYhD06TP2G1yM1MRaRYd3M+b2Fte90klpzaPkhGbw4zvgkgJXdFbmk8+HfMwRczBEmbdP1YUKHnD6k23bt30HJu+q1Wrpudkf+XKldOSp/DwcFm1apVxlcizMbgnIo9z9uxZPVqWDUU5zlrZdzmNlOy9SKYO6iLtAgbKoAYFJe/VG3LuaHj0dxjfuX+6vN9qqfE4vWRMlUbPLIGx+Ci7uHjxoty69ah6H/J0p06diu2M07t3b+2mRI7F0hxKbhjcE5HHQecRyJkzpx4T5i1le26Tsz8dk1XdSkU/ihZ5UcLO/CmRadNL5nze4oVLF4JkdNc+shPPgxVZe5OPj48esbGWkp/bt29rYI/ZC40aNZKRI0caz5AjmcH9pk2b5Ny5c3pO5MkY3BORx/n777/1mC5dOj0mystbChQqID6I4iVSwrbOkPFbzsitbEWkhV8B8boVJquHdpYxh0Xyt1gih0OWSLMC1r99pk+fXo8I8ij5QWAfEhKi5WKosyfneOqpp+Sdd97Rc2bvKTlgcE9EHidFipi0+r179/RojfA9U6RV22ly6mYOqT3oY/HPEykhi3tI36VnJYNve5k+vIH4ZjC+2UpRUVF6NF8fJR/9+vWTtWvXaktUBPapUqUyniFnYGkOJScM7onI46AFJqD8wRoR+ydLhzr9ZU9EKnlz9CKZ8m4p8Y7YJ59N2Sm/RUbJrR/mSc0CaSXtc81l6c935O/DQ6VcljRSd1mYWNI059q1a3rMnDmzHil5mDFjhkyZMkXPEdgXKlRIz8l5qlatKs8995xOA2Y7WvJ0DO6JyOPkyZNHj2FhcTvdJAyBfctaPWXjtXRSbfTXsqy7n/ikjH7C21dqtKwrtavWkBrVY74qly8q3ulTSAqvPPJq9Xeltm8WrctPCAbp/PHHH5I6derY2nvyfKjz7tWrl54jyDdbopLzMXtPyQWDeyLyOL6+vno0W2ImJuLQLGlZNzqwv4pH2eX+wc+lb/tW0qpNgIzZHCl+AxbJ+s2BEmh8bVwwQPyjI/80RdvJpGWzpP2LMSsFCTFbYJqvjTzfiRMnYjvjoCynbdu2ek6uYQb3y5cvl6tX9ZedyCMxuCcij1O6dGk9WjQwKjJMAgdHB/YxDXainZetqxbL4iXRXwunyZS5++KfVPv3TYm8e8d4kLjdu3fr0dLe++Tebt68qYH9jRs3dDPn0KFDjWfIVZ555hmpVauWnjN7T57sicjIyAfGORGRR3jw4IF2yEDXHNTYPvvss8Yz8YiKkNCtgbIvPP4ONml9XhL/KqXEGyU6pohQCdwcIhFeBcSvRlmjy07CKlasKLt27ZIlS5ZIw4YNjavkqdDqcuPGjVK2bFkJCgqSJ554wniGXAmDrJo3b66DrYKDg42rRJ6FwT0ReaQ2bdrIl19+KcOGDZNBgwYZV13j5MmTUrx4cfHy8tK6+zRpLB9+RY733Xffyffff68Dpi5cuCDXr1+X+/fvaytVdLfBzWHJkiXl9ddflyxZshj/1KNhONX06dMlV65cGtjnz58/5glKEjBQDsPk8HeDCbZEnobBPRF5pC1btkidOnUkb9688ssvvxhXXaNbt27y6aefSrt27TToI9fDKsqyZctkw4YNcuXKFeNq4ipVqiSNGzeW1q1bx9vSdOrUqdK3b189R1cWrNhQ0vLRRx/JxIkTpX379jJt2jTjKpHnYHBPRB4LgdWBAwdk/Pjxmk11hdOnT0vhwoX1HK8FGWByna+//loDOwT3piJFimhWvkSJElqXjew8And0OPr99981o3/w4EHZsWOH8U/EDEbq3r17bCAP69atk7ffflvP58yZI61atdJzSlqw0Rn7crAygww+V9LI0zC4JyKPtX79emnSpIl+iIeGhkq+fPmMZ5wH//4VK1Zopnf27NnGVXK2y5cvayCObD1kz55dOnTooJtdEdRbAptkV65cKZ9//nnszQF6p48aNUpXiPz8/HSfx4ABA1xeCkYJq1atmnz77bcyc+bM2I5GRJ6CwT0RebQWLVpoQFa3bl2dEOpMCBzef/99yZAhg7blRA02OR9KtN577z3NwmMyLDrXfPDBB5IyZdxd0tYJDAyUESNGxG7KRCYf7RXx8zZv3jy9RknXwoULpVOnTlKhQgXZunWrcZXIMzC4JyKPhmX3V199VS5duiT9+/eXTz75xHjGsbZt2yZVqlTRc2Tskbkn5zODOKhZs6ZOik2we5KV8POEGm7AasCvv/6q55S03b17V3LmzCm3bt3SDdUvvPCC8QyR+2OfeyLyaPgAN8thRo8erSUUjrZnz57YdpcBAQEM7F0E5TNmYI+SHLSmtGdgDx9++KFm8b29vbX0p2nTpsYzlJRhBYcTa8lTMXNPRMnCggULpHPnznqOQG/MmDF6bm9r1qzRoCH6vVUDPfx7yfnQqQalWIDyGdTBO9KhQ4d0ZQArROzC4h72798vb775prY7dXVHLSJ7YuaeiJIFbJqbNWuWno8dO1YDMQy4sqfBgwdLgwYNNLBHtp6BvWtgloCZse/Xr5/DA3tA9xUMSMKwKtTcc/N00vfaa6/Jyy+/rDdk2PRO5CmYuSeiZCXu5kpsqBwyZIhurkydOrXxHdZDtn748OESEhKij9EpxRkBJcUPN1bLly+X2rVra8ckZ8INXdu2bfVn6+jRo3YvAyL7wtwJtMmtUaOG/h4Dhpj98MMPms3/888/tT4f7w/YNI2BZMWKFdMOXERJFYN7Ikp2MLQIpTlmrS0+tFFKgbaIL774ol5LDP4Msy0i+tcDWiqipt/cSEvOt2nTJt3vgGnACNAwjdTZ0N9+8eLF2vMeG3op6ULwbnaxwnsA5hngpiwxr7zyiv6e169f3+JWqkTOwuCeiJItZPEx0Gjnzp3GFZFChQrFDjRCX3xzoBG6apgDjdBdY9++fcY/IZI7d24daIRJtORa6DWPvxvsqYg7YMqZkPHFTcX9+/e1lzq6NVHS9NVXX2nmHpuhTVh1wU1+wYIFtQMSsvYotcP3oJTvyJEjxnfGwM8cWt7WqlXLuELkWgzuiSjZ27t3r3z55ZdawoF6bUtVr15dGjduLM2bNzeukCsFBQWJv7+/dkjCjZgr4cZi3Lhx+rMxf/584yolFZhP8PHHH8vu3bv1MYJ4bISvU6eObrJ98slHb0lEoI9pxZhI/MUXX+gkY0Bpz7Bhw5jJJ5djcE9EFMfhw4fl+++/lx9//FF+++03rb9FBhY1tjly5NAa6pIlS2p2n3W3SQsmzqIcBhubsZfClX7++WddBQLcMGbOnFnPyfXQEtf8+cDqHG7EunTpoo+tdfv2be2MhD8TJT6A1UBk8olchcE9ERF5BLQ0vHHjhpZOFS5c2LiagKgICd0dKEE7g+XUXz5S5FU/8a9RVgpkEIk4ESiBIRfldpTxvXGlzCJFK/lL2TxexoX4VatWTUu/kLnn6k7SgM3O5l4blOMgKH+cScWma9eu6ZC8OXPm6GO03Z00aZKeEzkbg3siInJ7GBz21ltv6aRRSzZEIrAPntxMGgzaKpcjo+Re9KVUGZ+SZ+tOldUzG4jXmgZSsNXmmO/9j+ekf/B38slr3sbj+E2ePFl69uwpLVu2lLlz5xpXyVUaNWqkg8wyZMggixYt0s2w9oYN9mi7Cy1atNC2qETOxj73RETk9jBEClAuZYmIQ9Okz9htcjNTEWk2bJrMm9hbXvdJJac2j5IRmy9KzgqDZNWcqTJ12v+/hrctHfMP53xJKuRJOLCHChUq6BEbsMm10B4VgX2ePHl0A70jAnto06aNbN26VdKnT6/1+Li5I3I2BvdEROT2UIoDyNwnLkJCd6yVfZfTSMnei2TqoC7SLmCgDGpQUPJevSHnjoZLZP6y0qBDgAR0Mb7a1ZKCkdclY6rsUq5jdynnY/xRCcDeDMD+jaio+Op7yBkwgwJzD7DvAZtgMbjKkbCCtHbtWj2fOXOmzJgxQ8+JnIXBPRERub0LFy7oEUOGEuctZXtuk7M/HZNV3UpFP4oWeVHCzvwpkWnTS+Z83vJwNX1E8CKZvuOC3M/jJ73bRP8zFpRpo5YbGzYBm7PJ+ZClHzlypJ5js/VLL72k546GAN+cUN2rVy85fvy4nhM5A4N7IiJye+hqBFmzZtVjory8pUChAuKjUXykhG2dIeO3nJFb2YpIC78C/w7ub4VK4OzFcuJKBinZtrv4JbKRNi7MSQDz9ZFzDRw4UI+YGI2Jxc6EEp2OHTvqOdpuEjkLg3siInJ79+5hS6zowDFrhe+ZIq3aTpNTN3NI7UEfi3/+fwfv4Qe/kqm7fpF7z/hJ7xaWZe1N5usxXx85DzLn2ItRpEgRGTFihHHVuTBMDROwN2/erDX/RM7A4J6IiNyeOXPAHChkqYj9k6VDnf6yJyKVvDl6kUx596Hg/VaobJq+WE5f8ZaSrfuJ30OBf2LM15M2bVo9kvNMnz5dj2hR6Sre3t7Sr18/PWftPTkLg3siInJ76HEPFy9e1KMlENi3rNVTNl5LJ9VGfy3LuvuJz0NZ+fDghTJ9/y8S9Ux16d3CN6Y+3wrh4eF6NF8fOce2bdvkxIkTOnQOnXJcKSAgQNtvYoLysWPHjKtEjsPgnoiI3F7BggX1aHbNSUzEoVnSsm50YH8Vj7LL/YOfS9/2raRVmwAZsyZUInEZWfsZK+Xc5aekRLueVmftsckXtfYoy7B4LwDZxerVq/WIXvOWwuCypZP6S0D3/jJh7moJuaA/Bf91JVQCly2VpYuXyur94TE/Kwnw8vKKfR1r1qzRI5EjMbgnIiK3Z7adPHjwoB4TFBkmgYOjA/tLxmM5L1tXLZbFS6K/Fk6TKXP3SdgtkfDds2X05jD5O18VGWBD1t7sb2++NnIe9JqHevXq6TFhkRK+dajU9msorT8YI9OmjpE+XdpIFf8AWX3modBdf3aaSdt3O0qnyYfFK89/OyvFp27duno0XxeRI3FCLRERuT20mkQJBmrbb926JU8+mUDuKipCQrcGyr7w28aFf0vr85L4V/KVi7tXS0i4iHcJf/F/0drQXuT999/XPufolPLRRx8ZV8nRzp49K0WLFhUfHx/LyrTCg6RPjXdk6k8iLzTvJ51fFAlZOlPW7PlTsnRaKXum+Rn7MCIldFlHebv3Yrn6dBMZNm+2tCtt2c/FP//8I2nSpNHzq1ev6pArIkdhcE9ERB6hYsWKcuDAAR1Y1KRJE+Oq6+TKlUuDy7179zp8cBL93/r16/Xv39/fXzZt2mRcfbTwrf2lYtUx8meVubJrdXvxzRB9bUNnqdNtlvxWcIJsW9dLr0UcmSWtmgyQrbfzSYupq+XT+g+1TE0EfgYOHz4s3377rbz66qvGVSL7Y1kOERF5hEaNGulx4cKFenSlZcuWaWD/4osvMrB3svPnz+uxUKFCekyMT6Uh8m3YWfluaQsN4qPDeLl4JkxuRnpJpqy5xQtZ+4gQ+bz/GNl5KYVEhqeSiF2rZcmGEAlPrOA+Dqwsgfn6iByFwT0REXkEdEVBWU5gYKDs2rXLuOoaU6dO1eO7776rR3KeK1eu6NHiDkUpvcQnfwEpkC0mDx95YpVMmhYsZ67nkFfaVpQCXhES8sVQ+WzfOcmU6rZI6tOydU4fCWjtL41HBkl4lP5jiTJfD8pyiByJwT0REXmETJkySbdu3fTcVUOLYP78+bJ//37Jnz+/dOrUybhKznLnzh09okuNtSLPBcqQtgGy+OwNKdBklHxYwUfkwj6ZMf+gHE/7vPjUHCKrVi6VGb0bSYHsd+X7leNl7SnL0vfm6zFfH5GjMLgnIiKPgYFFqHVHVxIze+5M2Njbt29fPecmWtdInTq1Hq0NoiMvBMmY1jVlzMHbkr3+NFk+uZmW6URGhEnYX79LrvxVZOzo3tKghr80+2isDCj5tHidOi/bjl9MtB0mYFMtpEqVSo9EjsLgnoiIPAbKckaNGqXn3bt3lz179ui5syBT/+eff2rrw1atWhlXyZnMmQJmeY4lNLBvVV2G7BLJ3XiafDOni5QyG+F4ZZGMT6SRu5F3JNIswYmMkGu37sjtzA8kXYa0Fm2sNV8PZx6QozG4JyIij/LOO+9I586d9bxp06YWD7Z6XO+99552Z8mTJ49MmTLFuErOli9fPj2iJaZFwoNkyru1ZciOu/rwqZs7ZVIPDDTrIAETA+Widymp9mwOufXzRhkyfILMXzBfJvTrLCMPXpD0eUtLvRKWtcP8+eef9Wi+PiJHYStMIiLySA0bNtRgG9NrV61apZ1rHAU3E7NmzdL++t98841UqFDBeIacDTdz+Lt+5pln5Ny5c8bVR4mUkE+ryEvdHrHCk7ehrNq1Uvwi5kunBu3lqzDjuqQQL++XpMui5TKitmUtMVFzj1IhdFHKkiWLcZXI/hjcExGRR4qKipIGDRrIli1bJGPGjLrRtXHjxsaz9oFArWPHjrJx40YN7FeuXKn91cm1kB2/dOmShIaGSpEiRYyr8YmU8ENBEnT8osQ30iytVwEpVcNPfJGcjwiTkOAQCf31pkj2vFKqbDnx9bFs0+7OnTulUqVKUrx4cTl06JBxlcgxGNwTEZFHQztK9J0HZNjRSccedc8LFiyQfv36yeXLlyV37tz6+I033jCeJVdq27atLF26VMaMGRO7wdmVevfuLRMnTpSePXvKJ598YlwlcgzW3BMRkUdD0G1usp05c6a2qBw6dKiEh4frNWutWLFCy24QQCKwr127tuzevZuBfRJSr149PS5ZskSPrma+Dmy0JnI0Zu6JiChZOHbsmAwbNkxLaEz169eXGjVqSPny5cXX19e4+m8I4A8cOCDbtm2TNWvWyC+//KLXsXF2wIABHFSVROHvMywsTPdboDzLVbAXAytGZcqUcflwNUoeGNwTEVGyEhQUJHPnztVAPS5seMQmTGx2RP38X3/9pTX1qN2Oq1ixYhrQd+3a1bhCSRHmHKAkB0E1bs5c4cGDB/Lss8/qTQZWkNC9icjRGNwTEVGyhMAdWXxsdjx48GBsRv5hGTJk0O4ryO5Xr15dXnvtNeMZSupeeOEFOX36tIwbN0769OljXHUe7MkYO3asvP7667J9+3bjKpFjMbgnIiKKdvPmTZ0we+PGDbl3756kS5dOnn76acmZM6fxHeRu1q5dq3MPAAPNEGQ7y/r162Nr7FHShZtDImdgcE9EREQeq1evXjJjxgydd7Bjxw6nDJE6cuSItr6MiIiQQYMG6d4MImdhcE9EREQeDR2Ntm7dquVV69atc2iAf/ToUc3Ynz9/Xt5++21ZuHCh8QyRc7AVJhEREXk09LzHXgkzo753717jGfsKDAwUPz8/DezRhYmBPbkCg3siIiLyaJhQvGHDBqlSpYqcPXtW69/Hjx9vPGsfgwcPlpo1a8qff/4pjRo1+k83JiJnYXBPREREHs8M8N9//319/MEHH2g2/3GD8C+++EKKFy+uMxSgf//+eo3IVVhzT0RERMkKuuh8/PHH2iYTSpYsKc2bN5c6depI4cKF9VpCMBANtfsI4s0/46WXXpLhw4dL5cqV9TGRqzC4JyIiomRpypQpMnPmTDl37pxxRSR//vy68RbDp7JlyyZp0qSR6FhJh5mdOXNGQkJCtGWqCZNwu3TpIu3btzeuELkWg3siIiJK1pCFRzYfHXWuXLliXH20XLlySdWqVaV+/fpSrVo14ypR0sDgnoiIiMgQGhoqJ0+e1InF2Bz7zz//aPb+qaee0qx+sWLF5LnnnjO+myjpYXBPREREROQh2C2HiIiIiMhDMLgnIiIiIvIQDO6JiIiIiDwEg3siIiIiIg/B4J6IiIiIyEMwuCciIiIi8hAM7omIiIiIPASDeyIiIiIiD8HgnoiIiIjIQzC4JyIiIiLyEAzuiYiIiIg8BIN7IiIiIiIPweCeiIiIiMhDMLgnIiIiIvIQDO6JiIiIiDwEg3siIiIiIg/B4J6IiIiIyEMwuCciIiIi8hAM7omIiIiIPILI/wCaUcqDBS3UXQAAAABJRU5ErkJggg==;" vertex="1" parent="1">
                    <mxGeometry x="50" y="10" width="759" height="720" as="geometry"/>
                </mxCell>
                <mxCell id="3" value="" style="shape=image;verticalLabelPosition=bottom;labelBackgroundColor=default;verticalAlign=top;aspect=fixed;imageAspect=0;image=https://blogs.mathworks.com/images/loren/73/colormapManip_14.png;" vertex="1" parent="1">
                    <mxGeometry x="870" y="120" width="530" height="397.5" as="geometry"/>
                </mxCell>
            </root>
        </mxGraphModel>
    </diagram>
</mxfile>